Playpen-Th00ShortFast.ufo
<glyph name="exclam" format="2">
  <advance width="340"/>
  <unicode hex="0021"/>
  <outline>
    <contour>
      <point x="170" y="216" type="curve" smooth="yes"/>
      <point x="184" y="216"/>
      <point x="189" y="220"/>
      <point x="189" y="231" type="curve" smooth="yes"/>
      <point x="189" y="875" type="line" smooth="yes"/>
      <point x="189" y="886"/>
      <point x="183" y="890"/>
      <point x="170" y="890" type="curve" smooth="yes"/>
      <point x="156" y="890"/>
      <point x="151" y="886"/>
      <point x="151" y="875" type="curve" smooth="yes"/>
      <point x="151" y="231" type="line" smooth="yes"/>
      <point x="151" y="220"/>
      <point x="156" y="216"/>
    </contour>
    <contour>
      <point x="170" y="-14" type="curve" smooth="yes"/>
      <point x="196" y="-14"/>
      <point x="210" y="1"/>
      <point x="210" y="31" type="curve" smooth="yes"/>
      <point x="210" y="61"/>
      <point x="196" y="76"/>
      <point x="170" y="76" type="curve" smooth="yes"/>
      <point x="144" y="76"/>
      <point x="130" y="61"/>
      <point x="130" y="31" type="curve" smooth="yes"/>
      <point x="130" y="1"/>
      <point x="144" y="-14"/>
    </contour>
  </outline>
</glyph>
<glyph name="dollar" format="2">
  <advance width="668"/>
  <unicode hex="0024"/>
  <outline>
    <contour>
      <point x="316" y="-19" type="curve" smooth="yes"/>
      <point x="478" y="-19"/>
      <point x="579" y="84"/>
      <point x="579" y="220" type="curve" smooth="yes"/>
      <point x="579" y="389"/>
      <point x="448" y="425"/>
      <point x="324" y="479" type="curve" smooth="yes"/>
      <point x="226" y="521"/>
      <point x="131" y="554"/>
      <point x="131" y="679" type="curve" smooth="yes"/>
      <point x="131" y="780"/>
      <point x="204" y="853"/>
      <point x="326" y="853" type="curve" smooth="yes"/>
      <point x="420" y="853"/>
      <point x="480" y="818"/>
      <point x="533" y="760" type="curve" smooth="yes"/>
      <point x="540" y="753"/>
      <point x="549" y="749"/>
      <point x="559" y="756" type="curve" smooth="yes"/>
      <point x="571" y="766"/>
      <point x="566" y="775"/>
      <point x="560" y="783" type="curve" smooth="yes"/>
      <point x="513" y="843"/>
      <point x="434" y="890"/>
      <point x="326" y="890" type="curve" smooth="yes"/>
      <point x="199" y="890"/>
      <point x="91" y="813"/>
      <point x="91" y="681" type="curve" smooth="yes"/>
      <point x="91" y="528"/>
      <point x="198" y="490"/>
      <point x="310" y="441" type="curve" smooth="yes"/>
      <point x="423" y="393"/>
      <point x="539" y="358"/>
      <point x="539" y="218" type="curve" smooth="yes"/>
      <point x="539" y="99"/>
      <point x="453" y="19"/>
      <point x="316" y="19" type="curve" smooth="yes"/>
      <point x="219" y="19"/>
      <point x="139" y="56"/>
      <point x="86" y="113" type="curve" smooth="yes"/>
      <point x="74" y="126"/>
      <point x="68" y="128"/>
      <point x="59" y="120" type="curve" smooth="yes"/>
      <point x="49" y="111"/>
      <point x="48" y="103"/>
      <point x="59" y="90" type="curve" smooth="yes"/>
      <point x="116" y="24"/>
      <point x="204" y="-19"/>
    </contour>
    <contour>
      <point x="329" y="-126" type="curve" smooth="yes"/>
      <point x="343" y="-126"/>
      <point x="348" y="-122"/>
      <point x="348" y="-111" type="curve" smooth="yes"/>
      <point x="348" y="996" type="line" smooth="yes"/>
      <point x="348" y="1008"/>
      <point x="341" y="1011"/>
      <point x="329" y="1011" type="curve" smooth="yes"/>
      <point x="315" y="1011"/>
      <point x="310" y="1008"/>
      <point x="310" y="996" type="curve" smooth="yes"/>
      <point x="310" y="-111" type="line" smooth="yes"/>
      <point x="310" y="-122"/>
      <point x="315" y="-126"/>
    </contour>
  </outline>
</glyph>
<glyph name="quotesingle" format="2">
	<unicode hex="0027"/>
	<advance width="135"/>
	<outline>
		<contour>
			<point x="67" y="528" type="curve" smooth="yes"/>
			<point x="77" y="528"/>
			<point x="83" y="535"/>
			<point x="83" y="546" type="curve" smooth="yes"/>
			<point x="92" y="695" type="line" smooth="yes"/>
			<point x="93" y="706"/>
			<point x="85" y="715"/>
			<point x="67" y="715" type="curve" smooth="yes"/>
			<point x="50" y="715"/>
			<point x="42" y="706"/>
			<point x="43" y="695" type="curve" smooth="yes"/>
			<point x="52" y="544" type="line" smooth="yes"/>
			<point x="52" y="534"/>
			<point x="58" y="528"/>
		</contour>
	</outline>
</glyph>
<glyph name="parenright" format="2">
  <advance width="229"/>
  <unicode hex="0029"/>
  <outline>
    <contour>
      <point x="47" y="-43" type="curve"/>
      <point x="42" y="-53"/>
      <point x="45" y="-56"/>
      <point x="54" y="-60" type="curve"/>
      <point x="64" y="-64"/>
      <point x="67" y="-63"/>
      <point x="71" y="-55" type="curve"/>
      <point x="134" y="84"/>
      <point x="164" y="217"/>
      <point x="164" y="350" type="curve" smooth="yes"/>
      <point x="164" y="483"/>
      <point x="134" y="616"/>
      <point x="71" y="755" type="curve"/>
      <point x="67" y="763"/>
      <point x="64" y="764"/>
      <point x="54" y="760" type="curve"/>
      <point x="45" y="756"/>
      <point x="42" y="753"/>
      <point x="47" y="743" type="curve"/>
      <point x="104" y="616"/>
      <point x="134" y="483"/>
      <point x="134" y="350" type="curve" smooth="yes"/>
      <point x="134" y="217"/>
      <point x="104" y="84"/>
    </contour>
  </outline>
</glyph>
<glyph name="period" format="2">
	<unicode hex="002E"/>
	<advance width="250"/>
	<outline>
		<contour>
			<point x="125" y="-11" type="curve" smooth="yes"/>
			<point x="146" y="-11"/>
			<point x="157" y="1"/>
			<point x="157" y="25" type="curve" smooth="yes"/>
			<point x="157" y="49"/>
			<point x="146" y="61"/>
			<point x="125" y="61" type="curve" smooth="yes"/>
			<point x="104" y="61"/>
			<point x="93" y="49"/>
			<point x="93" y="25" type="curve" smooth="yes"/>
			<point x="93" y="1"/>
			<point x="104" y="-11"/>
		</contour>
	</outline>
</glyph>
<glyph name="slash" format="2">
	<unicode hex="002F"/>
	<advance width="258"/>
	<outline>
		<contour>
			<point x="22" y="-60" type="curve" smooth="yes"/>
			<point x="33" y="-63"/>
			<point x="38" y="-61"/>
			<point x="40" y="-52" type="curve"/>
			<point x="247" y="745" type="line" smooth="yes"/>
			<point x="249" y="753"/>
			<point x="245" y="757"/>
			<point x="236" y="760" type="curve"/>
			<point x="225" y="763"/>
			<point x="220" y="761"/>
			<point x="218" y="752" type="curve"/>
			<point x="11" y="-45" type="line" smooth="yes"/>
			<point x="9" y="-53"/>
			<point x="12" y="-57"/>
		</contour>
	</outline>
</glyph>
<glyph name="zero" format="2">
	<unicode hex="0030"/>
	<advance width="610"/>
	<outline>
		<contour>
			<point x="306" y="-15" type="curve" smooth="yes"/>
			<point x="442" y="-15"/>
			<point x="545" y="97"/>
			<point x="545" y="349" type="curve" smooth="yes"/>
			<point x="545" y="600"/>
			<point x="442" y="712"/>
			<point x="306" y="712" type="curve" smooth="yes"/>
			<point x="168" y="712"/>
			<point x="65" y="600"/>
			<point x="65" y="349" type="curve" smooth="yes"/>
			<point x="65" y="97"/>
			<point x="168" y="-15"/>
		</contour>
		<contour>
			<point x="306" y="15" type="curve" smooth="yes"/>
			<point x="183" y="15"/>
			<point x="98" y="121"/>
			<point x="98" y="349" type="curve" smooth="yes"/>
			<point x="98" y="577"/>
			<point x="183" y="682"/>
			<point x="306" y="682" type="curve" smooth="yes"/>
			<point x="427" y="682"/>
			<point x="512" y="577"/>
			<point x="512" y="349" type="curve" smooth="yes"/>
			<point x="512" y="121"/>
			<point x="427" y="15"/>
		</contour>
	</outline>
</glyph>
<glyph name="one" format="2">
  <advance width="360"/>
  <unicode hex="0031"/>
  <outline>
    <contour>
      <point x="193" y="-11" type="curve" smooth="yes"/>
      <point x="204" y="-11"/>
      <point x="209" y="-8"/>
      <point x="209" y="1" type="curve" smooth="yes"/>
      <point x="209" y="700" type="line" smooth="yes"/>
      <point x="209" y="709"/>
      <point x="205" y="712"/>
      <point x="194" y="712" type="curve" smooth="yes"/>
      <point x="183" y="712"/>
      <point x="179" y="710"/>
      <point x="174" y="705" type="curve" smooth="yes"/>
      <point x="129" y="657"/>
      <point x="75" y="614"/>
      <point x="31" y="588" type="curve" smooth="yes"/>
      <point x="22" y="582"/>
      <point x="20" y="578"/>
      <point x="26" y="568" type="curve" smooth="yes"/>
      <point x="32" y="559"/>
      <point x="40" y="560"/>
      <point x="49" y="566" type="curve" smooth="yes"/>
      <point x="86" y="588"/>
      <point x="137" y="626"/>
      <point x="179" y="667" type="curve"/>
      <point x="179" y="1" type="line" smooth="yes"/>
      <point x="179" y="-8"/>
      <point x="182" y="-11"/>
    </contour>
  </outline>
</glyph>
<glyph name="two" format="2">
	<unicode hex="0032"/>
	<advance width="530"/>
	<outline>
		<contour>
			<point x="61" y="0" type="curve" smooth="yes"/>
			<point x="454" y="0" type="line" smooth="yes"/>
			<point x="459" y="0"/>
			<point x="463" y="5"/>
			<point x="463" y="15" type="curve" smooth="yes"/>
			<point x="463" y="25"/>
			<point x="459" y="28"/>
			<point x="454" y="28" type="curve" smooth="yes"/>
			<point x="92" y="28" type="line"/>
			<point x="180" y="130" type="line" smooth="yes"/>
			<point x="401" y="387"/>
			<point x="452" y="457"/>
			<point x="452" y="540" type="curve" smooth="yes"/>
			<point x="452" y="646"/>
			<point x="375" y="712"/>
			<point x="259" y="712" type="curve" smooth="yes"/>
			<point x="174" y="712"/>
			<point x="103" y="674"/>
			<point x="65" y="626" type="curve" smooth="yes"/>
			<point x="61" y="621"/>
			<point x="55" y="613"/>
			<point x="66" y="605" type="curve" smooth="yes"/>
			<point x="75" y="598"/>
			<point x="82" y="601"/>
			<point x="88" y="607" type="curve" smooth="yes"/>
			<point x="130" y="653"/>
			<point x="182" y="682"/>
			<point x="259" y="682" type="curve" smooth="yes"/>
			<point x="364" y="682"/>
			<point x="420" y="625"/>
			<point x="420" y="540" type="curve" smooth="yes"/>
			<point x="420" y="462"/>
			<point x="375" y="398"/>
			<point x="157" y="145" type="curve" smooth="yes"/>
			<point x="51" y="22" type="line"/>
			<point x="45" y="15"/>
			<point x="47" y="0"/>
		</contour>
	</outline>
</glyph>
<glyph name="three" format="2">
  <advance width="663"/>
  <unicode hex="0033"/>
  <outline>
    <contour>
      <point x="314" y="-19" type="curve" smooth="yes"/>
      <point x="484" y="-19"/>
      <point x="580" y="86"/>
      <point x="580" y="249" type="curve" smooth="yes"/>
      <point x="580" y="351"/>
      <point x="521" y="443"/>
      <point x="394" y="473" type="curve"/>
      <point x="499" y="506"/>
      <point x="543" y="599"/>
      <point x="543" y="681" type="curve" smooth="yes"/>
      <point x="543" y="826"/>
      <point x="445" y="890"/>
      <point x="318" y="890" type="curve" smooth="yes"/>
      <point x="225" y="890"/>
      <point x="130" y="843"/>
      <point x="83" y="783" type="curve" smooth="yes"/>
      <point x="78" y="776"/>
      <point x="70" y="766"/>
      <point x="84" y="756" type="curve" smooth="yes"/>
      <point x="95" y="748"/>
      <point x="104" y="751"/>
      <point x="111" y="759" type="curve" smooth="yes"/>
      <point x="164" y="816"/>
      <point x="235" y="853"/>
      <point x="318" y="853" type="curve" smooth="yes"/>
      <point x="419" y="853"/>
      <point x="503" y="804"/>
      <point x="503" y="683" type="curve" smooth="yes"/>
      <point x="503" y="586"/>
      <point x="443" y="489"/>
      <point x="306" y="489" type="curve" smooth="yes"/>
      <point x="238" y="489" type="line" smooth="yes"/>
      <point x="231" y="489"/>
      <point x="226" y="484"/>
      <point x="226" y="471" type="curve" smooth="yes"/>
      <point x="226" y="459"/>
      <point x="231" y="454"/>
      <point x="238" y="454" type="curve" smooth="yes"/>
      <point x="303" y="454" type="line" smooth="yes"/>
      <point x="446" y="454"/>
      <point x="539" y="370"/>
      <point x="539" y="249" type="curve" smooth="yes"/>
      <point x="539" y="105"/>
      <point x="456" y="18"/>
      <point x="315" y="18" type="curve" smooth="yes"/>
      <point x="203" y="18"/>
      <point x="130" y="88"/>
      <point x="83" y="184" type="curve" smooth="yes"/>
      <point x="76" y="195"/>
      <point x="69" y="195"/>
      <point x="58" y="189" type="curve" smooth="yes"/>
      <point x="46" y="183"/>
      <point x="46" y="175"/>
      <point x="53" y="163" type="curve" smooth="yes"/>
      <point x="104" y="55"/>
      <point x="189" y="-19"/>
    </contour>
  </outline>
</glyph>
<glyph name="four" format="2">
  <advance width="540"/>
  <unicode hex="0034"/>
  <outline>
    <contour>
      <point x="54" y="196" type="curve" smooth="yes"/>
      <point x="499" y="196" type="line" smooth="yes"/>
      <point x="508" y="196"/>
      <point x="511" y="199"/>
      <point x="511" y="210" type="curve" smooth="yes"/>
      <point x="511" y="221"/>
      <point x="508" y="224"/>
      <point x="499" y="224" type="curve" smooth="yes"/>
      <point x="76" y="224" type="line"/>
      <point x="294" y="695" type="line" smooth="yes"/>
      <point x="299" y="706"/>
      <point x="294" y="712"/>
      <point x="283" y="712" type="curve" smooth="yes"/>
      <point x="271" y="712"/>
      <point x="267" y="708"/>
      <point x="263" y="700" type="curve" smooth="yes"/>
      <point x="40" y="212" type="line" smooth="yes"/>
      <point x="35" y="200"/>
      <point x="43" y="196"/>
    </contour>
    <contour>
      <point x="404" y="-11" type="curve" smooth="yes"/>
      <point x="415" y="-11"/>
      <point x="419" y="-8"/>
      <point x="419" y="1" type="curve" smooth="yes"/>
      <point x="419" y="480" type="line" smooth="yes"/>
      <point x="419" y="489"/>
      <point x="415" y="492"/>
      <point x="404" y="492" type="curve" smooth="yes"/>
      <point x="393" y="492"/>
      <point x="389" y="489"/>
      <point x="389" y="480" type="curve" smooth="yes"/>
      <point x="389" y="1" type="line" smooth="yes"/>
      <point x="389" y="-8"/>
      <point x="393" y="-11"/>
    </contour>
  </outline>
</glyph>
<glyph name="five" format="2">
  <advance width="530"/>
  <unicode hex="0035"/>
  <outline>
    <contour>
      <point x="272" y="-15" type="curve" smooth="yes"/>
      <point x="392" y="-15"/>
      <point x="475" y="74"/>
      <point x="475" y="220" type="curve" smooth="yes"/>
      <point x="475" y="348"/>
      <point x="408" y="432"/>
      <point x="284" y="432" type="curve" smooth="yes"/>
      <point x="224" y="432"/>
      <point x="163" y="405"/>
      <point x="125" y="364" type="curve"/>
      <point x="136" y="672" type="line"/>
      <point x="435" y="672" type="line" smooth="yes"/>
      <point x="440" y="672"/>
      <point x="444" y="677"/>
      <point x="444" y="687" type="curve" smooth="yes"/>
      <point x="444" y="697"/>
      <point x="440" y="700"/>
      <point x="435" y="700" type="curve" smooth="yes"/>
      <point x="124" y="700" type="line" smooth="yes"/>
      <point x="113" y="700"/>
      <point x="108" y="697"/>
      <point x="108" y="688" type="curve" smooth="yes"/>
      <point x="95" y="327" type="line" smooth="yes"/>
      <point x="95" y="317"/>
      <point x="114" y="310"/>
      <point x="120" y="318" type="curve" smooth="yes"/>
      <point x="161" y="375"/>
      <point x="228" y="403"/>
      <point x="281" y="403" type="curve" smooth="yes"/>
      <point x="388" y="403"/>
      <point x="442" y="328"/>
      <point x="442" y="220" type="curve" smooth="yes"/>
      <point x="442" y="93"/>
      <point x="376" y="14"/>
      <point x="274" y="14" type="curve" smooth="yes"/>
      <point x="184" y="14"/>
      <point x="125" y="70"/>
      <point x="87" y="147" type="curve" smooth="yes"/>
      <point x="82" y="156"/>
      <point x="77" y="156"/>
      <point x="67" y="151" type="curve" smooth="yes"/>
      <point x="58" y="146"/>
      <point x="57" y="140"/>
      <point x="62" y="130" type="curve" smooth="yes"/>
      <point x="103" y="44"/>
      <point x="172" y="-15"/>
    </contour>
  </outline>
</glyph>
<glyph name="six" format="2">
	<unicode hex="0036"/>
	<advance width="570"/>
	<outline>
		<contour>
			<point x="303" y="-15" type="curve" smooth="yes"/>
			<point x="430" y="-15"/>
			<point x="510" y="80"/>
			<point x="510" y="221" type="curve" smooth="yes"/>
			<point x="510" y="347"/>
			<point x="434" y="422"/>
			<point x="319" y="422" type="curve" smooth="yes"/>
			<point x="232" y="422"/>
			<point x="133" y="365"/>
			<point x="101" y="174" type="curve"/>
			<point x="118" y="124" type="line"/>
			<point x="143" y="336"/>
			<point x="237" y="393"/>
			<point x="319" y="393" type="curve" smooth="yes"/>
			<point x="414" y="393"/>
			<point x="477" y="327"/>
			<point x="477" y="219" type="curve" smooth="yes"/>
			<point x="477" y="98"/>
			<point x="415" y="15"/>
			<point x="304" y="15" type="curve" smooth="yes"/>
			<point x="199" y="15"/>
			<point x="113" y="104"/>
			<point x="113" y="274" type="curve" smooth="yes"/>
			<point x="113" y="491"/>
			<point x="204" y="634"/>
			<point x="424" y="684" type="curve" smooth="yes"/>
			<point x="435" y="686"/>
			<point x="435" y="693"/>
			<point x="434" y="699" type="curve" smooth="yes"/>
			<point x="433" y="711"/>
			<point x="430" y="714"/>
			<point x="412" y="710" type="curve" smooth="yes"/>
			<point x="186" y="661"/>
			<point x="80" y="504"/>
			<point x="80" y="280" type="curve" smooth="yes"/>
			<point x="80" y="104"/>
			<point x="160" y="-15"/>
		</contour>
	</outline>
</glyph>
<glyph name="seven" format="2">
  <advance width="430"/>
  <unicode hex="0037"/>
  <outline>
    <contour>
      <point x="116" y="-10" type="curve" smooth="yes"/>
      <point x="127" y="-13"/>
      <point x="131" y="-11"/>
      <point x="136" y="2" type="curve" smooth="yes"/>
      <point x="412" y="685" type="line" smooth="yes"/>
      <point x="416" y="695"/>
      <point x="409" y="700"/>
      <point x="402" y="700" type="curve" smooth="yes"/>
      <point x="25" y="700" type="line" smooth="yes"/>
      <point x="20" y="700"/>
      <point x="16" y="697"/>
      <point x="16" y="687" type="curve" smooth="yes"/>
      <point x="16" y="677"/>
      <point x="20" y="672"/>
      <point x="25" y="672" type="curve" smooth="yes"/>
      <point x="377" y="672" type="line"/>
      <point x="108" y="7" type="line" smooth="yes"/>
      <point x="104" y="-2"/>
      <point x="106" y="-7"/>
    </contour>
  </outline>
</glyph>
<glyph name="eight" format="2">
  <advance width="530"/>
  <unicode hex="0038"/>
  <outline>
    <contour>
      <point x="264" y="-15" type="curve" smooth="yes"/>
      <point x="401" y="-15"/>
      <point x="478" y="77"/>
      <point x="478" y="177" type="curve" smooth="yes"/>
      <point x="478" y="256"/>
      <point x="423" y="325"/>
      <point x="302" y="379" type="curve"/>
      <point x="399" y="426"/>
      <point x="448" y="500"/>
      <point x="448" y="566" type="curve" smooth="yes"/>
      <point x="448" y="669"/>
      <point x="364" y="714"/>
      <point x="268" y="714" type="curve" smooth="yes"/>
      <point x="172" y="714"/>
      <point x="83" y="662"/>
      <point x="83" y="558" type="curve" smooth="yes"/>
      <point x="83" y="491"/>
      <point x="132" y="422"/>
      <point x="230" y="377" type="curve"/>
      <point x="115" y="324"/>
      <point x="53" y="245"/>
      <point x="53" y="165" type="curve" smooth="yes"/>
      <point x="53" y="65"/>
      <point x="127" y="-15"/>
    </contour>
    <contour>
      <point x="266" y="14" type="curve" smooth="yes"/>
      <point x="150" y="14"/>
      <point x="86" y="80"/>
      <point x="86" y="165" type="curve" smooth="yes"/>
      <point x="86" y="249"/>
      <point x="157" y="316"/>
      <point x="264" y="363" type="curve"/>
      <point x="377" y="318"/>
      <point x="445" y="262"/>
      <point x="445" y="177" type="curve" smooth="yes"/>
      <point x="445" y="92"/>
      <point x="382" y="14"/>
    </contour>
    <contour>
      <point x="267" y="393" type="curve"/>
      <point x="167" y="431"/>
      <point x="115" y="495"/>
      <point x="115" y="559" type="curve" smooth="yes"/>
      <point x="115" y="644"/>
      <point x="190" y="685"/>
      <point x="268" y="685" type="curve" smooth="yes"/>
      <point x="346" y="685"/>
      <point x="416" y="649"/>
      <point x="416" y="564" type="curve" smooth="yes"/>
      <point x="416" y="501"/>
      <point x="367" y="433"/>
    </contour>
  </outline>
</glyph>
<glyph name="greater" format="2">
  <advance width="763"/>
  <unicode hex="003E"/>
  <outline>
    <contour>
      <point x="123" y="179" type="curve" smooth="yes"/>
      <point x="631" y="405" type="line" smooth="yes"/>
      <point x="654" y="415"/>
      <point x="663" y="420"/>
      <point x="663" y="436" type="curve" smooth="yes"/>
      <point x="663" y="454"/>
      <point x="654" y="458"/>
      <point x="631" y="468" type="curve" smooth="yes"/>
      <point x="123" y="694" type="line" smooth="yes"/>
      <point x="111" y="699"/>
      <point x="104" y="698"/>
      <point x="100" y="686" type="curve" smooth="yes"/>
      <point x="96" y="676"/>
      <point x="96" y="668"/>
      <point x="108" y="663" type="curve" smooth="yes"/>
      <point x="616" y="436" type="line"/>
      <point x="108" y="210" type="line" smooth="yes"/>
      <point x="96" y="205"/>
      <point x="96" y="196"/>
      <point x="100" y="186" type="curve" smooth="yes"/>
      <point x="104" y="175"/>
      <point x="111" y="174"/>
    </contour>
  </outline>
</glyph>
<glyph name="question" format="2">
  <advance width="498"/>
  <unicode hex="003F"/>
  <guideline x="140"/>
  <guideline x="172"/>
  <guideline x="15"/>
  <outline>
    <contour>
      <point x="195" y="216" type="curve" smooth="yes"/>
      <point x="209" y="216"/>
      <point x="214" y="219"/>
      <point x="214" y="231" type="curve" smooth="yes"/>
      <point x="214" y="393" type="line"/>
      <point x="343" y="436"/>
      <point x="466" y="509"/>
      <point x="466" y="669" type="curve" smooth="yes"/>
      <point x="466" y="815"/>
      <point x="366" y="890"/>
      <point x="248" y="890" type="curve" smooth="yes"/>
      <point x="156" y="890"/>
      <point x="73" y="843"/>
      <point x="25" y="783" type="curve" smooth="yes"/>
      <point x="20" y="776"/>
      <point x="13" y="766"/>
      <point x="26" y="756" type="curve" smooth="yes"/>
      <point x="38" y="748"/>
      <point x="46" y="751"/>
      <point x="54" y="759" type="curve" smooth="yes"/>
      <point x="106" y="816"/>
      <point x="166" y="853"/>
      <point x="248" y="853" type="curve" smooth="yes"/>
      <point x="341" y="853"/>
      <point x="426" y="793"/>
      <point x="426" y="671" type="curve" smooth="yes"/>
      <point x="426" y="515"/>
      <point x="304" y="461"/>
      <point x="189" y="423" type="curve" smooth="yes"/>
      <point x="181" y="420"/>
      <point x="176" y="418"/>
      <point x="176" y="405" type="curve" smooth="yes"/>
      <point x="176" y="233" type="line" smooth="yes"/>
      <point x="176" y="219"/>
      <point x="181" y="216"/>
    </contour>
    <contour>
      <point x="195" y="-14" type="curve" smooth="yes"/>
      <point x="221" y="-14"/>
      <point x="235" y="1"/>
      <point x="235" y="31" type="curve" smooth="yes"/>
      <point x="235" y="61"/>
      <point x="221" y="76"/>
      <point x="195" y="76" type="curve" smooth="yes"/>
      <point x="169" y="76"/>
      <point x="155" y="61"/>
      <point x="155" y="31" type="curve" smooth="yes"/>
      <point x="155" y="1"/>
      <point x="169" y="-14"/>
    </contour>
  </outline>
</glyph>
<glyph name="at" format="2">
  <advance width="702"/>
  <unicode hex="0040"/>
  <outline>
    <contour>
      <point x="219" y="190" type="curve" smooth="yes"/>
      <point x="219" y="97"/>
      <point x="255" y="42"/>
      <point x="315" y="42" type="curve" smooth="yes"/>
      <point x="374" y="42"/>
      <point x="417" y="88"/>
      <point x="443" y="193" type="curve"/>
      <point x="443" y="161"/>
      <point x="443" y="128"/>
      <point x="443" y="96" type="curve" smooth="yes"/>
      <point x="443" y="61"/>
      <point x="467" y="42"/>
      <point x="496" y="42" type="curve" smooth="yes"/>
      <point x="576" y="42"/>
      <point x="656" y="121"/>
      <point x="656" y="247" type="curve" smooth="yes"/>
      <point x="656" y="412"/>
      <point x="544" y="515"/>
      <point x="363" y="515" type="curve" smooth="yes"/>
      <point x="170" y="515"/>
      <point x="58" y="377"/>
      <point x="58" y="204" type="curve" smooth="yes"/>
      <point x="58" y="31"/>
      <point x="161" y="-107"/>
      <point x="355" y="-107" type="curve" smooth="yes"/>
      <point x="413" y="-107"/>
      <point x="472" y="-96"/>
      <point x="523" y="-72" type="curve" smooth="yes"/>
      <point x="530" y="-69"/>
      <point x="533" y="-63"/>
      <point x="529" y="-54" type="curve" smooth="yes"/>
      <point x="525" y="-46"/>
      <point x="520" y="-43"/>
      <point x="513" y="-46" type="curve" smooth="yes"/>
      <point x="465" y="-68"/>
      <point x="407" y="-81"/>
      <point x="355" y="-81" type="curve" smooth="yes"/>
      <point x="177" y="-81"/>
      <point x="84" y="47"/>
      <point x="84" y="204" type="curve" smooth="yes"/>
      <point x="84" y="361"/>
      <point x="186" y="489"/>
      <point x="363" y="489" type="curve" smooth="yes"/>
      <point x="527" y="489"/>
      <point x="630" y="395"/>
      <point x="630" y="247" type="curve" smooth="yes"/>
      <point x="630" y="132"/>
      <point x="558" y="68"/>
      <point x="498" y="68" type="curve" smooth="yes"/>
      <point x="480" y="68"/>
      <point x="471" y="84"/>
      <point x="471" y="109" type="curve" smooth="yes"/>
      <point x="471" y="360" type="line" smooth="yes"/>
      <point x="471" y="367"/>
      <point x="467" y="370"/>
      <point x="457" y="370" type="curve" smooth="yes"/>
      <point x="448" y="370"/>
      <point x="443" y="367"/>
      <point x="443" y="360" type="curve" smooth="yes"/>
      <point x="443" y="348" type="line"/>
      <point x="415" y="365"/>
      <point x="391" y="373"/>
      <point x="362" y="373" type="curve" smooth="yes"/>
      <point x="266" y="373"/>
      <point x="219" y="298"/>
    </contour>
    <contour>
      <point x="249" y="191" type="curve" smooth="yes"/>
      <point x="249" y="291"/>
      <point x="290" y="347"/>
      <point x="362" y="347" type="curve" smooth="yes"/>
      <point x="384" y="347"/>
      <point x="412" y="342"/>
      <point x="443" y="321" type="curve"/>
      <point x="443" y="298" type="line"/>
      <point x="425" y="135"/>
      <point x="374" y="68"/>
      <point x="319" y="68" type="curve" smooth="yes"/>
      <point x="268" y="68"/>
      <point x="249" y="125"/>
    </contour>
  </outline>
</glyph>
<glyph name="A" format="2">
	<unicode hex="0041"/>
	<advance width="600"/>
	<outline>
		<contour>
			<point x="35" y="-10" type="curve" smooth="yes"/>
			<point x="46" y="-14"/>
			<point x="50" y="-11"/>
			<point x="55" y="2" type="curve" smooth="yes"/>
			<point x="134" y="217" type="line"/>
			<point x="466" y="217" type="line"/>
			<point x="545" y="2" type="line" smooth="yes"/>
			<point x="550" y="-11"/>
			<point x="554" y="-14"/>
			<point x="565" y="-10" type="curve" smooth="yes"/>
			<point x="575" y="-6"/>
			<point x="576" y="-2"/>
			<point x="573" y="7" type="curve" smooth="yes"/>
			<point x="317" y="700" type="line" smooth="yes"/>
			<point x="314" y="709"/>
			<point x="310" y="712"/>
			<point x="300" y="712" type="curve" smooth="yes"/>
			<point x="289" y="712"/>
			<point x="285" y="709"/>
			<point x="282" y="700" type="curve" smooth="yes"/>
			<point x="27" y="7" type="line" smooth="yes"/>
			<point x="24" y="-2"/>
			<point x="25" y="-6"/>
		</contour>
		<contour>
			<point x="144" y="245" type="line"/>
			<point x="300" y="667" type="line"/>
			<point x="455" y="245" type="line"/>
		</contour>
	</outline>
	<anchor name="bottom" x="300" y="0"/>
	<anchor name="ogonek" x="574" y="-2"/>
	<anchor name="top" x="300" y="670"/>
</glyph>
<glyph name="C" format="2">
  <advance width="775"/>
  <unicode hex="0043"/>
  <anchor x="440" y="0" name="bottom"/>
  <anchor x="456" y="838" name="top"/>
  <outline>
    <contour>
      <point x="429" y="-19" type="curve" smooth="yes"/>
      <point x="568" y="-19"/>
      <point x="661" y="78"/>
      <point x="719" y="184" type="curve" smooth="yes"/>
      <point x="726" y="198"/>
      <point x="728" y="205"/>
      <point x="715" y="213" type="curve" smooth="yes"/>
      <point x="703" y="220"/>
      <point x="696" y="216"/>
      <point x="689" y="204" type="curve" smooth="yes"/>
      <point x="636" y="111"/>
      <point x="555" y="19"/>
      <point x="429" y="19" type="curve" smooth="yes"/>
      <point x="264" y="19"/>
      <point x="135" y="168"/>
      <point x="135" y="424" type="curve" smooth="yes"/>
      <point x="135" y="679"/>
      <point x="271" y="853"/>
      <point x="464" y="853" type="curve" smooth="yes"/>
      <point x="541" y="853"/>
      <point x="608" y="828"/>
      <point x="659" y="770" type="curve" smooth="yes"/>
      <point x="669" y="759"/>
      <point x="678" y="758"/>
      <point x="686" y="764" type="curve" smooth="yes"/>
      <point x="698" y="773"/>
      <point x="698" y="780"/>
      <point x="688" y="791" type="curve" smooth="yes"/>
      <point x="633" y="858"/>
      <point x="555" y="890"/>
      <point x="466" y="890" type="curve" smooth="yes"/>
      <point x="250" y="890"/>
      <point x="94" y="700"/>
      <point x="94" y="424" type="curve" smooth="yes"/>
      <point x="94" y="146"/>
      <point x="240" y="-19"/>
    </contour>
  </outline>
</glyph>
<glyph name="D" format="2">
	<unicode hex="0044"/>
	<advance width="695"/>
	<outline>
		<contour>
			<point x="135" y="0" type="curve" smooth="yes"/>
			<point x="236" y="0" type="line" smooth="yes"/>
			<point x="496" y="0"/>
			<point x="620" y="183"/>
			<point x="620" y="386" type="curve" smooth="yes"/>
			<point x="620" y="614"/>
			<point x="460" y="700"/>
			<point x="280" y="700" type="curve" smooth="yes"/>
			<point x="136" y="700" type="line" smooth="yes"/>
			<point x="125" y="700"/>
			<point x="120" y="697"/>
			<point x="120" y="688" type="curve" smooth="yes"/>
			<point x="120" y="12" type="line" smooth="yes"/>
			<point x="120" y="3"/>
			<point x="124" y="0"/>
		</contour>
		<contour>
			<point x="151" y="28" type="line"/>
			<point x="151" y="672" type="line"/>
			<point x="280" y="672" type="line" smooth="yes"/>
			<point x="441" y="672"/>
			<point x="587" y="599"/>
			<point x="587" y="386" type="curve" smooth="yes"/>
			<point x="587" y="199"/>
			<point x="476" y="28"/>
			<point x="235" y="28" type="curve" smooth="yes"/>
		</contour>
	</outline>
	<anchor name="bottom" x="317" y="0"/>
	<anchor name="center" x="186" y="350"/>
	<anchor name="top" x="326" y="670"/>
</glyph>
<glyph name="F" format="2">
  <advance width="625"/>
  <unicode hex="0046"/>
  <outline>
    <contour>
      <point x="169" y="-14" type="curve" smooth="yes"/>
      <point x="183" y="-14"/>
      <point x="188" y="-10"/>
      <point x="188" y="1" type="curve" smooth="yes"/>
      <point x="188" y="420" type="line"/>
      <point x="526" y="420" type="line" smooth="yes"/>
      <point x="533" y="420"/>
      <point x="538" y="425"/>
      <point x="538" y="438" type="curve" smooth="yes"/>
      <point x="538" y="450"/>
      <point x="533" y="455"/>
      <point x="526" y="455" type="curve" smooth="yes"/>
      <point x="188" y="455" type="line"/>
      <point x="188" y="840" type="line"/>
      <point x="589" y="840" type="line" smooth="yes"/>
      <point x="595" y="840"/>
      <point x="600" y="845"/>
      <point x="600" y="858" type="curve" smooth="yes"/>
      <point x="600" y="870"/>
      <point x="595" y="875"/>
      <point x="589" y="875" type="curve" smooth="yes"/>
      <point x="170" y="875" type="line" smooth="yes"/>
      <point x="156" y="875"/>
      <point x="150" y="871"/>
      <point x="150" y="860" type="curve" smooth="yes"/>
      <point x="150" y="1" type="line" smooth="yes"/>
      <point x="150" y="-10"/>
      <point x="155" y="-14"/>
    </contour>
  </outline>
</glyph>
<glyph name="G" format="2">
	<unicode hex="0047"/>
	<advance width="700"/>
	<outline>
		<contour>
			<point x="348" y="-15" type="curve" smooth="yes"/>
			<point x="480" y="-15"/>
			<point x="610" y="102"/>
			<point x="610" y="350" type="curve" smooth="yes"/>
			<point x="610" y="359"/>
			<point x="606" y="362"/>
			<point x="595" y="362" type="curve" smooth="yes"/>
			<point x="378" y="362" type="line" smooth="yes"/>
			<point x="369" y="362"/>
			<point x="366" y="358"/>
			<point x="366" y="349" type="curve" smooth="yes"/>
			<point x="366" y="339"/>
			<point x="369" y="334"/>
			<point x="378" y="334" type="curve" smooth="yes"/>
			<point x="580" y="334" type="line"/>
			<point x="573" y="104"/>
			<point x="455" y="15"/>
			<point x="348" y="15" type="curve" smooth="yes"/>
			<point x="209" y="15"/>
			<point x="108" y="151"/>
			<point x="108" y="339" type="curve" smooth="yes"/>
			<point x="108" y="543"/>
			<point x="217" y="682"/>
			<point x="371" y="682" type="curve" smooth="yes"/>
			<point x="433" y="682"/>
			<point x="486" y="662"/>
			<point x="527" y="616" type="curve" smooth="yes"/>
			<point x="535" y="607"/>
			<point x="542" y="606"/>
			<point x="549" y="611" type="curve" smooth="yes"/>
			<point x="558" y="618"/>
			<point x="558" y="624"/>
			<point x="550" y="633" type="curve" smooth="yes"/>
			<point x="506" y="686"/>
			<point x="444" y="712"/>
			<point x="373" y="712" type="curve" smooth="yes"/>
			<point x="200" y="712"/>
			<point x="75" y="560"/>
			<point x="75" y="339" type="curve" smooth="yes"/>
			<point x="75" y="134"/>
			<point x="190" y="-15"/>
		</contour>
	</outline>
	<anchor name="bottom" x="350" y="0"/>
	<anchor name="top" x="360" y="670"/>
</glyph>
<glyph name="H" format="2">
  <advance width="710"/>
  <unicode hex="0048"/>
  <anchor x="355" y="0" name="bottom"/>
  <anchor x="355" y="541" name="center"/>
  <anchor x="355" y="670" name="top"/>
  <outline>
    <contour>
      <point x="135" y="-11" type="curve" smooth="yes"/>
      <point x="146" y="-11"/>
      <point x="150" y="-8"/>
      <point x="150" y="1" type="curve" smooth="yes"/>
      <point x="150" y="353" type="line"/>
      <point x="560" y="353" type="line"/>
      <point x="560" y="1" type="line" smooth="yes"/>
      <point x="560" y="-8"/>
      <point x="565" y="-11"/>
      <point x="575" y="-11" type="curve" smooth="yes"/>
      <point x="586" y="-11"/>
      <point x="590" y="-8"/>
      <point x="590" y="1" type="curve" smooth="yes"/>
      <point x="590" y="700" type="line" smooth="yes"/>
      <point x="590" y="709"/>
      <point x="586" y="712"/>
      <point x="575" y="712" type="curve" smooth="yes"/>
      <point x="565" y="712"/>
      <point x="560" y="709"/>
      <point x="560" y="700" type="curve" smooth="yes"/>
      <point x="560" y="381" type="line"/>
      <point x="150" y="381" type="line"/>
      <point x="150" y="700" type="line" smooth="yes"/>
      <point x="150" y="709"/>
      <point x="146" y="712"/>
      <point x="135" y="712" type="curve" smooth="yes"/>
      <point x="124" y="712"/>
      <point x="120" y="709"/>
      <point x="120" y="700" type="curve" smooth="yes"/>
      <point x="120" y="1" type="line" smooth="yes"/>
      <point x="120" y="-8"/>
      <point x="124" y="-11"/>
    </contour>
  </outline>
</glyph>
<glyph name="I" format="2">
	<unicode hex="0049"/>
	<advance width="270"/>
	<outline>
		<contour>
			<point x="135" y="-11" type="curve" smooth="yes"/>
			<point x="146" y="-11"/>
			<point x="150" y="-8"/>
			<point x="150" y="1" type="curve" smooth="yes"/>
			<point x="150" y="700" type="line" smooth="yes"/>
			<point x="150" y="709"/>
			<point x="145" y="712"/>
			<point x="135" y="712" type="curve" smooth="yes"/>
			<point x="124" y="712"/>
			<point x="120" y="709"/>
			<point x="120" y="700" type="curve" smooth="yes"/>
			<point x="120" y="1" type="line" smooth="yes"/>
			<point x="120" y="-8"/>
			<point x="124" y="-11"/>
		</contour>
	</outline>
	<anchor name="bottom" x="135" y="0"/>
	<anchor name="ogonek" x="150" y="-4"/>
	<anchor name="top" x="135" y="670"/>
</glyph>
<glyph name="J" format="2">
	<unicode hex="004A"/>
	<advance width="520"/>
	<outline>
		<contour>
			<point x="246" y="-15" type="curve" smooth="yes"/>
			<point x="356" y="-15"/>
			<point x="415" y="61"/>
			<point x="415" y="230" type="curve" smooth="yes"/>
			<point x="415" y="700" type="line" smooth="yes"/>
			<point x="415" y="709"/>
			<point x="411" y="712"/>
			<point x="400" y="712" type="curve" smooth="yes"/>
			<point x="389" y="712"/>
			<point x="384" y="709"/>
			<point x="384" y="700" type="curve" smooth="yes"/>
			<point x="384" y="228" type="line" smooth="yes"/>
			<point x="384" y="80"/>
			<point x="341" y="15"/>
			<point x="246" y="15" type="curve" smooth="yes"/>
			<point x="167" y="15"/>
			<point x="111" y="58"/>
			<point x="81" y="128" type="curve" smooth="yes"/>
			<point x="75" y="142"/>
			<point x="69" y="144"/>
			<point x="60" y="141" type="curve" smooth="yes"/>
			<point x="53" y="139"/>
			<point x="48" y="135"/>
			<point x="52" y="122" type="curve" smooth="yes"/>
			<point x="81" y="37"/>
			<point x="160" y="-15"/>
		</contour>
	</outline>
	<anchor name="bottom" x="247" y="0"/>
	<anchor name="top" x="400" y="670"/>
</glyph>
<glyph name="L" format="2">
  <advance width="500"/>
  <unicode hex="004C"/>
  <anchor x="277" y="370" name="CAT"/>
  <anchor x="300" y="0" name="bottom"/>
  <anchor x="135" y="360" name="center"/>
  <anchor x="135" y="670" name="top"/>
  <anchor x="170" y="700" name="topright"/>
  <outline>
    <contour>
      <point x="135" y="0" type="curve" smooth="yes"/>
      <point x="471" y="0" type="line" smooth="yes"/>
      <point x="476" y="0"/>
      <point x="480" y="4"/>
      <point x="480" y="14" type="curve" smooth="yes"/>
      <point x="480" y="24"/>
      <point x="476" y="28"/>
      <point x="471" y="28" type="curve" smooth="yes"/>
      <point x="150" y="28" type="line"/>
      <point x="150" y="700" type="line" smooth="yes"/>
      <point x="150" y="709"/>
      <point x="146" y="712"/>
      <point x="135" y="712" type="curve" smooth="yes"/>
      <point x="124" y="712"/>
      <point x="120" y="709"/>
      <point x="120" y="700" type="curve" smooth="yes"/>
      <point x="120" y="12" type="line" smooth="yes"/>
      <point x="120" y="3"/>
      <point x="124" y="0"/>
    </contour>
  </outline>
</glyph>
<glyph name="N" format="2">
	<unicode hex="004E"/>
	<advance width="710"/>
	<outline>
		<contour>
			<point x="135" y="-11" type="curve" smooth="yes"/>
			<point x="146" y="-11"/>
			<point x="150" y="-8"/>
			<point x="150" y="1" type="curve" smooth="yes"/>
			<point x="150" y="650" type="line"/>
			<point x="559" y="-3" type="line" smooth="yes"/>
			<point x="563" y="-9"/>
			<point x="566" y="-11"/>
			<point x="576" y="-11" type="curve" smooth="yes"/>
			<point x="585" y="-11"/>
			<point x="590" y="-8"/>
			<point x="590" y="1" type="curve" smooth="yes"/>
			<point x="590" y="700" type="line" smooth="yes"/>
			<point x="590" y="709"/>
			<point x="586" y="712"/>
			<point x="575" y="712" type="curve" smooth="yes"/>
			<point x="564" y="712"/>
			<point x="560" y="709"/>
			<point x="560" y="700" type="curve" smooth="yes"/>
			<point x="560" y="51" type="line"/>
			<point x="151" y="704" type="line" smooth="yes"/>
			<point x="147" y="710"/>
			<point x="144" y="712"/>
			<point x="134" y="712" type="curve" smooth="yes"/>
			<point x="125" y="712"/>
			<point x="120" y="709"/>
			<point x="120" y="700" type="curve" smooth="yes"/>
			<point x="120" y="1" type="line" smooth="yes"/>
			<point x="120" y="-8"/>
			<point x="124" y="-11"/>
		</contour>
	</outline>
	<anchor name="bottom" x="355" y="0"/>
	<anchor name="top" x="355" y="670"/>
</glyph>
<glyph name="O" format="2">
	<unicode hex="004F"/>
	<advance width="740"/>
	<outline>
		<contour>
			<point x="371" y="-15" type="curve" smooth="yes"/>
			<point x="541" y="-15"/>
			<point x="665" y="127"/>
			<point x="665" y="349" type="curve" smooth="yes"/>
			<point x="665" y="570"/>
			<point x="541" y="712"/>
			<point x="371" y="712" type="curve" smooth="yes"/>
			<point x="199" y="712"/>
			<point x="75" y="570"/>
			<point x="75" y="349" type="curve" smooth="yes"/>
			<point x="75" y="127"/>
			<point x="199" y="-15"/>
		</contour>
		<contour>
			<point x="371" y="15" type="curve" smooth="yes"/>
			<point x="218" y="15"/>
			<point x="108" y="145"/>
			<point x="108" y="349" type="curve" smooth="yes"/>
			<point x="108" y="553"/>
			<point x="218" y="682"/>
			<point x="371" y="682" type="curve" smooth="yes"/>
			<point x="522" y="682"/>
			<point x="632" y="553"/>
			<point x="632" y="349" type="curve" smooth="yes"/>
			<point x="632" y="145"/>
			<point x="522" y="15"/>
		</contour>
	</outline>
	<anchor name="bottom" x="370" y="0"/>
	<anchor name="center" x="370" y="350"/>
	<anchor name="ogonek" x="473" y="5"/>
	<anchor name="top" x="370" y="670"/>
	<anchor name="topright" x="454" y="700"/>
</glyph>
<glyph name="Q" format="2">
	<unicode hex="0051"/>
	<advance width="740"/>
	<outline>
		<contour>
			<point x="556" y="-125" type="curve" smooth="yes"/>
			<point x="563" y="-119"/>
			<point x="565" y="-115"/>
			<point x="560" y="-107" type="curve" smooth="yes"/>
			<point x="394" y="127" type="line" smooth="yes"/>
			<point x="389" y="134"/>
			<point x="383" y="134"/>
			<point x="376" y="128" type="curve" smooth="yes"/>
			<point x="367" y="121"/>
			<point x="365" y="117"/>
			<point x="370" y="109" type="curve" smooth="yes"/>
			<point x="537" y="-125" type="line" smooth="yes"/>
			<point x="542" y="-131"/>
			<point x="547" y="-131"/>
		</contour>
		<component base="O"/>
	</outline>
	<anchor name="bottom" x="370" y="0"/>
	<anchor name="center" x="370" y="350"/>
	<anchor name="ogonek" x="473" y="5"/>
	<anchor name="top" x="370" y="670"/>
	<anchor name="topright" x="454" y="700"/>
</glyph>
<glyph name="S" format="2">
  <advance width="550"/>
  <unicode hex="0053"/>
  <anchor x="275" y="0" name="bottom"/>
  <anchor x="289" y="670" name="top"/>
  <outline>
    <contour>
      <point x="276" y="-15" type="curve" smooth="yes"/>
      <point x="405" y="-15"/>
      <point x="486" y="67"/>
      <point x="486" y="176" type="curve" smooth="yes"/>
      <point x="486" y="311"/>
      <point x="381" y="340"/>
      <point x="282" y="383" type="curve" smooth="yes"/>
      <point x="204" y="417"/>
      <point x="128" y="443"/>
      <point x="128" y="543" type="curve" smooth="yes"/>
      <point x="128" y="624"/>
      <point x="186" y="682"/>
      <point x="284" y="682" type="curve" smooth="yes"/>
      <point x="359" y="682"/>
      <point x="407" y="654"/>
      <point x="449" y="608" type="curve" smooth="yes"/>
      <point x="455" y="602"/>
      <point x="462" y="599"/>
      <point x="470" y="605" type="curve" smooth="yes"/>
      <point x="480" y="613"/>
      <point x="476" y="620"/>
      <point x="471" y="626" type="curve" smooth="yes"/>
      <point x="433" y="674"/>
      <point x="370" y="712"/>
      <point x="284" y="712" type="curve" smooth="yes"/>
      <point x="182" y="712"/>
      <point x="96" y="650"/>
      <point x="96" y="545" type="curve" smooth="yes"/>
      <point x="96" y="422"/>
      <point x="181" y="392"/>
      <point x="271" y="353" type="curve" smooth="yes"/>
      <point x="361" y="314"/>
      <point x="454" y="286"/>
      <point x="454" y="174" type="curve" smooth="yes"/>
      <point x="454" y="79"/>
      <point x="385" y="15"/>
      <point x="276" y="15" type="curve" smooth="yes"/>
      <point x="198" y="15"/>
      <point x="134" y="45"/>
      <point x="92" y="90" type="curve" smooth="yes"/>
      <point x="82" y="101"/>
      <point x="77" y="102"/>
      <point x="70" y="96" type="curve" smooth="yes"/>
      <point x="62" y="89"/>
      <point x="61" y="82"/>
      <point x="70" y="72" type="curve" smooth="yes"/>
      <point x="116" y="19"/>
      <point x="186" y="-15"/>
    </contour>
  </outline>
</glyph>
<glyph name="T" format="2">
  <advance width="552"/>
  <unicode hex="0054"/>
  <anchor x="276" y="0" name="bottom"/>
  <anchor x="276" y="350" name="center"/>
  <anchor x="276" y="670" name="top"/>
  <outline>
    <contour>
      <point x="276" y="-11" type="curve" smooth="yes"/>
      <point x="287" y="-11"/>
      <point x="291" y="-8"/>
      <point x="291" y="1" type="curve" smooth="yes"/>
      <point x="291" y="672" type="line"/>
      <point x="521" y="672" type="line" smooth="yes"/>
      <point x="526" y="672"/>
      <point x="530" y="677"/>
      <point x="530" y="687" type="curve" smooth="yes"/>
      <point x="530" y="697"/>
      <point x="526" y="700"/>
      <point x="521" y="700" type="curve" smooth="yes"/>
      <point x="31" y="700" type="line" smooth="yes"/>
      <point x="26" y="700"/>
      <point x="22" y="696"/>
      <point x="22" y="686" type="curve" smooth="yes"/>
      <point x="22" y="676"/>
      <point x="26" y="672"/>
      <point x="31" y="672" type="curve" smooth="yes"/>
      <point x="261" y="672" type="line"/>
      <point x="261" y="1" type="line" smooth="yes"/>
      <point x="261" y="-8"/>
      <point x="265" y="-11"/>
    </contour>
  </outline>
</glyph>
<glyph name="U" format="2">
	<unicode hex="0055"/>
	<advance width="690"/>
	<outline>
		<contour>
			<point x="346" y="-15" type="curve" smooth="yes"/>
			<point x="501" y="-15"/>
			<point x="580" y="61"/>
			<point x="580" y="210" type="curve" smooth="yes"/>
			<point x="580" y="700" type="line" smooth="yes"/>
			<point x="580" y="709"/>
			<point x="576" y="712"/>
			<point x="565" y="712" type="curve" smooth="yes"/>
			<point x="554" y="712"/>
			<point x="550" y="709"/>
			<point x="550" y="700" type="curve" smooth="yes"/>
			<point x="550" y="208" type="line" smooth="yes"/>
			<point x="550" y="79"/>
			<point x="481" y="15"/>
			<point x="346" y="15" type="curve" smooth="yes"/>
			<point x="210" y="15"/>
			<point x="140" y="79"/>
			<point x="140" y="208" type="curve" smooth="yes"/>
			<point x="140" y="700" type="line" smooth="yes"/>
			<point x="140" y="709"/>
			<point x="136" y="712"/>
			<point x="125" y="712" type="curve" smooth="yes"/>
			<point x="114" y="712"/>
			<point x="110" y="709"/>
			<point x="110" y="700" type="curve" smooth="yes"/>
			<point x="110" y="210" type="line" smooth="yes"/>
			<point x="110" y="61"/>
			<point x="190" y="-15"/>
		</contour>
	</outline>
	<anchor name="bottom" x="345" y="0"/>
	<anchor name="ogonek" x="470" y="10"/>
	<anchor name="top" x="345" y="670"/>
	<anchor name="topright" x="566" y="710"/>
</glyph>
<glyph name="V" format="2">
	<unicode hex="0056"/>
	<advance width="580"/>
	<outline>
		<contour>
			<point x="290" y="-11" type="curve" smooth="yes"/>
			<point x="301" y="-11"/>
			<point x="305" y="-8"/>
			<point x="308" y="1" type="curve" smooth="yes"/>
			<point x="553" y="694" type="line" smooth="yes"/>
			<point x="556" y="703"/>
			<point x="555" y="707"/>
			<point x="545" y="711" type="curve" smooth="yes"/>
			<point x="534" y="715"/>
			<point x="530" y="712"/>
			<point x="525" y="699" type="curve" smooth="yes"/>
			<point x="290" y="34" type="line"/>
			<point x="55" y="699" type="line" smooth="yes"/>
			<point x="50" y="712"/>
			<point x="46" y="715"/>
			<point x="35" y="711" type="curve" smooth="yes"/>
			<point x="25" y="707"/>
			<point x="24" y="703"/>
			<point x="27" y="694" type="curve" smooth="yes"/>
			<point x="273" y="1" type="line" smooth="yes"/>
			<point x="276" y="-8"/>
			<point x="280" y="-11"/>
		</contour>
	</outline>
</glyph>
<glyph name="W" format="2">
  <advance width="1200"/>
  <unicode hex="0057"/>
  <anchor x="600" y="0" name="bottom"/>
  <anchor x="600" y="838" name="top"/>
  <outline>
    <contour>
      <point x="309" y="-14" type="curve" smooth="yes"/>
      <point x="323" y="-14"/>
      <point x="328" y="-10"/>
      <point x="331" y="1" type="curve" smooth="yes"/>
      <point x="600" y="830" type="line"/>
      <point x="866" y="1" type="line" smooth="yes"/>
      <point x="870" y="-10"/>
      <point x="875" y="-14"/>
      <point x="888" y="-14" type="curve" smooth="yes"/>
      <point x="901" y="-14"/>
      <point x="906" y="-10"/>
      <point x="910" y="1" type="curve" smooth="yes"/>
      <point x="1166" y="868" type="line" smooth="yes"/>
      <point x="1170" y="879"/>
      <point x="1169" y="885"/>
      <point x="1156" y="889" type="curve" smooth="yes"/>
      <point x="1144" y="893"/>
      <point x="1138" y="890"/>
      <point x="1133" y="875" type="curve" smooth="yes"/>
      <point x="888" y="48" type="line"/>
      <point x="621" y="875" type="line" smooth="yes"/>
      <point x="618" y="886"/>
      <point x="615" y="890"/>
      <point x="599" y="890" type="curve" smooth="yes"/>
      <point x="585" y="890"/>
      <point x="583" y="886"/>
      <point x="579" y="875" type="curve" smooth="yes"/>
      <point x="310" y="48" type="line"/>
      <point x="69" y="874" type="line" smooth="yes"/>
      <point x="64" y="891"/>
      <point x="58" y="893"/>
      <point x="45" y="889" type="curve" smooth="yes"/>
      <point x="33" y="885"/>
      <point x="30" y="879"/>
      <point x="34" y="868" type="curve" smooth="yes"/>
      <point x="288" y="1" type="line" smooth="yes"/>
      <point x="291" y="-10"/>
      <point x="296" y="-14"/>
    </contour>
  </outline>
</glyph>
<glyph name="X" format="2">
  <advance width="550"/>
  <unicode hex="0058"/>
  <outline>
    <contour>
      <point x="502" y="-9" type="curve" smooth="yes"/>
      <point x="511" y="-3"/>
      <point x="512" y="1"/>
      <point x="507" y="9" type="curve" smooth="yes"/>
      <point x="294" y="356" type="line"/>
      <point x="500" y="692" type="line" smooth="yes"/>
      <point x="505" y="700"/>
      <point x="504" y="704"/>
      <point x="495" y="710" type="curve" smooth="yes"/>
      <point x="487" y="715"/>
      <point x="484" y="715"/>
      <point x="478" y="706" type="curve" smooth="yes"/>
      <point x="278" y="381" type="line"/>
      <point x="78" y="706" type="line" smooth="yes"/>
      <point x="72" y="715"/>
      <point x="67" y="715"/>
      <point x="59" y="710" type="curve" smooth="yes"/>
      <point x="50" y="704"/>
      <point x="49" y="700"/>
      <point x="54" y="692" type="curve" smooth="yes"/>
      <point x="259" y="359" type="line"/>
      <point x="43" y="9" type="line" smooth="yes"/>
      <point x="38" y="1"/>
      <point x="39" y="-3"/>
      <point x="48" y="-9" type="curve" smooth="yes"/>
      <point x="56" y="-14"/>
      <point x="61" y="-13"/>
      <point x="66" y="-5" type="curve" smooth="yes"/>
      <point x="275" y="333" type="line"/>
      <point x="483" y="-5" type="line" smooth="yes"/>
      <point x="489" y="-14"/>
      <point x="494" y="-14"/>
    </contour>
  </outline>
</glyph>
<glyph name="Z" format="2">
	<unicode hex="005A"/>
	<advance width="490"/>
	<outline>
		<contour>
			<point x="29" y="0" type="curve" smooth="yes"/>
			<point x="461" y="0" type="line" smooth="yes"/>
			<point x="466" y="0"/>
			<point x="470" y="5"/>
			<point x="470" y="15" type="curve" smooth="yes"/>
			<point x="470" y="25"/>
			<point x="466" y="28"/>
			<point x="461" y="28" type="curve" smooth="yes"/>
			<point x="60" y="28" type="line"/>
			<point x="458" y="684" type="line" smooth="yes"/>
			<point x="463" y="692"/>
			<point x="460" y="700"/>
			<point x="449" y="700" type="curve" smooth="yes"/>
			<point x="53" y="700" type="line" smooth="yes"/>
			<point x="48" y="700"/>
			<point x="44" y="696"/>
			<point x="44" y="686" type="curve" smooth="yes"/>
			<point x="44" y="676"/>
			<point x="48" y="672"/>
			<point x="53" y="672" type="curve" smooth="yes"/>
			<point x="418" y="672" type="line"/>
			<point x="20" y="16" type="line" smooth="yes"/>
			<point x="15" y="8"/>
			<point x="18" y="0"/>
		</contour>
	</outline>
	<anchor name="bottom" x="245" y="0"/>
	<anchor name="center" x="245" y="370"/>
	<anchor name="top" x="245" y="670"/>
</glyph>
<glyph name="bracketright" format="2">
	<unicode hex="005D"/>
	<advance width="300"/>
	<outline>
		<contour>
			<point x="40" y="-46" type="curve" smooth="yes"/>
			<point x="40" y="-56"/>
			<point x="44" y="-60"/>
			<point x="49" y="-60" type="curve" smooth="yes"/>
			<point x="165" y="-60" type="line" smooth="yes"/>
			<point x="176" y="-60"/>
			<point x="180" y="-57"/>
			<point x="180" y="-48" type="curve" smooth="yes"/>
			<point x="180" y="748" type="line" smooth="yes"/>
			<point x="180" y="757"/>
			<point x="176" y="760"/>
			<point x="165" y="760" type="curve" smooth="yes"/>
			<point x="49" y="760" type="line" smooth="yes"/>
			<point x="44" y="760"/>
			<point x="40" y="756"/>
			<point x="40" y="746" type="curve" smooth="yes"/>
			<point x="40" y="736"/>
			<point x="44" y="732"/>
			<point x="49" y="732" type="curve" smooth="yes"/>
			<point x="150" y="732" type="line"/>
			<point x="150" y="-32" type="line"/>
			<point x="49" y="-32" type="line" smooth="yes"/>
			<point x="44" y="-32"/>
			<point x="40" y="-36"/>
		</contour>
	</outline>
</glyph>
<glyph name="asciicircum" format="2">
  <advance width="610"/>
  <unicode hex="005E"/>
  <outline>
    <contour>
      <point x="103" y="400" type="line" smooth="yes"/>
      <point x="98" y="392"/>
      <point x="98" y="386"/>
      <point x="107" y="380" type="curve" smooth="yes"/>
      <point x="117" y="374"/>
      <point x="123" y="377"/>
      <point x="128" y="385" type="curve" smooth="yes"/>
      <point x="305" y="680" type="line"/>
      <point x="482" y="385" type="line" smooth="yes"/>
      <point x="487" y="377"/>
      <point x="493" y="374"/>
      <point x="502" y="380" type="curve" smooth="yes"/>
      <point x="512" y="386"/>
      <point x="512" y="392"/>
      <point x="507" y="400" type="curve" smooth="yes"/>
      <point x="334" y="687" type="line" smooth="yes"/>
      <point x="324" y="704"/>
      <point x="319" y="712"/>
      <point x="305" y="712" type="curve" smooth="yes"/>
      <point x="292" y="712"/>
      <point x="286" y="704"/>
      <point x="276" y="687" type="curve" smooth="yes"/>
    </contour>
  </outline>
</glyph>
<glyph name="b" format="2">
  <advance width="598"/>
  <unicode hex="0062"/>
  <anchor x="329" y="0" name="bottom"/>
  <anchor x="329" y="250" name="center"/>
  <anchor x="329" y="500" name="top"/>
  <outline>
    <contour>
      <point x="136" y="-14" type="curve" smooth="yes"/>
      <point x="149" y="-14"/>
      <point x="155" y="-10"/>
      <point x="155" y="1" type="curve" smooth="yes"/>
      <point x="155" y="29" type="line"/>
      <point x="203" y="-4"/>
      <point x="243" y="-17"/>
      <point x="289" y="-17" type="curve" smooth="yes"/>
      <point x="448" y="-17"/>
      <point x="523" y="104"/>
      <point x="523" y="279" type="curve" smooth="yes"/>
      <point x="523" y="430"/>
      <point x="465" y="519"/>
      <point x="369" y="519" type="curve" smooth="yes"/>
      <point x="273" y="519"/>
      <point x="200" y="448"/>
      <point x="155" y="263" type="curve"/>
      <point x="155" y="876" type="line" smooth="yes"/>
      <point x="155" y="888"/>
      <point x="150" y="891"/>
      <point x="138" y="891" type="curve" smooth="yes"/>
      <point x="125" y="891"/>
      <point x="119" y="888"/>
      <point x="119" y="876" type="curve" smooth="yes"/>
      <point x="119" y="1" type="line" smooth="yes"/>
      <point x="119" y="-10"/>
      <point x="124" y="-14"/>
    </contour>
    <contour>
      <point x="155" y="65" type="curve"/>
      <point x="155" y="98" type="line"/>
      <point x="185" y="378"/>
      <point x="270" y="484"/>
      <point x="364" y="484" type="curve" smooth="yes"/>
      <point x="450" y="484"/>
      <point x="483" y="386"/>
      <point x="483" y="278" type="curve" smooth="yes"/>
      <point x="483" y="109"/>
      <point x="413" y="16"/>
      <point x="293" y="16" type="curve" smooth="yes"/>
      <point x="255" y="16"/>
      <point x="208" y="26"/>
    </contour>
  </outline>
</glyph>
<glyph name="c" format="2">
  <advance width="523"/>
  <unicode hex="0063"/>
  <anchor x="275" y="0" name="bottom"/>
  <anchor x="288" y="500" name="top"/>
  <outline>
    <contour>
      <point x="268" y="-19" type="curve" smooth="yes"/>
      <point x="353" y="-19"/>
      <point x="419" y="36"/>
      <point x="473" y="116" type="curve" smooth="yes"/>
      <point x="480" y="126"/>
      <point x="475" y="135"/>
      <point x="468" y="140" type="curve" smooth="yes"/>
      <point x="460" y="145"/>
      <point x="453" y="145"/>
      <point x="446" y="138" type="curve" smooth="yes"/>
      <point x="400" y="74"/>
      <point x="351" y="15"/>
      <point x="273" y="15" type="curve" smooth="yes"/>
      <point x="168" y="15"/>
      <point x="114" y="105"/>
      <point x="114" y="236" type="curve" smooth="yes"/>
      <point x="114" y="390"/>
      <point x="190" y="485"/>
      <point x="295" y="485" type="curve" smooth="yes"/>
      <point x="355" y="485"/>
      <point x="388" y="464"/>
      <point x="428" y="424" type="curve" smooth="yes"/>
      <point x="433" y="419"/>
      <point x="441" y="415"/>
      <point x="450" y="424" type="curve" smooth="yes"/>
      <point x="461" y="435"/>
      <point x="459" y="440"/>
      <point x="455" y="446" type="curve"/>
      <point x="419" y="490"/>
      <point x="360" y="519"/>
      <point x="299" y="519" type="curve" smooth="yes"/>
      <point x="159" y="519"/>
      <point x="75" y="395"/>
      <point x="75" y="233" type="curve" smooth="yes"/>
      <point x="75" y="70"/>
      <point x="153" y="-19"/>
    </contour>
  </outline>
</glyph>
<glyph name="d" format="2">
  <advance width="503"/>
  <unicode hex="0064"/>
  <anchor x="222" y="0" name="bottom"/>
  <anchor x="350" y="558" name="center"/>
  <anchor x="222" y="400" name="top"/>
  <anchor x="383" y="700" name="topright"/>
  <outline>
    <contour>
      <point x="183" y="-14" type="curve" smooth="yes"/>
      <point x="260" y="-14"/>
      <point x="318" y="43"/>
      <point x="354" y="191" type="curve"/>
      <point x="354" y="145"/>
      <point x="354" y="98"/>
      <point x="354" y="52" type="curve" smooth="yes"/>
      <point x="354" y="9"/>
      <point x="371" y="-14"/>
      <point x="405" y="-14" type="curve" smooth="yes"/>
      <point x="438" y="-14"/>
      <point x="474" y="15"/>
      <point x="494" y="71" type="curve" smooth="yes"/>
      <point x="496" y="76"/>
      <point x="494" y="82"/>
      <point x="486" y="85" type="curve" smooth="yes"/>
      <point x="479" y="88"/>
      <point x="472" y="88"/>
      <point x="469" y="80" type="curve" smooth="yes"/>
      <point x="449" y="32"/>
      <point x="432" y="13"/>
      <point x="409" y="13" type="curve" smooth="yes"/>
      <point x="387" y="13"/>
      <point x="383" y="37"/>
      <point x="383" y="71" type="curve" smooth="yes"/>
      <point x="383" y="700" type="line" smooth="yes"/>
      <point x="383" y="709"/>
      <point x="379" y="712"/>
      <point x="369" y="712" type="curve" smooth="yes"/>
      <point x="359" y="712"/>
      <point x="354" y="709"/>
      <point x="354" y="700" type="curve" smooth="yes"/>
      <point x="354" y="382" type="line"/>
      <point x="316" y="405"/>
      <point x="284" y="415"/>
      <point x="247" y="415" type="curve" smooth="yes"/>
      <point x="120" y="415"/>
      <point x="60" y="318"/>
      <point x="60" y="178" type="curve" smooth="yes"/>
      <point x="60" y="57"/>
      <point x="106" y="-14"/>
    </contour>
    <contour>
      <point x="92" y="179" type="curve" smooth="yes"/>
      <point x="92" y="314"/>
      <point x="148" y="388"/>
      <point x="244" y="388" type="curve" smooth="yes"/>
      <point x="274" y="388"/>
      <point x="312" y="381"/>
      <point x="354" y="352" type="curve"/>
      <point x="354" y="323" type="line"/>
      <point x="330" y="99"/>
      <point x="262" y="14"/>
      <point x="187" y="14" type="curve" smooth="yes"/>
      <point x="118" y="14"/>
      <point x="92" y="92"/>
    </contour>
  </outline>
</glyph>
<glyph name="e" format="2">
  <advance width="526"/>
  <unicode hex="0065"/>
  <anchor x="264" y="0" name="bottom"/>
  <anchor x="371" y="13" name="ogonek"/>
  <anchor x="283" y="500" name="top"/>
  <outline>
    <contour>
      <point x="270" y="-19" type="curve" smooth="yes"/>
      <point x="364" y="-19"/>
      <point x="441" y="65"/>
      <point x="474" y="116" type="curve" smooth="yes"/>
      <point x="480" y="125"/>
      <point x="474" y="133"/>
      <point x="468" y="138" type="curve" smooth="yes"/>
      <point x="460" y="143"/>
      <point x="453" y="145"/>
      <point x="446" y="138" type="curve" smooth="yes"/>
      <point x="416" y="95"/>
      <point x="358" y="15"/>
      <point x="271" y="15" type="curve" smooth="yes"/>
      <point x="190" y="15"/>
      <point x="114" y="76"/>
      <point x="114" y="229" type="curve" smooth="yes"/>
      <point x="114" y="413"/>
      <point x="215" y="485"/>
      <point x="305" y="485" type="curve" smooth="yes"/>
      <point x="379" y="485"/>
      <point x="419" y="454"/>
      <point x="419" y="403" type="curve" smooth="yes"/>
      <point x="419" y="294"/>
      <point x="221" y="231"/>
      <point x="108" y="206" type="curve"/>
      <point x="108" y="173" type="line"/>
      <point x="253" y="200"/>
      <point x="459" y="276"/>
      <point x="459" y="403" type="curve" smooth="yes"/>
      <point x="459" y="456"/>
      <point x="420" y="519"/>
      <point x="309" y="519" type="curve" smooth="yes"/>
      <point x="170" y="519"/>
      <point x="75" y="403"/>
      <point x="75" y="225" type="curve" smooth="yes"/>
      <point x="75" y="88"/>
      <point x="135" y="-19"/>
    </contour>
  </outline>
</glyph>
<glyph name="g" format="2">
	<unicode hex="0067"/>
	<advance width="478"/>
	<outline>
		<contour>
			<point x="247" y="-315" type="curve" smooth="yes"/>
			<point x="336" y="-315"/>
			<point x="383" y="-255"/>
			<point x="383" y="-130" type="curve" smooth="yes"/>
			<point x="383" y="400" type="line" smooth="yes"/>
			<point x="383" y="409"/>
			<point x="379" y="412"/>
			<point x="369" y="412" type="curve" smooth="yes"/>
			<point x="359" y="412"/>
			<point x="354" y="409"/>
			<point x="354" y="400" type="curve" smooth="yes"/>
			<point x="354" y="-128" type="line" smooth="yes"/>
			<point x="354" y="-239"/>
			<point x="320" y="-287"/>
			<point x="251" y="-287" type="curve" smooth="yes"/>
			<point x="187" y="-287"/>
			<point x="146" y="-262"/>
			<point x="110" y="-228" type="curve" smooth="yes"/>
			<point x="104" y="-223"/>
			<point x="98" y="-221"/>
			<point x="91" y="-228" type="curve" smooth="yes"/>
			<point x="84" y="-237"/>
			<point x="83" y="-242"/>
			<point x="90" y="-248" type="curve" smooth="yes"/>
			<point x="131" y="-288"/>
			<point x="176" y="-315"/>
		</contour>
		<contour>
			<point x="183" y="-14" type="curve" smooth="yes"/>
			<point x="273" y="-14"/>
			<point x="337" y="63"/>
			<point x="370" y="273" type="curve"/>
			<point x="354" y="323" type="line"/>
			<point x="330" y="99"/>
			<point x="262" y="14"/>
			<point x="187" y="14" type="curve" smooth="yes"/>
			<point x="118" y="14"/>
			<point x="92" y="92"/>
			<point x="92" y="179" type="curve" smooth="yes"/>
			<point x="92" y="314"/>
			<point x="148" y="388"/>
			<point x="244" y="388" type="curve" smooth="yes"/>
			<point x="275" y="388"/>
			<point x="315" y="380"/>
			<point x="359" y="349" type="curve"/>
			<point x="359" y="379" type="line"/>
			<point x="319" y="404"/>
			<point x="286" y="415"/>
			<point x="247" y="415" type="curve" smooth="yes"/>
			<point x="120" y="415"/>
			<point x="60" y="318"/>
			<point x="60" y="178" type="curve" smooth="yes"/>
			<point x="60" y="57"/>
			<point x="106" y="-14"/>
		</contour>
	</outline>
	<anchor name="top" x="237" y="400"/>
</glyph>
<glyph name="i" format="2">
  <advance width="300"/>
  <unicode hex="0069"/>
  <anchor x="191" y="0" name="bottom"/>
  <anchor x="253" y="0" name="ogonek"/>
  <outline>
    <contour>
      <point x="178" y="-17" type="curve" smooth="yes"/>
      <point x="219" y="-17"/>
      <point x="264" y="19"/>
      <point x="289" y="89" type="curve" smooth="yes"/>
      <point x="291" y="95"/>
      <point x="289" y="103"/>
      <point x="279" y="106" type="curve" smooth="yes"/>
      <point x="270" y="110"/>
      <point x="261" y="110"/>
      <point x="258" y="100" type="curve" smooth="yes"/>
      <point x="233" y="40"/>
      <point x="211" y="16"/>
      <point x="183" y="16" type="curve" smooth="yes"/>
      <point x="155" y="16"/>
      <point x="150" y="46"/>
      <point x="150" y="81" type="curve" smooth="yes"/>
      <point x="150" y="500" type="line" smooth="yes"/>
      <point x="150" y="511"/>
      <point x="144" y="515"/>
      <point x="131" y="515" type="curve" smooth="yes"/>
      <point x="119" y="515"/>
      <point x="113" y="511"/>
      <point x="113" y="500" type="curve" smooth="yes"/>
      <point x="113" y="68" type="line" smooth="yes"/>
      <point x="113" y="11"/>
      <point x="135" y="-17"/>
    </contour>
    <contour>
      <point x="130" y="690" type="curve" smooth="yes"/>
      <point x="155" y="690"/>
      <point x="168" y="704"/>
      <point x="168" y="733" type="curve" smooth="yes"/>
      <point x="168" y="761"/>
      <point x="155" y="775"/>
      <point x="130" y="775" type="curve" smooth="yes"/>
      <point x="105" y="775"/>
      <point x="93" y="761"/>
      <point x="93" y="733" type="curve" smooth="yes"/>
      <point x="93" y="704"/>
      <point x="105" y="690"/>
    </contour>
  </outline>
</glyph>
<glyph name="j" format="2">
	<unicode hex="006A"/>
	<advance width="214"/>
	<outline>
		<contour>
			<point x="43" y="-314" type="curve" smooth="yes"/>
			<point x="101" y="-314"/>
			<point x="119" y="-281"/>
			<point x="119" y="-218" type="curve" smooth="yes"/>
			<point x="119" y="400" type="line" smooth="yes"/>
			<point x="119" y="409"/>
			<point x="115" y="412"/>
			<point x="105" y="412" type="curve" smooth="yes"/>
			<point x="95" y="412"/>
			<point x="90" y="409"/>
			<point x="90" y="400" type="curve" smooth="yes"/>
			<point x="90" y="-216" type="line" smooth="yes"/>
			<point x="90" y="-264"/>
			<point x="80" y="-286"/>
			<point x="44" y="-286" type="curve" smooth="yes"/>
			<point x="16" y="-286"/>
			<point x="-12" y="-270"/>
			<point x="-32" y="-250" type="curve" smooth="yes"/>
			<point x="-38" y="-244"/>
			<point x="-46" y="-242"/>
			<point x="-53" y="-249" type="curve" smooth="yes"/>
			<point x="-62" y="-258"/>
			<point x="-60" y="-265"/>
			<point x="-54" y="-271" type="curve" smooth="yes"/>
			<point x="-29" y="-297"/>
			<point x="3" y="-314"/>
		</contour>
		<contour>
			<point x="104" y="552" type="curve" smooth="yes"/>
			<point x="124" y="552"/>
			<point x="134" y="563"/>
			<point x="134" y="586" type="curve" smooth="yes"/>
			<point x="134" y="609"/>
			<point x="124" y="620"/>
			<point x="104" y="620" type="curve" smooth="yes"/>
			<point x="84" y="620"/>
			<point x="74" y="609"/>
			<point x="74" y="586" type="curve" smooth="yes"/>
			<point x="74" y="563"/>
			<point x="84" y="552"/>
		</contour>
	</outline>
</glyph>
<glyph name="k" format="2">
  <advance width="451"/>
  <unicode hex="006B"/>
  <anchor x="231" y="0" name="bottom"/>
  <anchor x="109" y="670" name="top"/>
  <outline>
    <contour>
      <point x="109" y="-12" type="curve" smooth="yes"/>
      <point x="119" y="-12"/>
      <point x="124" y="-9"/>
      <point x="124" y="0" type="curve" smooth="yes"/>
      <point x="124" y="204" type="line"/>
      <point x="264" y="16"/>
      <point x="294" y="-15"/>
      <point x="346" y="-15" type="curve" smooth="yes"/>
      <point x="373" y="-15"/>
      <point x="410" y="-3"/>
      <point x="449" y="69" type="curve" smooth="yes"/>
      <point x="452" y="75"/>
      <point x="450" y="82"/>
      <point x="443" y="86" type="curve" smooth="yes"/>
      <point x="437" y="90"/>
      <point x="430" y="89"/>
      <point x="426" y="82" type="curve" smooth="yes"/>
      <point x="392" y="25"/>
      <point x="371" y="14"/>
      <point x="347" y="14" type="curve" smooth="yes"/>
      <point x="308" y="14"/>
      <point x="279" y="47"/>
      <point x="153" y="216" type="curve"/>
      <point x="365" y="387" type="line" smooth="yes"/>
      <point x="372" y="392"/>
      <point x="371" y="401"/>
      <point x="365" y="407" type="curve" smooth="yes"/>
      <point x="360" y="412"/>
      <point x="353" y="414"/>
      <point x="344" y="407" type="curve" smooth="yes"/>
      <point x="124" y="226" type="line"/>
      <point x="124" y="700" type="line" smooth="yes"/>
      <point x="124" y="709"/>
      <point x="119" y="712"/>
      <point x="109" y="712" type="curve" smooth="yes"/>
      <point x="99" y="712"/>
      <point x="95" y="709"/>
      <point x="95" y="700" type="curve" smooth="yes"/>
      <point x="95" y="0" type="line" smooth="yes"/>
      <point x="95" y="-9"/>
      <point x="99" y="-12"/>
    </contour>
  </outline>
</glyph>
<glyph name="l" format="2">
	<unicode hex="006C"/>
	<advance width="239"/>
	<outline>
		<contour>
			<point x="141" y="-14" type="curve" smooth="yes"/>
			<point x="174" y="-14"/>
			<point x="210" y="15"/>
			<point x="230" y="71" type="curve" smooth="yes"/>
			<point x="232" y="76"/>
			<point x="230" y="82"/>
			<point x="222" y="85" type="curve" smooth="yes"/>
			<point x="215" y="88"/>
			<point x="208" y="88"/>
			<point x="205" y="80" type="curve" smooth="yes"/>
			<point x="185" y="32"/>
			<point x="168" y="13"/>
			<point x="145" y="13" type="curve" smooth="yes"/>
			<point x="124" y="13"/>
			<point x="120" y="37"/>
			<point x="120" y="65" type="curve" smooth="yes"/>
			<point x="120" y="700" type="line" smooth="yes"/>
			<point x="120" y="709"/>
			<point x="115" y="712"/>
			<point x="105" y="712" type="curve" smooth="yes"/>
			<point x="95" y="712"/>
			<point x="90" y="709"/>
			<point x="90" y="700" type="curve" smooth="yes"/>
			<point x="90" y="54" type="line" smooth="yes"/>
			<point x="90" y="9"/>
			<point x="108" y="-14"/>
		</contour>
	</outline>
	<anchor name="bottom" x="158" y="0"/>
	<anchor name="center" x="104" y="350"/>
	<anchor name="top" x="104" y="670"/>
	<anchor name="topright" x="119" y="700"/>
</glyph>
<glyph name="m" format="2">
	<unicode hex="006D"/>
	<advance width="771"/>
	<outline>
		<contour>
			<point x="677" y="-14" type="curve" smooth="yes"/>
			<point x="711" y="-14"/>
			<point x="747" y="15"/>
			<point x="767" y="71" type="curve" smooth="yes"/>
			<point x="769" y="76"/>
			<point x="767" y="82"/>
			<point x="759" y="85" type="curve" smooth="yes"/>
			<point x="752" y="88"/>
			<point x="745" y="88"/>
			<point x="742" y="80" type="curve" smooth="yes"/>
			<point x="722" y="32"/>
			<point x="705" y="13"/>
			<point x="681" y="13" type="curve" smooth="yes"/>
			<point x="659" y="13"/>
			<point x="655" y="37"/>
			<point x="655" y="65" type="curve" smooth="yes"/>
			<point x="655" y="285" type="line" smooth="yes"/>
			<point x="655" y="385"/>
			<point x="615" y="415"/>
			<point x="565" y="415" type="curve" smooth="yes"/>
			<point x="503" y="415"/>
			<point x="404" y="347"/>
			<point x="378" y="112" type="curve"/>
			<point x="388" y="38" type="line"/>
			<point x="414" y="316"/>
			<point x="501" y="388"/>
			<point x="564" y="388" type="curve" smooth="yes"/>
			<point x="611" y="388"/>
			<point x="626" y="352"/>
			<point x="626" y="277" type="curve" smooth="yes"/>
			<point x="626" y="54" type="line" smooth="yes"/>
			<point x="626" y="9"/>
			<point x="643" y="-14"/>
		</contour>
		<contour>
			<point x="104" y="-12" type="curve" smooth="yes"/>
			<point x="114" y="-12"/>
			<point x="119" y="-9"/>
			<point x="119" y="0" type="curve" smooth="yes"/>
			<point x="119" y="400" type="line" smooth="yes"/>
			<point x="119" y="409"/>
			<point x="114" y="412"/>
			<point x="104" y="412" type="curve" smooth="yes"/>
			<point x="95" y="412"/>
			<point x="90" y="409"/>
			<point x="90" y="400" type="curve" smooth="yes"/>
			<point x="90" y="0" type="line" smooth="yes"/>
			<point x="90" y="-9"/>
			<point x="95" y="-12"/>
		</contour>
		<contour>
			<point x="374" y="-12" type="curve" smooth="yes"/>
			<point x="384" y="-12"/>
			<point x="389" y="-9"/>
			<point x="389" y="0" type="curve" smooth="yes"/>
			<point x="389" y="285" type="line" smooth="yes"/>
			<point x="389" y="385"/>
			<point x="349" y="415"/>
			<point x="297" y="415" type="curve" smooth="yes"/>
			<point x="233" y="415"/>
			<point x="134" y="347"/>
			<point x="108" y="112" type="curve"/>
			<point x="118" y="38" type="line"/>
			<point x="144" y="316"/>
			<point x="231" y="388"/>
			<point x="296" y="388" type="curve" smooth="yes"/>
			<point x="345" y="388"/>
			<point x="360" y="352"/>
			<point x="360" y="277" type="curve" smooth="yes"/>
			<point x="360" y="0" type="line" smooth="yes"/>
			<point x="360" y="-9"/>
			<point x="363" y="-12"/>
		</contour>
	</outline>
	<anchor name="bottom" x="375" y="0"/>
	<anchor name="top" x="379" y="400"/>
</glyph>
<glyph name="n" format="2">
  <advance width="646"/>
  <unicode hex="006E"/>
  <anchor x="324" y="0" name="bottom"/>
  <anchor x="310" y="500" name="top"/>
  <outline>
    <contour>
      <point x="530" y="-17" type="curve" smooth="yes"/>
      <point x="571" y="-17"/>
      <point x="616" y="19"/>
      <point x="641" y="89" type="curve" smooth="yes"/>
      <point x="644" y="95"/>
      <point x="641" y="103"/>
      <point x="631" y="106" type="curve" smooth="yes"/>
      <point x="623" y="110"/>
      <point x="614" y="110"/>
      <point x="610" y="100" type="curve" smooth="yes"/>
      <point x="585" y="40"/>
      <point x="564" y="16"/>
      <point x="535" y="16" type="curve" smooth="yes"/>
      <point x="508" y="16"/>
      <point x="503" y="46"/>
      <point x="503" y="81" type="curve" smooth="yes"/>
      <point x="503" y="356" type="line" smooth="yes"/>
      <point x="503" y="481"/>
      <point x="449" y="519"/>
      <point x="381" y="519" type="curve" smooth="yes"/>
      <point x="305" y="519"/>
      <point x="196" y="451"/>
      <point x="150" y="229" type="curve"/>
      <point x="150" y="500" type="line" smooth="yes"/>
      <point x="150" y="511"/>
      <point x="144" y="515"/>
      <point x="131" y="515" type="curve" smooth="yes"/>
      <point x="119" y="515"/>
      <point x="113" y="511"/>
      <point x="113" y="500" type="curve" smooth="yes"/>
      <point x="113" y="0" type="line" smooth="yes"/>
      <point x="113" y="-11"/>
      <point x="119" y="-15"/>
      <point x="131" y="-15" type="curve" smooth="yes"/>
      <point x="144" y="-15"/>
      <point x="150" y="-11"/>
      <point x="150" y="0" type="curve" smooth="yes"/>
      <point x="150" y="60" type="line"/>
      <point x="184" y="398"/>
      <point x="295" y="485"/>
      <point x="380" y="485" type="curve" smooth="yes"/>
      <point x="444" y="485"/>
      <point x="465" y="440"/>
      <point x="465" y="346" type="curve" smooth="yes"/>
      <point x="465" y="68" type="line" smooth="yes"/>
      <point x="465" y="11"/>
      <point x="488" y="-17"/>
    </contour>
  </outline>
</glyph>
<glyph name="o" format="2">
  <advance width="471"/>
  <unicode hex="006F"/>
  <anchor x="236" y="0" name="bottom"/>
  <anchor x="236" y="200" name="center"/>
  <anchor x="308" y="0" name="ogonek"/>
  <anchor x="236" y="400" name="top"/>
  <anchor x="292" y="405" name="topright"/>
  <outline>
    <contour>
      <point x="236" y="-15" type="curve" smooth="yes"/>
      <point x="344" y="-15"/>
      <point x="411" y="72"/>
      <point x="411" y="200" type="curve" smooth="yes"/>
      <point x="411" y="328"/>
      <point x="340" y="415"/>
      <point x="236" y="415" type="curve" smooth="yes"/>
      <point x="134" y="415"/>
      <point x="60" y="328"/>
      <point x="60" y="200" type="curve" smooth="yes"/>
      <point x="60" y="72"/>
      <point x="125" y="-15"/>
    </contour>
    <contour>
      <point x="236" y="13" type="curve" smooth="yes"/>
      <point x="146" y="13"/>
      <point x="91" y="90"/>
      <point x="91" y="200" type="curve" smooth="yes"/>
      <point x="91" y="310"/>
      <point x="146" y="387"/>
      <point x="236" y="387" type="curve" smooth="yes"/>
      <point x="325" y="387"/>
      <point x="380" y="310"/>
      <point x="380" y="200" type="curve" smooth="yes"/>
      <point x="380" y="90"/>
      <point x="325" y="13"/>
    </contour>
  </outline>
</glyph>
<glyph name="q" format="2">
  <advance width="598"/>
  <unicode hex="0071"/>
  <outline>
    <contour>
      <point x="229" y="-17" type="curve" smooth="yes"/>
      <point x="325" y="-17"/>
      <point x="398" y="54"/>
      <point x="443" y="239" type="curve"/>
      <point x="443" y="-375" type="line" smooth="yes"/>
      <point x="443" y="-386"/>
      <point x="448" y="-390"/>
      <point x="460" y="-390" type="curve" smooth="yes"/>
      <point x="473" y="-390"/>
      <point x="479" y="-386"/>
      <point x="479" y="-375" type="curve" smooth="yes"/>
      <point x="479" y="500" type="line" smooth="yes"/>
      <point x="479" y="511"/>
      <point x="474" y="515"/>
      <point x="461" y="515" type="curve" smooth="yes"/>
      <point x="449" y="515"/>
      <point x="443" y="511"/>
      <point x="443" y="500" type="curve" smooth="yes"/>
      <point x="443" y="478" type="line"/>
      <point x="395" y="506"/>
      <point x="355" y="519"/>
      <point x="309" y="519" type="curve" smooth="yes"/>
      <point x="150" y="519"/>
      <point x="75" y="398"/>
      <point x="75" y="223" type="curve" smooth="yes"/>
      <point x="75" y="71"/>
      <point x="133" y="-17"/>
    </contour>
    <contour>
      <point x="115" y="224" type="curve" smooth="yes"/>
      <point x="115" y="393"/>
      <point x="185" y="485"/>
      <point x="305" y="485" type="curve" smooth="yes"/>
      <point x="343" y="485"/>
      <point x="390" y="476"/>
      <point x="443" y="440" type="curve"/>
      <point x="443" y="404" type="line"/>
      <point x="413" y="124"/>
      <point x="328" y="18"/>
      <point x="234" y="18" type="curve" smooth="yes"/>
      <point x="148" y="18"/>
      <point x="115" y="115"/>
    </contour>
  </outline>
</glyph>
<glyph name="s" format="2">
	<unicode hex="0073"/>
	<advance width="383"/>
	<outline>
		<contour>
			<point x="207" y="-15" type="curve" smooth="yes"/>
			<point x="291" y="-15"/>
			<point x="331" y="44"/>
			<point x="331" y="97" type="curve" smooth="yes"/>
			<point x="331" y="223"/>
			<point x="108" y="203"/>
			<point x="108" y="313" type="curve" smooth="yes"/>
			<point x="108" y="358"/>
			<point x="140" y="388"/>
			<point x="201" y="388" type="curve" smooth="yes"/>
			<point x="242" y="388"/>
			<point x="270" y="372"/>
			<point x="301" y="340" type="curve" smooth="yes"/>
			<point x="307" y="333"/>
			<point x="314" y="333"/>
			<point x="320" y="337" type="curve" smooth="yes"/>
			<point x="327" y="342"/>
			<point x="328" y="349"/>
			<point x="323" y="355" type="curve" smooth="yes"/>
			<point x="302" y="382"/>
			<point x="261" y="415"/>
			<point x="202" y="415" type="curve" smooth="yes"/>
			<point x="126" y="415"/>
			<point x="78" y="371"/>
			<point x="78" y="314" type="curve" smooth="yes"/>
			<point x="78" y="179"/>
			<point x="300" y="202"/>
			<point x="300" y="94" type="curve" smooth="yes"/>
			<point x="300" y="48"/>
			<point x="266" y="11"/>
			<point x="207" y="11" type="curve" smooth="yes"/>
			<point x="146" y="11"/>
			<point x="101" y="42"/>
			<point x="73" y="76" type="curve" smooth="yes"/>
			<point x="67" y="84"/>
			<point x="61" y="84"/>
			<point x="53" y="77" type="curve" smooth="yes"/>
			<point x="44" y="69"/>
			<point x="45" y="63"/>
			<point x="52" y="55" type="curve" smooth="yes"/>
			<point x="73" y="29"/>
			<point x="123" y="-15"/>
		</contour>
	</outline>
	<anchor name="bottom" x="190" y="0"/>
	<anchor name="top" x="202" y="400"/>
</glyph>
<glyph name="t" format="2">
  <advance width="310"/>
  <unicode hex="0074"/>
  <anchor x="181" y="0" name="bottom"/>
  <anchor x="151" y="235" name="center"/>
  <anchor x="127" y="558" name="top"/>
  <anchor x="156" y="625" name="topright"/>
  <outline>
    <contour>
      <point x="175" y="-14" type="curve" smooth="yes"/>
      <point x="218" y="-14"/>
      <point x="257" y="22"/>
      <point x="279" y="81" type="curve" smooth="yes"/>
      <point x="281" y="86"/>
      <point x="279" y="92"/>
      <point x="271" y="95" type="curve" smooth="yes"/>
      <point x="264" y="98"/>
      <point x="257" y="98"/>
      <point x="254" y="90" type="curve" smooth="yes"/>
      <point x="234" y="39"/>
      <point x="209" y="13"/>
      <point x="179" y="13" type="curve" smooth="yes"/>
      <point x="149" y="13"/>
      <point x="143" y="37"/>
      <point x="143" y="85" type="curve" smooth="yes"/>
      <point x="143" y="374" type="line"/>
      <point x="256" y="374" type="line" smooth="yes"/>
      <point x="265" y="374"/>
      <point x="268" y="378"/>
      <point x="268" y="386" type="curve" smooth="yes"/>
      <point x="268" y="395"/>
      <point x="265" y="400"/>
      <point x="256" y="400" type="curve" smooth="yes"/>
      <point x="143" y="400" type="line"/>
      <point x="143" y="572" type="line" smooth="yes"/>
      <point x="143" y="581"/>
      <point x="138" y="584"/>
      <point x="128" y="584" type="curve" smooth="yes"/>
      <point x="118" y="584"/>
      <point x="113" y="581"/>
      <point x="113" y="572" type="curve" smooth="yes"/>
      <point x="113" y="400" type="line"/>
      <point x="51" y="400" type="line" smooth="yes"/>
      <point x="42" y="400"/>
      <point x="39" y="395"/>
      <point x="39" y="386" type="curve" smooth="yes"/>
      <point x="39" y="378"/>
      <point x="42" y="374"/>
      <point x="51" y="374" type="curve" smooth="yes"/>
      <point x="113" y="374" type="line"/>
      <point x="113" y="74" type="line" smooth="yes"/>
      <point x="113" y="9"/>
      <point x="134" y="-14"/>
    </contour>
  </outline>
</glyph>
<glyph name="v" format="2">
  <advance width="407"/>
  <unicode hex="0076"/>
  <outline>
    <contour>
      <point x="203" y="-12" type="curve" smooth="yes"/>
      <point x="213" y="-12"/>
      <point x="214" y="-8"/>
      <point x="217" y="0" type="curve" smooth="yes"/>
      <point x="375" y="394" type="line" smooth="yes"/>
      <point x="380" y="406"/>
      <point x="374" y="412"/>
      <point x="361" y="412" type="curve" smooth="yes"/>
      <point x="351" y="412"/>
      <point x="348" y="408"/>
      <point x="345" y="400" type="curve" smooth="yes"/>
      <point x="204" y="36" type="line"/>
      <point x="61" y="400" type="line" smooth="yes"/>
      <point x="58" y="408"/>
      <point x="55" y="412"/>
      <point x="45" y="412" type="curve" smooth="yes"/>
      <point x="33" y="412"/>
      <point x="27" y="403"/>
      <point x="31" y="394" type="curve" smooth="yes"/>
      <point x="189" y="0" type="line" smooth="yes"/>
      <point x="192" y="-8"/>
      <point x="193" y="-12"/>
    </contour>
  </outline>
</glyph>
<glyph name="x" format="2">
  <advance width="534"/>
  <unicode hex="0078"/>
  <outline>
    <contour>
      <point x="476" y="14" type="curve"/>
      <point x="290" y="253" type="line"/>
      <point x="478" y="490" type="line" smooth="yes"/>
      <point x="489" y="504"/>
      <point x="479" y="515"/>
      <point x="464" y="515" type="curve" smooth="yes"/>
      <point x="453" y="515"/>
      <point x="449" y="510"/>
      <point x="439" y="496" type="curve" smooth="yes"/>
      <point x="268" y="281" type="line"/>
      <point x="96" y="500" type="line" smooth="yes"/>
      <point x="89" y="510"/>
      <point x="85" y="515"/>
      <point x="75" y="515" type="curve" smooth="yes"/>
      <point x="60" y="515"/>
      <point x="48" y="504"/>
      <point x="59" y="490" type="curve" smooth="yes"/>
      <point x="244" y="253" type="line"/>
      <point x="55" y="13" type="line" smooth="yes"/>
      <point x="45" y="-1"/>
      <point x="54" y="-12"/>
      <point x="69" y="-12" type="curve" smooth="yes"/>
      <point x="80" y="-12"/>
      <point x="83" y="-7"/>
      <point x="94" y="6" type="curve" smooth="yes"/>
      <point x="266" y="224" type="line"/>
      <point x="441" y="-2" type="line" smooth="yes"/>
      <point x="445" y="-7"/>
      <point x="451" y="-14"/>
      <point x="460" y="-14" type="curve" smooth="yes"/>
      <point x="476" y="-14"/>
      <point x="490" y="-1"/>
    </contour>
  </outline>
</glyph>
<glyph name="y" format="2">
	<unicode hex="0079"/>
	<advance width="492"/>
	<outline>
		<contour>
			<point x="184" y="-14" type="curve" smooth="yes"/>
			<point x="243" y="-14"/>
			<point x="332" y="41"/>
			<point x="368" y="223" type="curve"/>
			<point x="368" y="-128" type="line" smooth="yes"/>
			<point x="368" y="-239"/>
			<point x="334" y="-287"/>
			<point x="265" y="-287" type="curve" smooth="yes"/>
			<point x="201" y="-287"/>
			<point x="160" y="-262"/>
			<point x="124" y="-228" type="curve" smooth="yes"/>
			<point x="118" y="-223"/>
			<point x="112" y="-221"/>
			<point x="105" y="-228" type="curve" smooth="yes"/>
			<point x="98" y="-237"/>
			<point x="97" y="-242"/>
			<point x="104" y="-248" type="curve" smooth="yes"/>
			<point x="145" y="-288"/>
			<point x="190" y="-315"/>
			<point x="261" y="-315" type="curve" smooth="yes"/>
			<point x="350" y="-315"/>
			<point x="397" y="-255"/>
			<point x="397" y="-130" type="curve" smooth="yes"/>
			<point x="397" y="400" type="line" smooth="yes"/>
			<point x="397" y="409"/>
			<point x="393" y="412"/>
			<point x="383" y="412" type="curve" smooth="yes"/>
			<point x="373" y="412"/>
			<point x="368" y="409"/>
			<point x="368" y="400" type="curve" smooth="yes"/>
			<point x="368" y="363" type="line"/>
			<point x="342" y="85"/>
			<point x="252" y="13"/>
			<point x="185" y="13" type="curve" smooth="yes"/>
			<point x="139" y="13"/>
			<point x="122" y="49"/>
			<point x="122" y="124" type="curve" smooth="yes"/>
			<point x="122" y="400" type="line" smooth="yes"/>
			<point x="122" y="409"/>
			<point x="117" y="412"/>
			<point x="107" y="412" type="curve" smooth="yes"/>
			<point x="97" y="412"/>
			<point x="92" y="409"/>
			<point x="92" y="400" type="curve" smooth="yes"/>
			<point x="92" y="116" type="line" smooth="yes"/>
			<point x="92" y="16"/>
			<point x="135" y="-14"/>
		</contour>
	</outline>
	<anchor name="bottom" x="246" y="0"/>
	<anchor name="top" x="246" y="400"/>
</glyph>
<glyph name="z" format="2">
	<unicode hex="007A"/>
	<advance width="396"/>
	<outline>
		<contour>
			<point x="70" y="0" type="curve" smooth="yes"/>
			<point x="354" y="0" type="line" smooth="yes"/>
			<point x="363" y="0"/>
			<point x="366" y="4"/>
			<point x="366" y="12" type="curve" smooth="yes"/>
			<point x="366" y="23"/>
			<point x="363" y="28"/>
			<point x="354" y="28" type="curve" smooth="yes"/>
			<point x="97" y="28" type="line"/>
			<point x="352" y="374" type="line" smooth="yes"/>
			<point x="361" y="386"/>
			<point x="355" y="400"/>
			<point x="343" y="400" type="curve" smooth="yes"/>
			<point x="68" y="400" type="line" smooth="yes"/>
			<point x="59" y="400"/>
			<point x="56" y="395"/>
			<point x="56" y="386" type="curve" smooth="yes"/>
			<point x="56" y="376"/>
			<point x="59" y="372"/>
			<point x="68" y="372" type="curve" smooth="yes"/>
			<point x="317" y="372" type="line"/>
			<point x="58" y="24" type="line" smooth="yes"/>
			<point x="53" y="17"/>
			<point x="53" y="0"/>
		</contour>
	</outline>
	<anchor name="bottom" x="208" y="0"/>
	<anchor name="center" x="208" y="200"/>
	<anchor name="top" x="200" y="400"/>
</glyph>
<glyph name="bar" format="2">
  <advance width="388"/>
  <unicode hex="007C"/>
  <outline>
    <contour>
      <point x="194" y="-76" type="curve" smooth="yes"/>
      <point x="208" y="-76"/>
      <point x="213" y="-72"/>
      <point x="213" y="-61" type="curve" smooth="yes"/>
      <point x="213" y="939" type="line" smooth="yes"/>
      <point x="213" y="950"/>
      <point x="206" y="954"/>
      <point x="194" y="954" type="curve" smooth="yes"/>
      <point x="180" y="954"/>
      <point x="175" y="950"/>
      <point x="175" y="939" type="curve" smooth="yes"/>
      <point x="175" y="-61" type="line" smooth="yes"/>
      <point x="175" y="-72"/>
      <point x="180" y="-76"/>
    </contour>
  </outline>
</glyph>
<glyph name="braceright" format="2">
  <advance width="263"/>
  <unicode hex="007D"/>
  <outline>
    <contour>
      <point x="49" y="-60" type="curve" smooth="yes"/>
      <point x="133" y="-60"/>
      <point x="183" y="-16"/>
      <point x="183" y="53" type="curve" smooth="yes"/>
      <point x="183" y="134"/>
      <point x="119" y="156"/>
      <point x="119" y="244" type="curve" smooth="yes"/>
      <point x="119" y="297"/>
      <point x="146" y="325"/>
      <point x="213" y="336" type="curve" smooth="yes"/>
      <point x="219" y="337"/>
      <point x="223" y="340"/>
      <point x="223" y="350" type="curve" smooth="yes"/>
      <point x="223" y="360"/>
      <point x="219" y="363"/>
      <point x="213" y="364" type="curve" smooth="yes"/>
      <point x="146" y="375"/>
      <point x="119" y="403"/>
      <point x="119" y="456" type="curve" smooth="yes"/>
      <point x="119" y="544"/>
      <point x="183" y="566"/>
      <point x="183" y="647" type="curve" smooth="yes"/>
      <point x="183" y="716"/>
      <point x="133" y="760"/>
      <point x="49" y="760" type="curve" smooth="yes"/>
      <point x="44" y="760"/>
      <point x="40" y="756"/>
      <point x="40" y="746" type="curve" smooth="yes"/>
      <point x="40" y="736"/>
      <point x="44" y="732"/>
      <point x="49" y="732" type="curve" smooth="yes"/>
      <point x="116" y="732"/>
      <point x="153" y="699"/>
      <point x="153" y="646" type="curve" smooth="yes"/>
      <point x="153" y="583"/>
      <point x="90" y="545"/>
      <point x="90" y="456" type="curve" smooth="yes"/>
      <point x="90" y="412"/>
      <point x="114" y="363"/>
      <point x="180" y="350" type="curve"/>
      <point x="114" y="337"/>
      <point x="90" y="288"/>
      <point x="90" y="244" type="curve" smooth="yes"/>
      <point x="90" y="155"/>
      <point x="153" y="117"/>
      <point x="153" y="54" type="curve" smooth="yes"/>
      <point x="153" y="1"/>
      <point x="116" y="-32"/>
      <point x="49" y="-32" type="curve" smooth="yes"/>
      <point x="44" y="-32"/>
      <point x="40" y="-36"/>
      <point x="40" y="-46" type="curve" smooth="yes"/>
      <point x="40" y="-56"/>
      <point x="44" y="-60"/>
    </contour>
  </outline>
</glyph>
<glyph name="cent" format="2">
  <advance width="530"/>
  <unicode hex="00A2"/>
  <outline>
    <contour>
      <point x="264" y="-19" type="curve" smooth="yes"/>
      <point x="349" y="-19"/>
      <point x="415" y="36"/>
      <point x="469" y="116" type="curve" smooth="yes"/>
      <point x="476" y="126"/>
      <point x="471" y="135"/>
      <point x="464" y="140" type="curve" smooth="yes"/>
      <point x="456" y="145"/>
      <point x="449" y="145"/>
      <point x="443" y="138" type="curve" smooth="yes"/>
      <point x="396" y="74"/>
      <point x="348" y="15"/>
      <point x="269" y="15" type="curve" smooth="yes"/>
      <point x="164" y="15"/>
      <point x="110" y="105"/>
      <point x="110" y="236" type="curve" smooth="yes"/>
      <point x="110" y="390"/>
      <point x="186" y="485"/>
      <point x="291" y="485" type="curve" smooth="yes"/>
      <point x="351" y="485"/>
      <point x="384" y="464"/>
      <point x="424" y="424" type="curve" smooth="yes"/>
      <point x="429" y="419"/>
      <point x="438" y="415"/>
      <point x="446" y="424" type="curve" smooth="yes"/>
      <point x="458" y="435"/>
      <point x="455" y="440"/>
      <point x="451" y="446" type="curve"/>
      <point x="415" y="490"/>
      <point x="356" y="519"/>
      <point x="295" y="519" type="curve" smooth="yes"/>
      <point x="155" y="519"/>
      <point x="71" y="395"/>
      <point x="71" y="233" type="curve" smooth="yes"/>
      <point x="71" y="70"/>
      <point x="149" y="-19"/>
    </contour>
    <contour>
      <point x="275" y="-126" type="curve" smooth="yes"/>
      <point x="289" y="-126"/>
      <point x="294" y="-122"/>
      <point x="294" y="-111" type="curve" smooth="yes"/>
      <point x="294" y="625" type="line" smooth="yes"/>
      <point x="294" y="636"/>
      <point x="288" y="640"/>
      <point x="275" y="640" type="curve" smooth="yes"/>
      <point x="261" y="640"/>
      <point x="256" y="636"/>
      <point x="256" y="625" type="curve" smooth="yes"/>
      <point x="256" y="-111" type="line" smooth="yes"/>
      <point x="256" y="-122"/>
      <point x="261" y="-126"/>
    </contour>
  </outline>
</glyph>
<glyph name="sterling" format="2">
  <advance width="540"/>
  <unicode hex="00A3"/>
  <outline>
    <contour>
      <point x="167" y="15" type="line"/>
      <point x="197" y="15" type="line"/>
      <point x="197" y="535" type="line" smooth="yes"/>
      <point x="197" y="627"/>
      <point x="240" y="682"/>
      <point x="323" y="682" type="curve" smooth="yes"/>
      <point x="379" y="682"/>
      <point x="426" y="664"/>
      <point x="478" y="622" type="curve" smooth="yes"/>
      <point x="485" y="616"/>
      <point x="492" y="615"/>
      <point x="500" y="623" type="curve" smooth="yes"/>
      <point x="509" y="632"/>
      <point x="505" y="640"/>
      <point x="499" y="645" type="curve" smooth="yes"/>
      <point x="446" y="690"/>
      <point x="390" y="712"/>
      <point x="323" y="712" type="curve" smooth="yes"/>
      <point x="227" y="712"/>
      <point x="167" y="645"/>
      <point x="167" y="537" type="curve" smooth="yes"/>
    </contour>
    <contour>
      <point x="69" y="288" type="curve" smooth="yes"/>
      <point x="380" y="288" type="line" smooth="yes"/>
      <point x="385" y="288"/>
      <point x="389" y="293"/>
      <point x="389" y="303" type="curve" smooth="yes"/>
      <point x="389" y="313"/>
      <point x="385" y="316"/>
      <point x="380" y="316" type="curve" smooth="yes"/>
      <point x="69" y="316" type="line" smooth="yes"/>
      <point x="64" y="316"/>
      <point x="60" y="312"/>
      <point x="60" y="302" type="curve" smooth="yes"/>
      <point x="60" y="292"/>
      <point x="64" y="288"/>
    </contour>
    <contour>
      <point x="506" y="0" type="line" smooth="yes"/>
      <point x="511" y="0"/>
      <point x="515" y="5"/>
      <point x="515" y="15" type="curve" smooth="yes"/>
      <point x="515" y="25"/>
      <point x="511" y="28"/>
      <point x="506" y="28" type="curve" smooth="yes"/>
      <point x="47" y="28" type="line" smooth="yes"/>
      <point x="42" y="28"/>
      <point x="38" y="25"/>
      <point x="38" y="15" type="curve" smooth="yes"/>
      <point x="38" y="5"/>
      <point x="42" y="0"/>
      <point x="47" y="0" type="curve" smooth="yes"/>
    </contour>
  </outline>
</glyph>
<glyph name="yen" format="2">
  <advance width="534"/>
  <unicode hex="00A5"/>
  <outline>
    <contour>
      <point x="262" y="-11" type="curve" smooth="yes"/>
      <point x="273" y="-11"/>
      <point x="277" y="-8"/>
      <point x="277" y="1" type="curve" smooth="yes"/>
      <point x="277" y="309" type="line"/>
      <point x="498" y="694" type="line" smooth="yes"/>
      <point x="502" y="702"/>
      <point x="501" y="706"/>
      <point x="491" y="711" type="curve" smooth="yes"/>
      <point x="482" y="715"/>
      <point x="478" y="712"/>
      <point x="471" y="699" type="curve" smooth="yes"/>
      <point x="262" y="333" type="line"/>
      <point x="63" y="699" type="line" smooth="yes"/>
      <point x="56" y="712"/>
      <point x="54" y="715"/>
      <point x="43" y="711" type="curve" smooth="yes"/>
      <point x="34" y="707"/>
      <point x="32" y="702"/>
      <point x="36" y="694" type="curve" smooth="yes"/>
      <point x="247" y="307" type="line"/>
      <point x="247" y="1" type="line" smooth="yes"/>
      <point x="247" y="-8"/>
      <point x="251" y="-11"/>
    </contour>
    <contour>
      <point x="71" y="298" type="curve" smooth="yes"/>
      <point x="453" y="298" type="line" smooth="yes"/>
      <point x="458" y="298"/>
      <point x="462" y="303"/>
      <point x="462" y="313" type="curve" smooth="yes"/>
      <point x="462" y="323"/>
      <point x="458" y="326"/>
      <point x="453" y="326" type="curve" smooth="yes"/>
      <point x="71" y="326" type="line" smooth="yes"/>
      <point x="66" y="326"/>
      <point x="62" y="322"/>
      <point x="62" y="312" type="curve" smooth="yes"/>
      <point x="62" y="302"/>
      <point x="66" y="298"/>
    </contour>
    <contour>
      <point x="71" y="194" type="curve" smooth="yes"/>
      <point x="453" y="194" type="line" smooth="yes"/>
      <point x="458" y="194"/>
      <point x="462" y="199"/>
      <point x="462" y="209" type="curve" smooth="yes"/>
      <point x="462" y="219"/>
      <point x="458" y="222"/>
      <point x="453" y="222" type="curve" smooth="yes"/>
      <point x="71" y="222" type="line" smooth="yes"/>
      <point x="66" y="222"/>
      <point x="62" y="218"/>
      <point x="62" y="208" type="curve" smooth="yes"/>
      <point x="62" y="198"/>
      <point x="66" y="194"/>
    </contour>
  </outline>
</glyph>
<glyph name="section" format="2">
  <advance width="666"/>
  <unicode hex="00A7"/>
  <outline>
    <contour>
      <point x="598" y="236" type="curve" smooth="yes"/>
      <point x="598" y="509"/>
      <point x="161" y="456"/>
      <point x="161" y="684" type="curve" smooth="yes"/>
      <point x="161" y="786"/>
      <point x="221" y="853"/>
      <point x="336" y="853" type="curve" smooth="yes"/>
      <point x="415" y="853"/>
      <point x="484" y="814"/>
      <point x="538" y="764" type="curve" smooth="yes"/>
      <point x="550" y="751"/>
      <point x="556" y="748"/>
      <point x="568" y="758" type="curve" smooth="yes"/>
      <point x="578" y="766"/>
      <point x="578" y="773"/>
      <point x="568" y="783" type="curve" smooth="yes"/>
      <point x="519" y="834"/>
      <point x="438" y="890"/>
      <point x="336" y="890" type="curve" smooth="yes"/>
      <point x="214" y="890"/>
      <point x="121" y="813"/>
      <point x="121" y="684" type="curve" smooth="yes"/>
      <point x="121" y="430"/>
      <point x="558" y="471"/>
      <point x="558" y="236" type="curve" smooth="yes"/>
      <point x="558" y="145"/>
      <point x="503" y="75"/>
      <point x="428" y="30" type="curve"/>
      <point x="459" y="9" type="line"/>
      <point x="539" y="60"/>
      <point x="598" y="133"/>
    </contour>
    <contour>
      <point x="80" y="305" type="curve" smooth="yes"/>
      <point x="80" y="36"/>
      <point x="524" y="88"/>
      <point x="524" y="-162" type="curve" smooth="yes"/>
      <point x="524" y="-284"/>
      <point x="430" y="-356"/>
      <point x="324" y="-356" type="curve" smooth="yes"/>
      <point x="235" y="-356"/>
      <point x="164" y="-319"/>
      <point x="111" y="-264" type="curve" smooth="yes"/>
      <point x="99" y="-250"/>
      <point x="94" y="-247"/>
      <point x="83" y="-257" type="curve" smooth="yes"/>
      <point x="73" y="-266"/>
      <point x="75" y="-276"/>
      <point x="85" y="-287" type="curve" smooth="yes"/>
      <point x="140" y="-347"/>
      <point x="219" y="-394"/>
      <point x="324" y="-394" type="curve" smooth="yes"/>
      <point x="448" y="-394"/>
      <point x="564" y="-310"/>
      <point x="564" y="-162" type="curve" smooth="yes"/>
      <point x="564" y="115"/>
      <point x="120" y="70"/>
      <point x="120" y="305" type="curve" smooth="yes"/>
      <point x="120" y="396"/>
      <point x="175" y="466"/>
      <point x="250" y="511" type="curve"/>
      <point x="219" y="533" type="line"/>
      <point x="139" y="481"/>
      <point x="80" y="409"/>
    </contour>
  </outline>
</glyph>
<glyph name="copyright" format="2">
  <advance width="724"/>
  <unicode hex="00A9"/>
  <outline>
    <contour>
      <point x="362" y="58" type="curve" smooth="yes"/>
      <point x="522" y="58"/>
      <point x="649" y="185"/>
      <point x="649" y="345" type="curve" smooth="yes"/>
      <point x="649" y="505"/>
      <point x="522" y="632"/>
      <point x="362" y="632" type="curve" smooth="yes"/>
      <point x="202" y="632"/>
      <point x="75" y="505"/>
      <point x="75" y="345" type="curve" smooth="yes"/>
      <point x="75" y="185"/>
      <point x="202" y="58"/>
    </contour>
    <contour>
      <point x="362" y="82" type="curve" smooth="yes"/>
      <point x="217" y="82"/>
      <point x="99" y="200"/>
      <point x="99" y="345" type="curve" smooth="yes"/>
      <point x="99" y="490"/>
      <point x="217" y="608"/>
      <point x="362" y="608" type="curve" smooth="yes"/>
      <point x="507" y="608"/>
      <point x="625" y="490"/>
      <point x="625" y="345" type="curve" smooth="yes"/>
      <point x="625" y="200"/>
      <point x="507" y="82"/>
    </contour>
    <contour>
      <point x="357" y="183" type="curve" smooth="yes"/>
      <point x="402" y="183"/>
      <point x="442" y="214"/>
      <point x="465" y="255" type="curve" smooth="yes"/>
      <point x="468" y="260"/>
      <point x="468" y="265"/>
      <point x="461" y="269" type="curve" smooth="yes"/>
      <point x="454" y="274"/>
      <point x="449" y="274"/>
      <point x="445" y="268" type="curve" smooth="yes"/>
      <point x="428" y="243"/>
      <point x="398" y="211"/>
      <point x="357" y="211" type="curve" smooth="yes"/>
      <point x="304" y="211"/>
      <point x="263" y="257"/>
      <point x="263" y="343" type="curve" smooth="yes"/>
      <point x="263" y="428"/>
      <point x="308" y="483"/>
      <point x="370" y="483" type="curve" smooth="yes"/>
      <point x="399" y="483"/>
      <point x="421" y="473"/>
      <point x="439" y="454" type="curve" smooth="yes"/>
      <point x="443" y="450"/>
      <point x="450" y="451"/>
      <point x="455" y="456" type="curve" smooth="yes"/>
      <point x="459" y="459"/>
      <point x="462" y="464"/>
      <point x="458" y="469" type="curve" smooth="yes"/>
      <point x="435" y="502"/>
      <point x="403" y="510"/>
      <point x="370" y="510" type="curve" smooth="yes"/>
      <point x="287" y="510"/>
      <point x="233" y="438"/>
      <point x="233" y="343" type="curve" smooth="yes"/>
      <point x="233" y="247"/>
      <point x="283" y="183"/>
    </contour>
  </outline>
</glyph>
<glyph name="ordfeminine" format="2">
  <advance width="383"/>
  <unicode hex="00AA"/>
  <outline>
    <contour>
      <point x="141" y="389" type="curve" smooth="yes"/>
      <point x="200" y="389"/>
      <point x="243" y="435"/>
      <point x="269" y="540" type="curve"/>
      <point x="269" y="508"/>
      <point x="269" y="475"/>
      <point x="269" y="443" type="curve" smooth="yes"/>
      <point x="269" y="408"/>
      <point x="284" y="389"/>
      <point x="312" y="389" type="curve" smooth="yes"/>
      <point x="338" y="389"/>
      <point x="366" y="413"/>
      <point x="380" y="453" type="curve" smooth="yes"/>
      <point x="382" y="459"/>
      <point x="381" y="464"/>
      <point x="373" y="467" type="curve" smooth="yes"/>
      <point x="368" y="469"/>
      <point x="362" y="470"/>
      <point x="359" y="463" type="curve" smooth="yes"/>
      <point x="342" y="423"/>
      <point x="329" y="415"/>
      <point x="316" y="415" type="curve" smooth="yes"/>
      <point x="300" y="415"/>
      <point x="297" y="431"/>
      <point x="297" y="456" type="curve" smooth="yes"/>
      <point x="297" y="707" type="line" smooth="yes"/>
      <point x="297" y="714"/>
      <point x="293" y="717"/>
      <point x="283" y="717" type="curve" smooth="yes"/>
      <point x="274" y="717"/>
      <point x="269" y="714"/>
      <point x="269" y="707" type="curve" smooth="yes"/>
      <point x="269" y="695" type="line"/>
      <point x="241" y="712"/>
      <point x="217" y="720"/>
      <point x="188" y="720" type="curve" smooth="yes"/>
      <point x="92" y="720"/>
      <point x="45" y="645"/>
      <point x="45" y="537" type="curve" smooth="yes"/>
      <point x="45" y="444"/>
      <point x="81" y="389"/>
    </contour>
    <contour>
      <point x="75" y="538" type="curve" smooth="yes"/>
      <point x="75" y="638"/>
      <point x="116" y="694"/>
      <point x="188" y="694" type="curve" smooth="yes"/>
      <point x="210" y="694"/>
      <point x="238" y="689"/>
      <point x="269" y="668" type="curve"/>
      <point x="269" y="645" type="line"/>
      <point x="251" y="482"/>
      <point x="200" y="415"/>
      <point x="145" y="415" type="curve" smooth="yes"/>
      <point x="94" y="415"/>
      <point x="75" y="472"/>
    </contour>
  </outline>
</glyph>
<glyph name="degree" format="2">
  <advance width="326"/>
  <unicode hex="00B0"/>
  <outline>
    <contour>
      <point x="163" y="501" type="curve" smooth="yes"/>
      <point x="224" y="501"/>
      <point x="267" y="544"/>
      <point x="267" y="607" type="curve" smooth="yes"/>
      <point x="267" y="669"/>
      <point x="224" y="712"/>
      <point x="163" y="712" type="curve" smooth="yes"/>
      <point x="102" y="712"/>
      <point x="59" y="669"/>
      <point x="59" y="607" type="curve" smooth="yes"/>
      <point x="59" y="544"/>
      <point x="102" y="501"/>
    </contour>
    <contour>
      <point x="163" y="531" type="curve" smooth="yes"/>
      <point x="122" y="531"/>
      <point x="91" y="561"/>
      <point x="91" y="607" type="curve" smooth="yes"/>
      <point x="91" y="652"/>
      <point x="122" y="682"/>
      <point x="163" y="682" type="curve" smooth="yes"/>
      <point x="204" y="682"/>
      <point x="235" y="652"/>
      <point x="235" y="607" type="curve" smooth="yes"/>
      <point x="235" y="561"/>
      <point x="204" y="531"/>
    </contour>
  </outline>
</glyph>
<glyph name="paragraph" format="2">
  <advance width="737"/>
  <unicode hex="00B6"/>
  <outline>
    <contour>
      <point x="360" y="-311" type="curve" smooth="yes"/>
      <point x="371" y="-311"/>
      <point x="375" y="-308"/>
      <point x="375" y="-299" type="curve" smooth="yes"/>
      <point x="375" y="672" type="line"/>
      <point x="520" y="672" type="line"/>
      <point x="520" y="-299" type="line" smooth="yes"/>
      <point x="520" y="-308"/>
      <point x="524" y="-311"/>
      <point x="535" y="-311" type="curve" smooth="yes"/>
      <point x="546" y="-311"/>
      <point x="550" y="-308"/>
      <point x="550" y="-299" type="curve" smooth="yes"/>
      <point x="550" y="672" type="line"/>
      <point x="650" y="672" type="line" smooth="yes"/>
      <point x="655" y="672"/>
      <point x="659" y="677"/>
      <point x="659" y="687" type="curve" smooth="yes"/>
      <point x="659" y="697"/>
      <point x="655" y="700"/>
      <point x="650" y="700" type="curve" smooth="yes"/>
      <point x="345" y="700" type="line"/>
      <point x="345" y="-299" type="line" smooth="yes"/>
      <point x="345" y="-308"/>
      <point x="349" y="-311"/>
    </contour>
    <contour>
      <point x="299" y="229" type="curve"/>
      <point x="360" y="229" type="line"/>
      <point x="366" y="700" type="line"/>
      <point x="299" y="700" type="line" smooth="yes"/>
      <point x="168" y="700"/>
      <point x="74" y="608"/>
      <point x="74" y="465" type="curve" smooth="yes"/>
      <point x="74" y="321"/>
      <point x="168" y="229"/>
    </contour>
  </outline>
</glyph>
<glyph name="ordmasculine" format="2">
  <advance width="454"/>
  <unicode hex="00BA"/>
  <outline>
    <contour>
      <point x="228" y="485" type="curve" smooth="yes"/>
      <point x="331" y="485"/>
      <point x="398" y="570"/>
      <point x="398" y="694" type="curve" smooth="yes"/>
      <point x="398" y="815"/>
      <point x="328" y="900"/>
      <point x="228" y="900" type="curve" smooth="yes"/>
      <point x="129" y="900"/>
      <point x="56" y="815"/>
      <point x="56" y="693" type="curve" smooth="yes"/>
      <point x="56" y="568"/>
      <point x="121" y="485"/>
    </contour>
    <contour>
      <point x="228" y="519" type="curve" smooth="yes"/>
      <point x="145" y="519"/>
      <point x="93" y="590"/>
      <point x="93" y="693" type="curve" smooth="yes"/>
      <point x="93" y="795"/>
      <point x="145" y="866"/>
      <point x="228" y="866" type="curve" smooth="yes"/>
      <point x="309" y="866"/>
      <point x="361" y="795"/>
      <point x="361" y="694" type="curve" smooth="yes"/>
      <point x="361" y="590"/>
      <point x="309" y="519"/>
    </contour>
  </outline>
</glyph>
<glyph name="Thorn" format="2">
  <advance width="725"/>
  <unicode hex="00DE"/>
  <outline>
    <contour>
      <point x="169" y="-14" type="curve" smooth="yes"/>
      <point x="183" y="-14"/>
      <point x="188" y="-10"/>
      <point x="188" y="1" type="curve" smooth="yes"/>
      <point x="188" y="243" type="line"/>
      <point x="235" y="245"/>
      <point x="284" y="249"/>
      <point x="331" y="254" type="curve" smooth="yes"/>
      <point x="524" y="274"/>
      <point x="650" y="364"/>
      <point x="650" y="531" type="curve" smooth="yes"/>
      <point x="650" y="689"/>
      <point x="550" y="750"/>
      <point x="360" y="750" type="curve" smooth="yes"/>
      <point x="188" y="750" type="line"/>
      <point x="188" y="875" type="line" smooth="yes"/>
      <point x="188" y="886"/>
      <point x="183" y="890"/>
      <point x="169" y="890" type="curve" smooth="yes"/>
      <point x="155" y="890"/>
      <point x="150" y="886"/>
      <point x="150" y="875" type="curve" smooth="yes"/>
      <point x="150" y="1" type="line" smooth="yes"/>
      <point x="150" y="-10"/>
      <point x="155" y="-14"/>
    </contour>
    <contour>
      <point x="188" y="278" type="curve"/>
      <point x="188" y="715" type="line"/>
      <point x="360" y="715" type="line" smooth="yes"/>
      <point x="525" y="715"/>
      <point x="610" y="664"/>
      <point x="610" y="530" type="curve" smooth="yes"/>
      <point x="610" y="385"/>
      <point x="500" y="306"/>
      <point x="331" y="289" type="curve" smooth="yes"/>
      <point x="284" y="284"/>
      <point x="235" y="280"/>
    </contour>
  </outline>
</glyph>
<glyph name="germandbls" format="2">
	<unicode hex="00DF"/>
	<advance width="528"/>
	<outline>
		<contour>
			<point x="466" y="185" type="curve" smooth="yes"/>
			<point x="466" y="309"/>
			<point x="385" y="381"/>
			<point x="266" y="392" type="curve"/>
			<point x="260" y="379" type="line"/>
			<point x="385" y="396"/>
			<point x="443" y="484"/>
			<point x="443" y="565" type="curve" smooth="yes"/>
			<point x="443" y="662"/>
			<point x="375" y="715"/>
			<point x="288" y="715" type="curve" smooth="yes"/>
			<point x="151" y="715"/>
			<point x="96" y="607"/>
			<point x="96" y="448" type="curve" smooth="yes"/>
			<point x="96" y="-300" type="line" smooth="yes"/>
			<point x="96" y="-308"/>
			<point x="100" y="-312"/>
			<point x="110" y="-312" type="curve" smooth="yes"/>
			<point x="121" y="-312"/>
			<point x="125" y="-308"/>
			<point x="125" y="-300" type="curve" smooth="yes"/>
			<point x="125" y="442" type="line" smooth="yes"/>
			<point x="125" y="590"/>
			<point x="164" y="688"/>
			<point x="288" y="688" type="curve" smooth="yes"/>
			<point x="360" y="688"/>
			<point x="414" y="643"/>
			<point x="414" y="566" type="curve" smooth="yes"/>
			<point x="414" y="489"/>
			<point x="357" y="400"/>
			<point x="231" y="400" type="curve" smooth="yes"/>
			<point x="226" y="400" type="line" smooth="yes"/>
			<point x="221" y="400"/>
			<point x="217" y="397"/>
			<point x="217" y="387" type="curve" smooth="yes"/>
			<point x="217" y="377"/>
			<point x="221" y="374"/>
			<point x="226" y="374" type="curve" smooth="yes"/>
			<point x="228" y="374" type="line" smooth="yes"/>
			<point x="357" y="374"/>
			<point x="436" y="297"/>
			<point x="436" y="185" type="curve" smooth="yes"/>
			<point x="436" y="71"/>
			<point x="363" y="12"/>
			<point x="279" y="12" type="curve" smooth="yes"/>
			<point x="242" y="12"/>
			<point x="214" y="20"/>
			<point x="186" y="33" type="curve" smooth="yes"/>
			<point x="177" y="37"/>
			<point x="170" y="36"/>
			<point x="166" y="26" type="curve" smooth="yes"/>
			<point x="162" y="18"/>
			<point x="160" y="11"/>
			<point x="171" y="7" type="curve" smooth="yes"/>
			<point x="210" y="-9"/>
			<point x="234" y="-15"/>
			<point x="279" y="-15" type="curve" smooth="yes"/>
			<point x="384" y="-15"/>
			<point x="466" y="58"/>
		</contour>
	</outline>
</glyph>
<glyph name="ae" format="2">
  <advance width="715"/>
  <unicode hex="00E6"/>
  <anchor x="396" y="400" name="top"/>
  <outline>
    <contour>
      <point x="60" y="171" type="curve" smooth="yes"/>
      <point x="60" y="56"/>
      <point x="101" y="-14"/>
      <point x="164" y="-14" type="curve" smooth="yes"/>
      <point x="243" y="-14"/>
      <point x="303" y="53"/>
      <point x="408" y="338" type="curve"/>
      <point x="388" y="350" type="line"/>
      <point x="282" y="77"/>
      <point x="230" y="14"/>
      <point x="167" y="14" type="curve" smooth="yes"/>
      <point x="118" y="14"/>
      <point x="92" y="80"/>
      <point x="92" y="174" type="curve" smooth="yes"/>
      <point x="92" y="297"/>
      <point x="146" y="388"/>
      <point x="259" y="388" type="curve" smooth="yes"/>
      <point x="314" y="388"/>
      <point x="355" y="373"/>
      <point x="404" y="351" type="curve"/>
      <point x="396" y="369" type="line"/>
      <point x="377" y="325"/>
      <point x="356" y="264"/>
      <point x="356" y="183" type="curve" smooth="yes"/>
      <point x="356" y="69"/>
      <point x="412" y="-15"/>
      <point x="498" y="-15" type="curve" smooth="yes"/>
      <point x="578" y="-15"/>
      <point x="647" y="52"/>
      <point x="673" y="93" type="curve" smooth="yes"/>
      <point x="678" y="100"/>
      <point x="673" y="106"/>
      <point x="668" y="110" type="curve" smooth="yes"/>
      <point x="662" y="114"/>
      <point x="656" y="116"/>
      <point x="651" y="110" type="curve" smooth="yes"/>
      <point x="627" y="76"/>
      <point x="568" y="12"/>
      <point x="499" y="12" type="curve" smooth="yes"/>
      <point x="443" y="12"/>
      <point x="385" y="62"/>
      <point x="385" y="190" type="curve" smooth="yes"/>
      <point x="385" y="252"/>
      <point x="402" y="313"/>
      <point x="430" y="373" type="curve"/>
      <point x="376" y="397"/>
      <point x="327" y="415"/>
      <point x="262" y="415" type="curve" smooth="yes"/>
      <point x="120" y="415"/>
      <point x="60" y="301"/>
    </contour>
    <contour>
      <point x="661" y="317" type="curve" smooth="yes"/>
      <point x="661" y="378"/>
      <point x="616" y="415"/>
      <point x="536" y="415" type="curve" smooth="yes"/>
      <point x="484" y="415"/>
      <point x="444" y="399"/>
      <point x="399" y="370" type="curve"/>
      <point x="414" y="344" type="line"/>
      <point x="451" y="374"/>
      <point x="494" y="388"/>
      <point x="533" y="388" type="curve" smooth="yes"/>
      <point x="592" y="388"/>
      <point x="629" y="365"/>
      <point x="629" y="317" type="curve" smooth="yes"/>
      <point x="629" y="230"/>
      <point x="471" y="185"/>
      <point x="381" y="165" type="curve"/>
      <point x="381" y="138" type="line"/>
      <point x="496" y="160"/>
      <point x="661" y="216"/>
    </contour>
  </outline>
</glyph>
<glyph name="eth" format="2">
  <advance width="482"/>
  <unicode hex="00F0"/>
  <outline>
    <contour>
      <point x="235" y="-15" type="curve" smooth="yes"/>
      <point x="336" y="-15"/>
      <point x="421" y="72"/>
      <point x="421" y="237" type="curve" smooth="yes"/>
      <point x="421" y="439"/>
      <point x="331" y="567"/>
      <point x="178" y="710" type="curve" smooth="yes"/>
      <point x="173" y="715"/>
      <point x="167" y="715"/>
      <point x="160" y="708" type="curve" smooth="yes"/>
      <point x="153" y="701"/>
      <point x="151" y="696"/>
      <point x="158" y="689" type="curve" smooth="yes"/>
      <point x="303" y="552"/>
      <point x="390" y="425"/>
      <point x="390" y="237" type="curve" smooth="yes"/>
      <point x="390" y="84"/>
      <point x="316" y="13"/>
      <point x="235" y="13" type="curve" smooth="yes"/>
      <point x="148" y="13"/>
      <point x="101" y="90"/>
      <point x="101" y="200" type="curve" smooth="yes"/>
      <point x="101" y="308"/>
      <point x="156" y="387"/>
      <point x="260" y="387" type="curve" smooth="yes"/>
      <point x="301" y="387"/>
      <point x="346" y="377"/>
      <point x="397" y="349" type="curve"/>
      <point x="394" y="379" type="line"/>
      <point x="347" y="403"/>
      <point x="310" y="415"/>
      <point x="260" y="415" type="curve" smooth="yes"/>
      <point x="144" y="415"/>
      <point x="70" y="326"/>
      <point x="70" y="200" type="curve" smooth="yes"/>
      <point x="70" y="72"/>
      <point x="127" y="-15"/>
    </contour>
    <contour>
      <point x="183" y="500" type="curve" smooth="yes"/>
      <point x="401" y="600" type="line" smooth="yes"/>
      <point x="409" y="604"/>
      <point x="410" y="609"/>
      <point x="407" y="618" type="curve" smooth="yes"/>
      <point x="403" y="628"/>
      <point x="397" y="631"/>
      <point x="389" y="627" type="curve" smooth="yes"/>
      <point x="172" y="527" type="line" smooth="yes"/>
      <point x="163" y="523"/>
      <point x="162" y="517"/>
      <point x="165" y="509" type="curve" smooth="yes"/>
      <point x="169" y="499"/>
      <point x="175" y="496"/>
    </contour>
  </outline>
</glyph>
<glyph name="Eng" format="2">
  <advance width="888"/>
  <unicode hex="014A"/>
  <outline>
    <contour>
      <point x="738" y="-122" type="curve" smooth="yes"/>
      <point x="738" y="875" type="line" smooth="yes"/>
      <point x="738" y="886"/>
      <point x="733" y="890"/>
      <point x="719" y="890" type="curve" smooth="yes"/>
      <point x="705" y="890"/>
      <point x="700" y="886"/>
      <point x="700" y="875" type="curve" smooth="yes"/>
      <point x="700" y="64" type="line"/>
      <point x="189" y="880" type="line" smooth="yes"/>
      <point x="184" y="888"/>
      <point x="180" y="890"/>
      <point x="168" y="890" type="curve" smooth="yes"/>
      <point x="156" y="890"/>
      <point x="150" y="886"/>
      <point x="150" y="875" type="curve" smooth="yes"/>
      <point x="150" y="1" type="line" smooth="yes"/>
      <point x="150" y="-10"/>
      <point x="155" y="-14"/>
      <point x="169" y="-14" type="curve" smooth="yes"/>
      <point x="183" y="-14"/>
      <point x="188" y="-10"/>
      <point x="188" y="1" type="curve" smooth="yes"/>
      <point x="188" y="813" type="line"/>
      <point x="701" y="-9" type="line"/>
      <point x="701" y="-120" type="line" smooth="yes"/>
      <point x="701" y="-192"/>
      <point x="689" y="-220"/>
      <point x="644" y="-220" type="curve" smooth="yes"/>
      <point x="609" y="-220"/>
      <point x="574" y="-200"/>
      <point x="549" y="-175" type="curve" smooth="yes"/>
      <point x="541" y="-167"/>
      <point x="531" y="-165"/>
      <point x="523" y="-174" type="curve" smooth="yes"/>
      <point x="511" y="-185"/>
      <point x="514" y="-194"/>
      <point x="521" y="-201" type="curve" smooth="yes"/>
      <point x="553" y="-234"/>
      <point x="593" y="-255"/>
      <point x="643" y="-255" type="curve" smooth="yes"/>
      <point x="715" y="-255"/>
      <point x="738" y="-214"/>
    </contour>
  </outline>
</glyph>
<glyph name="OE" format="2">
	<unicode hex="0152"/>
	<advance width="1022"/>
	<outline>
		<contour>
			<point x="356" y="-15" type="curve" smooth="yes"/>
			<point x="530" y="-15"/>
			<point x="637" y="127"/>
			<point x="637" y="349" type="curve" smooth="yes"/>
			<point x="637" y="570"/>
			<point x="538" y="712"/>
			<point x="360" y="712" type="curve" smooth="yes"/>
			<point x="190" y="712"/>
			<point x="75" y="570"/>
			<point x="75" y="349" type="curve" smooth="yes"/>
			<point x="75" y="127"/>
			<point x="186" y="-15"/>
		</contour>
		<contour>
			<point x="356" y="15" type="curve" smooth="yes"/>
			<point x="205" y="15"/>
			<point x="108" y="145"/>
			<point x="108" y="349" type="curve" smooth="yes"/>
			<point x="108" y="553"/>
			<point x="209" y="682"/>
			<point x="360" y="682" type="curve" smooth="yes"/>
			<point x="515" y="682"/>
			<point x="612" y="553"/>
			<point x="612" y="349" type="curve" smooth="yes"/>
			<point x="612" y="145"/>
			<point x="507" y="15"/>
		</contour>
		<contour>
			<point x="627" y="0" type="curve" smooth="yes"/>
			<point x="973" y="0" type="line" smooth="yes"/>
			<point x="978" y="0"/>
			<point x="982" y="4"/>
			<point x="982" y="14" type="curve" smooth="yes"/>
			<point x="982" y="24"/>
			<point x="978" y="28"/>
			<point x="973" y="28" type="curve" smooth="yes"/>
			<point x="642" y="28" type="line"/>
			<point x="642" y="356" type="line"/>
			<point x="923" y="356" type="line" smooth="yes"/>
			<point x="928" y="356"/>
			<point x="932" y="360"/>
			<point x="932" y="370" type="curve" smooth="yes"/>
			<point x="932" y="380"/>
			<point x="928" y="384"/>
			<point x="923" y="384" type="curve" smooth="yes"/>
			<point x="642" y="384" type="line"/>
			<point x="642" y="672" type="line"/>
			<point x="973" y="672" type="line" smooth="yes"/>
			<point x="978" y="672"/>
			<point x="982" y="676"/>
			<point x="982" y="686" type="curve" smooth="yes"/>
			<point x="982" y="696"/>
			<point x="978" y="700"/>
			<point x="973" y="700" type="curve" smooth="yes"/>
			<point x="628" y="700" type="line" smooth="yes"/>
			<point x="617" y="700"/>
			<point x="612" y="697"/>
			<point x="612" y="688" type="curve" smooth="yes"/>
			<point x="612" y="12" type="line" smooth="yes"/>
			<point x="612" y="3"/>
			<point x="616" y="0"/>
		</contour>
	</outline>
	<anchor name="top" x="560" y="670"/>
</glyph>
<glyph name="oe" format="2">
  <advance width="721"/>
  <unicode hex="0153"/>
  <anchor x="386" y="400" name="top"/>
  <outline>
    <contour>
      <point x="231" y="-15" type="curve" smooth="yes"/>
      <point x="330" y="-15"/>
      <point x="397" y="72"/>
      <point x="397" y="200" type="curve" smooth="yes"/>
      <point x="397" y="328"/>
      <point x="329" y="415"/>
      <point x="231" y="415" type="curve" smooth="yes"/>
      <point x="132" y="415"/>
      <point x="60" y="328"/>
      <point x="60" y="200" type="curve" smooth="yes"/>
      <point x="60" y="72"/>
      <point x="123" y="-15"/>
    </contour>
    <contour>
      <point x="231" y="13" type="curve" smooth="yes"/>
      <point x="144" y="13"/>
      <point x="91" y="90"/>
      <point x="91" y="200" type="curve" smooth="yes"/>
      <point x="91" y="310"/>
      <point x="144" y="387"/>
      <point x="231" y="387" type="curve" smooth="yes"/>
      <point x="317" y="387"/>
      <point x="370" y="310"/>
      <point x="370" y="200" type="curve" smooth="yes"/>
      <point x="370" y="90"/>
      <point x="317" y="13"/>
    </contour>
    <contour>
      <point x="521" y="-15" type="curve" smooth="yes"/>
      <point x="594" y="-15"/>
      <point x="653" y="52"/>
      <point x="679" y="93" type="curve" smooth="yes"/>
      <point x="684" y="100"/>
      <point x="679" y="106"/>
      <point x="674" y="110" type="curve" smooth="yes"/>
      <point x="668" y="114"/>
      <point x="662" y="116"/>
      <point x="657" y="110" type="curve" smooth="yes"/>
      <point x="633" y="76"/>
      <point x="589" y="12"/>
      <point x="522" y="12" type="curve" smooth="yes"/>
      <point x="460" y="12"/>
      <point x="401" y="61"/>
      <point x="401" y="183" type="curve" smooth="yes"/>
      <point x="401" y="330"/>
      <point x="477" y="388"/>
      <point x="549" y="388" type="curve" smooth="yes"/>
      <point x="605" y="388"/>
      <point x="635" y="363"/>
      <point x="635" y="322" type="curve" smooth="yes"/>
      <point x="635" y="235"/>
      <point x="483" y="185"/>
      <point x="396" y="165" type="curve"/>
      <point x="396" y="138" type="line"/>
      <point x="508" y="160"/>
      <point x="667" y="221"/>
      <point x="667" y="322" type="curve" smooth="yes"/>
      <point x="667" y="365"/>
      <point x="637" y="415"/>
      <point x="552" y="415" type="curve" smooth="yes"/>
      <point x="449" y="415"/>
      <point x="374" y="322"/>
      <point x="374" y="180" type="curve" smooth="yes"/>
      <point x="374" y="70"/>
      <point x="426" y="-15"/>
    </contour>
  </outline>
</glyph>
<glyph name="jdotless" format="2">
	<unicode hex="0237"/>
	<advance width="214"/>
	<outline>
		<contour>
			<point x="43" y="-314" type="curve" smooth="yes"/>
			<point x="101" y="-314"/>
			<point x="119" y="-281"/>
			<point x="119" y="-218" type="curve" smooth="yes"/>
			<point x="119" y="400" type="line" smooth="yes"/>
			<point x="119" y="409"/>
			<point x="115" y="412"/>
			<point x="105" y="412" type="curve" smooth="yes"/>
			<point x="95" y="412"/>
			<point x="90" y="409"/>
			<point x="90" y="400" type="curve" smooth="yes"/>
			<point x="90" y="-216" type="line" smooth="yes"/>
			<point x="90" y="-264"/>
			<point x="80" y="-286"/>
			<point x="44" y="-286" type="curve" smooth="yes"/>
			<point x="16" y="-286"/>
			<point x="-12" y="-270"/>
			<point x="-32" y="-250" type="curve" smooth="yes"/>
			<point x="-38" y="-244"/>
			<point x="-46" y="-242"/>
			<point x="-53" y="-249" type="curve" smooth="yes"/>
			<point x="-62" y="-258"/>
			<point x="-60" y="-265"/>
			<point x="-54" y="-271" type="curve" smooth="yes"/>
			<point x="-29" y="-297"/>
			<point x="3" y="-314"/>
		</contour>
	</outline>
	<anchor name="top" x="104" y="400"/>
</glyph>
<glyph name="gravecomb" format="2">
	<unicode hex="0300"/>
	<outline>
		<contour>
			<point x="35" y="504" type="curve" smooth="yes"/>
			<point x="41" y="504"/>
			<point x="50" y="512"/>
			<point x="50" y="518" type="curve" smooth="yes"/>
			<point x="50" y="520"/>
			<point x="49" y="523"/>
			<point x="47" y="526" type="curve" smooth="yes"/>
			<point x="-53" y="663" type="line" smooth="yes"/>
			<point x="-56" y="667"/>
			<point x="-59" y="669"/>
			<point x="-63" y="669" type="curve" smooth="yes"/>
			<point x="-71" y="669"/>
			<point x="-84" y="659"/>
			<point x="-84" y="651" type="curve" smooth="yes"/>
			<point x="-84" y="648"/>
			<point x="-83" y="646"/>
			<point x="-81" y="643" type="curve" smooth="yes"/>
			<point x="26" y="509" type="line" smooth="yes"/>
			<point x="29" y="505"/>
			<point x="32" y="504"/>
		</contour>
	</outline>
	<anchor name="_top" x="0" y="400"/>
	<anchor name="top" x="0" y="654"/>
</glyph>
<glyph name="acutecomb" format="2">
  <unicode hex="0301"/>
  <anchor x="0" y="500" name="_top"/>
  <anchor x="0" y="818" name="top"/>
  <outline>
    <contour>
      <point x="-45" y="630" type="curve" smooth="yes"/>
      <point x="-41" y="630"/>
      <point x="-37" y="631"/>
      <point x="-34" y="636" type="curve" smooth="yes"/>
      <point x="99" y="803" type="line" smooth="yes"/>
      <point x="103" y="808"/>
      <point x="104" y="810"/>
      <point x="104" y="814" type="curve" smooth="yes"/>
      <point x="104" y="824"/>
      <point x="88" y="836"/>
      <point x="78" y="836" type="curve" smooth="yes"/>
      <point x="73" y="836"/>
      <point x="69" y="834"/>
      <point x="65" y="829" type="curve" smooth="yes"/>
      <point x="-60" y="658" type="line" smooth="yes"/>
      <point x="-62" y="654"/>
      <point x="-64" y="650"/>
      <point x="-64" y="648" type="curve" smooth="yes"/>
      <point x="-64" y="640"/>
      <point x="-52" y="630"/>
    </contour>
  </outline>
</glyph>
<glyph name="tildecomb" format="2">
  <unicode hex="0303"/>
  <anchor x="0" y="400" name="_top"/>
  <anchor x="0" y="604" name="top"/>
  <outline>
    <contour>
      <point x="-124" y="524" type="curve" smooth="yes"/>
      <point x="-114" y="524"/>
      <point x="-111" y="527"/>
      <point x="-110" y="537" type="curve" smooth="yes"/>
      <point x="-107" y="577"/>
      <point x="-100" y="597"/>
      <point x="-78" y="597" type="curve" smooth="yes"/>
      <point x="-37" y="597"/>
      <point x="22" y="526"/>
      <point x="75" y="526" type="curve" smooth="yes"/>
      <point x="114" y="526"/>
      <point x="135" y="558"/>
      <point x="138" y="612" type="curve" smooth="yes"/>
      <point x="138" y="623"/>
      <point x="135" y="626"/>
      <point x="124" y="626" type="curve" smooth="yes"/>
      <point x="114" y="626"/>
      <point x="110" y="623"/>
      <point x="109" y="613" type="curve" smooth="yes"/>
      <point x="107" y="574"/>
      <point x="99" y="554"/>
      <point x="76" y="554" type="curve" smooth="yes"/>
      <point x="36" y="554"/>
      <point x="-22" y="625"/>
      <point x="-78" y="625" type="curve" smooth="yes"/>
      <point x="-115" y="625"/>
      <point x="-135" y="591"/>
      <point x="-138" y="538" type="curve" smooth="yes"/>
      <point x="-138" y="529"/>
      <point x="-133" y="524"/>
    </contour>
  </outline>
</glyph>
<glyph name="brevecomb" format="2">
  <unicode hex="0306"/>
  <anchor x="0" y="400" name="_top"/>
  <anchor x="0" y="654" name="top"/>
  <outline>
    <contour>
      <point x="0" y="504" type="curve" smooth="yes"/>
      <point x="75" y="504"/>
      <point x="123" y="559"/>
      <point x="123" y="656" type="curve" smooth="yes"/>
      <point x="123" y="665"/>
      <point x="119" y="669"/>
      <point x="109" y="669" type="curve" smooth="yes"/>
      <point x="99" y="669"/>
      <point x="95" y="665"/>
      <point x="95" y="656" type="curve" smooth="yes"/>
      <point x="95" y="578"/>
      <point x="60" y="536"/>
      <point x="0" y="536" type="curve" smooth="yes"/>
      <point x="-60" y="536"/>
      <point x="-95" y="578"/>
      <point x="-95" y="656" type="curve" smooth="yes"/>
      <point x="-95" y="665"/>
      <point x="-99" y="669"/>
      <point x="-109" y="669" type="curve" smooth="yes"/>
      <point x="-119" y="669"/>
      <point x="-123" y="665"/>
      <point x="-123" y="656" type="curve" smooth="yes"/>
      <point x="-123" y="559"/>
      <point x="-75" y="504"/>
    </contour>
  </outline>
</glyph>
<glyph name="dotaccentcomb" format="2">
	<unicode hex="0307"/>
	<outline>
		<contour>
			<point x="0" y="552" type="curve" smooth="yes"/>
			<point x="20" y="552"/>
			<point x="30" y="563"/>
			<point x="30" y="586" type="curve" smooth="yes"/>
			<point x="30" y="609"/>
			<point x="20" y="620"/>
			<point x="0" y="620" type="curve" smooth="yes"/>
			<point x="-20" y="620"/>
			<point x="-30" y="609"/>
			<point x="-30" y="586" type="curve" smooth="yes"/>
			<point x="-30" y="563"/>
			<point x="-20" y="552"/>
		</contour>
	</outline>
	<anchor name="_top" x="0" y="400"/>
	<anchor name="top" x="0" y="620"/>
</glyph>
<glyph name="dieresiscomb" format="2">
	<unicode hex="0308"/>
	<outline>
		<contour>
			<point x="-100" y="552" type="curve" smooth="yes"/>
			<point x="-80" y="552"/>
			<point x="-70" y="563"/>
			<point x="-70" y="586" type="curve" smooth="yes"/>
			<point x="-70" y="609"/>
			<point x="-80" y="620"/>
			<point x="-100" y="620" type="curve" smooth="yes"/>
			<point x="-120" y="620"/>
			<point x="-130" y="609"/>
			<point x="-130" y="586" type="curve" smooth="yes"/>
			<point x="-130" y="563"/>
			<point x="-120" y="552"/>
		</contour>
		<contour>
			<point x="100" y="552" type="curve" smooth="yes"/>
			<point x="120" y="552"/>
			<point x="130" y="563"/>
			<point x="130" y="586" type="curve" smooth="yes"/>
			<point x="130" y="609"/>
			<point x="120" y="620"/>
			<point x="100" y="620" type="curve" smooth="yes"/>
			<point x="80" y="620"/>
			<point x="70" y="609"/>
			<point x="70" y="586" type="curve" smooth="yes"/>
			<point x="70" y="563"/>
			<point x="80" y="552"/>
		</contour>
	</outline>
	<anchor name="_top" x="0" y="400"/>
	<anchor name="top" x="0" y="589"/>
</glyph>
<glyph name="hookabovecomb" format="2">
  <unicode hex="0309"/>
  <anchor x="0" y="500" name="_top"/>
  <anchor x="0" y="818" name="top"/>
  <outline>
    <contour>
      <point x="13" y="838" type="curve" smooth="yes"/>
      <point x="-17" y="838"/>
      <point x="-55" y="828"/>
      <point x="-76" y="811" type="curve" smooth="yes"/>
      <point x="-85" y="804"/>
      <point x="-87" y="798"/>
      <point x="-81" y="786" type="curve" smooth="yes"/>
      <point x="-77" y="779"/>
      <point x="-70" y="775"/>
      <point x="-57" y="783" type="curve" smooth="yes"/>
      <point x="-39" y="794"/>
      <point x="-14" y="803"/>
      <point x="9" y="803" type="curve" smooth="yes"/>
      <point x="39" y="803"/>
      <point x="54" y="793"/>
      <point x="54" y="773" type="curve" smooth="yes"/>
      <point x="54" y="756"/>
      <point x="46" y="739"/>
      <point x="21" y="716" type="curve" smooth="yes"/>
      <point x="-6" y="691"/>
      <point x="-20" y="668"/>
      <point x="-16" y="641" type="curve" smooth="yes"/>
      <point x="-14" y="625" type="line" smooth="yes"/>
      <point x="-11" y="605"/>
      <point x="29" y="608"/>
      <point x="25" y="630" type="curve" smooth="yes"/>
      <point x="23" y="644" type="line" smooth="yes"/>
      <point x="20" y="660"/>
      <point x="26" y="671"/>
      <point x="50" y="693" type="curve" smooth="yes"/>
      <point x="81" y="720"/>
      <point x="94" y="749"/>
      <point x="94" y="774" type="curve" smooth="yes"/>
      <point x="94" y="811"/>
      <point x="64" y="838"/>
    </contour>
  </outline>
</glyph>
<glyph name="commaturnedabovecomb" format="2">
  <unicode hex="0312"/>
  <anchor x="0" y="500" name="_top"/>
  <anchor x="0" y="818" name="top"/>
  <outline>
    <contour>
      <point x="49" y="836" type="curve" smooth="yes"/>
      <point x="36" y="841"/>
      <point x="30" y="835"/>
      <point x="24" y="825" type="curve" smooth="yes"/>
      <point x="-6" y="778"/>
      <point x="-26" y="708"/>
      <point x="-26" y="651" type="curve" smooth="yes"/>
      <point x="-26" y="640"/>
      <point x="-20" y="630"/>
      <point x="-5" y="630" type="curve" smooth="yes"/>
      <point x="10" y="630"/>
      <point x="14" y="640"/>
      <point x="14" y="651" type="curve" smooth="yes"/>
      <point x="14" y="726"/>
      <point x="28" y="764"/>
      <point x="53" y="809" type="curve" smooth="yes"/>
      <point x="61" y="825"/>
      <point x="61" y="831"/>
    </contour>
  </outline>
</glyph>
<glyph name="horncomb" format="2">
	<unicode hex="031B"/>
	<outline>
		<contour>
			<point x="123" y="549" type="curve" smooth="yes"/>
			<point x="118" y="571"/>
			<point x="84" y="564"/>
			<point x="88" y="543" type="curve" smooth="yes"/>
			<point x="99" y="479"/>
			<point x="99" y="419"/>
			<point x="0" y="411" type="curve"/>
			<point x="0" y="390" type="line"/>
			<point x="116" y="390"/>
			<point x="140" y="469"/>
		</contour>
	</outline>
	<anchor name="_topright" x="0" y="411"/>
</glyph>
<glyph name="cedillacomb" format="2">
  <unicode hex="0327"/>
  <anchor x="0" y="0" name="_bottom"/>
  <anchor x="0" y="-262" name="bottom"/>
  <outline>
    <contour>
      <point x="-17" y="-265" type="curve" smooth="yes"/>
      <point x="44" y="-265"/>
      <point x="86" y="-227"/>
      <point x="86" y="-172" type="curve" smooth="yes"/>
      <point x="86" y="-105"/>
      <point x="29" y="-81"/>
      <point x="-37" y="-97" type="curve"/>
      <point x="-27" y="-107" type="line"/>
      <point x="18" y="0" type="line"/>
      <point x="-15" y="0" type="line"/>
      <point x="-54" y="-92" type="line" smooth="yes"/>
      <point x="-59" y="-104"/>
      <point x="-61" y="-110"/>
      <point x="-55" y="-119" type="curve" smooth="yes"/>
      <point x="-51" y="-124"/>
      <point x="-45" y="-126"/>
      <point x="-36" y="-125" type="curve" smooth="yes"/>
      <point x="18" y="-117"/>
      <point x="48" y="-136"/>
      <point x="48" y="-172" type="curve" smooth="yes"/>
      <point x="48" y="-207"/>
      <point x="23" y="-231"/>
      <point x="-17" y="-231" type="curve" smooth="yes"/>
      <point x="-44" y="-231"/>
      <point x="-67" y="-221"/>
      <point x="-90" y="-211" type="curve" smooth="yes"/>
      <point x="-100" y="-207"/>
      <point x="-106" y="-209"/>
      <point x="-111" y="-217" type="curve" smooth="yes"/>
      <point x="-116" y="-226"/>
      <point x="-116" y="-235"/>
      <point x="-106" y="-241" type="curve" smooth="yes"/>
      <point x="-76" y="-260"/>
      <point x="-40" y="-265"/>
    </contour>
  </outline>
</glyph>
<glyph name="ogonekcomb" format="2">
	<unicode hex="0328"/>
	<outline>
		<contour>
			<point x="-22" y="-206" type="curve" smooth="yes"/>
			<point x="13" y="-206"/>
			<point x="53" y="-182"/>
			<point x="74" y="-147" type="curve" smooth="yes"/>
			<point x="79" y="-140"/>
			<point x="79" y="-134"/>
			<point x="72" y="-128" type="curve" smooth="yes"/>
			<point x="68" y="-124"/>
			<point x="61" y="-124"/>
			<point x="56" y="-131" type="curve" smooth="yes"/>
			<point x="33" y="-163"/>
			<point x="5" y="-180"/>
			<point x="-19" y="-180" type="curve" smooth="yes"/>
			<point x="-36" y="-180"/>
			<point x="-46" y="-168"/>
			<point x="-46" y="-148" type="curve" smooth="yes"/>
			<point x="-46" y="-103"/>
			<point x="-7" y="-57"/>
			<point x="53" y="0" type="curve"/>
			<point x="53" y="3" type="line"/>
			<point x="30" y="7" type="line"/>
			<point x="-42" y="-56"/>
			<point x="-75" y="-103"/>
			<point x="-75" y="-149" type="curve" smooth="yes"/>
			<point x="-75" y="-189"/>
			<point x="-53" y="-206"/>
		</contour>
	</outline>
	<anchor name="_ogonek" x="53" y="0"/>
</glyph>
<glyph name="Germandbls" format="2">
  <advance width="888"/>
  <unicode hex="1E9E"/>
  <outline>
    <contour>
      <point x="533" y="-19" type="curve" smooth="yes"/>
      <point x="648" y="-19"/>
      <point x="776" y="63"/>
      <point x="776" y="223" type="curve" smooth="yes"/>
      <point x="776" y="499"/>
      <point x="443" y="511"/>
      <point x="443" y="700" type="curve" smooth="yes"/>
      <point x="443" y="781"/>
      <point x="494" y="854"/>
      <point x="626" y="854" type="curve" smooth="yes"/>
      <point x="640" y="854"/>
      <point x="645" y="859"/>
      <point x="645" y="871" type="curve" smooth="yes"/>
      <point x="645" y="884"/>
      <point x="640" y="889"/>
      <point x="626" y="889" type="curve" smooth="yes"/>
      <point x="600" y="889" type="line" smooth="yes"/>
      <point x="231" y="889"/>
      <point x="145" y="689"/>
      <point x="145" y="476" type="curve" smooth="yes"/>
      <point x="145" y="3" type="line" smooth="yes"/>
      <point x="145" y="-9"/>
      <point x="150" y="-12"/>
      <point x="164" y="-12" type="curve" smooth="yes"/>
      <point x="178" y="-12"/>
      <point x="183" y="-9"/>
      <point x="183" y="3" type="curve" smooth="yes"/>
      <point x="183" y="479" type="line" smooth="yes"/>
      <point x="183" y="645"/>
      <point x="244" y="815"/>
      <point x="497" y="851" type="curve"/>
      <point x="440" y="821"/>
      <point x="403" y="766"/>
      <point x="403" y="700" type="curve" smooth="yes"/>
      <point x="403" y="486"/>
      <point x="736" y="471"/>
      <point x="736" y="223" type="curve" smooth="yes"/>
      <point x="736" y="80"/>
      <point x="625" y="19"/>
      <point x="533" y="19" type="curve" smooth="yes"/>
      <point x="466" y="19"/>
      <point x="410" y="38"/>
      <point x="361" y="71" type="curve" smooth="yes"/>
      <point x="345" y="81"/>
      <point x="338" y="79"/>
      <point x="330" y="69" type="curve" smooth="yes"/>
      <point x="321" y="56"/>
      <point x="323" y="49"/>
      <point x="338" y="39" type="curve" smooth="yes"/>
      <point x="393" y="3"/>
      <point x="458" y="-19"/>
    </contour>
  </outline>
</glyph>
<glyph name="guilsinglright" format="2">
  <advance width="380"/>
  <unicode hex="203A"/>
  <outline>
    <contour>
      <point x="116" y="-11" type="curve" smooth="yes"/>
      <point x="123" y="-11"/>
      <point x="128" y="-6"/>
      <point x="131" y="-2" type="curve" smooth="yes"/>
      <point x="270" y="176" type="line" smooth="yes"/>
      <point x="280" y="188"/>
      <point x="285" y="195"/>
      <point x="285" y="201" type="curve" smooth="yes"/>
      <point x="285" y="208"/>
      <point x="280" y="214"/>
      <point x="270" y="226" type="curve" smooth="yes"/>
      <point x="130" y="403" type="line" smooth="yes"/>
      <point x="127" y="407"/>
      <point x="122" y="412"/>
      <point x="115" y="412" type="curve" smooth="yes"/>
      <point x="104" y="412"/>
      <point x="94" y="404"/>
      <point x="105" y="390" type="curve" smooth="yes"/>
      <point x="262" y="191" type="line"/>
      <point x="262" y="211" type="line"/>
      <point x="105" y="11" type="line" smooth="yes"/>
      <point x="94" y="-3"/>
      <point x="105" y="-11"/>
    </contour>
  </outline>
</glyph>
<glyph name="euro" format="2">
  <advance width="602"/>
  <unicode hex="20AC"/>
  <outline>
    <contour>
      <point x="362" y="-15" type="curve" smooth="yes"/>
      <point x="432" y="-15"/>
      <point x="505" y="16"/>
      <point x="555" y="78" type="curve" smooth="yes"/>
      <point x="563" y="87"/>
      <point x="564" y="93"/>
      <point x="554" y="101" type="curve" smooth="yes"/>
      <point x="544" y="109"/>
      <point x="539" y="106"/>
      <point x="531" y="96" type="curve" smooth="yes"/>
      <point x="491" y="47"/>
      <point x="428" y="15"/>
      <point x="362" y="15" type="curve" smooth="yes"/>
      <point x="223" y="15"/>
      <point x="156" y="147"/>
      <point x="156" y="349" type="curve" smooth="yes"/>
      <point x="156" y="540"/>
      <point x="246" y="682"/>
      <point x="377" y="682" type="curve" smooth="yes"/>
      <point x="429" y="682"/>
      <point x="475" y="662"/>
      <point x="514" y="624" type="curve" smooth="yes"/>
      <point x="524" y="613"/>
      <point x="531" y="614"/>
      <point x="539" y="622" type="curve" smooth="yes"/>
      <point x="547" y="629"/>
      <point x="547" y="635"/>
      <point x="538" y="644" type="curve" smooth="yes"/>
      <point x="494" y="693"/>
      <point x="438" y="712"/>
      <point x="377" y="712" type="curve" smooth="yes"/>
      <point x="227" y="712"/>
      <point x="123" y="557"/>
      <point x="123" y="349" type="curve" smooth="yes"/>
      <point x="123" y="129"/>
      <point x="204" y="-15"/>
    </contour>
    <contour>
      <point x="45" y="392" type="curve" smooth="yes"/>
      <point x="456" y="392" type="line" smooth="yes"/>
      <point x="461" y="392"/>
      <point x="465" y="397"/>
      <point x="465" y="407" type="curve" smooth="yes"/>
      <point x="465" y="417"/>
      <point x="461" y="420"/>
      <point x="456" y="420" type="curve" smooth="yes"/>
      <point x="45" y="420" type="line" smooth="yes"/>
      <point x="40" y="420"/>
      <point x="36" y="416"/>
      <point x="36" y="406" type="curve" smooth="yes"/>
      <point x="36" y="396"/>
      <point x="40" y="392"/>
    </contour>
    <contour>
      <point x="45" y="288" type="curve" smooth="yes"/>
      <point x="456" y="288" type="line" smooth="yes"/>
      <point x="461" y="288"/>
      <point x="465" y="293"/>
      <point x="465" y="303" type="curve" smooth="yes"/>
      <point x="465" y="313"/>
      <point x="461" y="316"/>
      <point x="456" y="316" type="curve" smooth="yes"/>
      <point x="45" y="316" type="line" smooth="yes"/>
      <point x="40" y="316"/>
      <point x="36" y="312"/>
      <point x="36" y="302" type="curve" smooth="yes"/>
      <point x="36" y="292"/>
      <point x="40" y="288"/>
    </contour>
  </outline>
</glyph>
<glyph name="trademark" format="2">
  <advance width="960"/>
  <unicode hex="2122"/>
  <outline>
    <contour>
      <point x="213" y="430" type="curve" smooth="yes"/>
      <point x="224" y="430"/>
      <point x="231" y="434"/>
      <point x="231" y="443" type="curve" smooth="yes"/>
      <point x="231" y="843" type="line"/>
      <point x="365" y="843" type="line" smooth="yes"/>
      <point x="373" y="843"/>
      <point x="376" y="848"/>
      <point x="376" y="859" type="curve" smooth="yes"/>
      <point x="376" y="870"/>
      <point x="373" y="875"/>
      <point x="365" y="875" type="curve" smooth="yes"/>
      <point x="61" y="875" type="line" smooth="yes"/>
      <point x="54" y="875"/>
      <point x="50" y="871"/>
      <point x="50" y="859" type="curve" smooth="yes"/>
      <point x="50" y="846"/>
      <point x="54" y="843"/>
      <point x="61" y="843" type="curve" smooth="yes"/>
      <point x="195" y="843" type="line"/>
      <point x="195" y="443" type="line" smooth="yes"/>
      <point x="195" y="434"/>
      <point x="201" y="430"/>
    </contour>
    <contour>
      <point x="469" y="430" type="curve" smooth="yes"/>
      <point x="480" y="430"/>
      <point x="486" y="433"/>
      <point x="486" y="441" type="curve" smooth="yes"/>
      <point x="486" y="798" type="line"/>
      <point x="628" y="559" type="line" smooth="yes"/>
      <point x="631" y="551"/>
      <point x="638" y="550"/>
      <point x="648" y="550" type="curve" smooth="yes"/>
      <point x="656" y="550"/>
      <point x="661" y="551"/>
      <point x="666" y="560" type="curve" smooth="yes"/>
      <point x="808" y="798" type="line"/>
      <point x="808" y="441" type="line" smooth="yes"/>
      <point x="808" y="433"/>
      <point x="815" y="430"/>
      <point x="825" y="430" type="curve" smooth="yes"/>
      <point x="836" y="430"/>
      <point x="843" y="433"/>
      <point x="843" y="441" type="curve" smooth="yes"/>
      <point x="843" y="864" type="line" smooth="yes"/>
      <point x="843" y="871"/>
      <point x="838" y="875"/>
      <point x="825" y="875" type="curve" smooth="yes"/>
      <point x="815" y="875"/>
      <point x="810" y="871"/>
      <point x="806" y="864" type="curve" smooth="yes"/>
      <point x="648" y="591" type="line"/>
      <point x="488" y="864" type="line" smooth="yes"/>
      <point x="484" y="871"/>
      <point x="479" y="875"/>
      <point x="469" y="875" type="curve" smooth="yes"/>
      <point x="458" y="875"/>
      <point x="451" y="871"/>
      <point x="451" y="864" type="curve" smooth="yes"/>
      <point x="451" y="441" type="line" smooth="yes"/>
      <point x="451" y="433"/>
      <point x="459" y="430"/>
    </contour>
  </outline>
</glyph>
<glyph name="A.cur.ini" format="2">
  <advance width="743"/>
  <anchor x="283" y="0" name="bottom"/>
  <anchor x="743" y="0" name="cnct"/>
  <anchor x="705" y="10" name="ogonek"/>
  <anchor x="367" y="670" name="top"/>
  <outline>
    <contour>
      <point x="283" y="-11" type="curve" smooth="yes"/>
      <point x="428" y="-11"/>
      <point x="561" y="170"/>
      <point x="589" y="423" type="curve"/>
      <point x="570" y="431" type="line"/>
      <point x="534" y="177"/>
      <point x="406" y="19"/>
      <point x="286" y="19" type="curve" smooth="yes"/>
      <point x="154" y="19"/>
      <point x="98" y="140"/>
      <point x="98" y="313" type="curve" smooth="yes"/>
      <point x="98" y="551"/>
      <point x="211" y="682"/>
      <point x="367" y="682" type="curve" smooth="yes"/>
      <point x="472" y="682"/>
      <point x="531" y="640"/>
      <point x="577" y="586" type="curve" smooth="yes"/>
      <point x="584" y="578"/>
      <point x="590" y="576"/>
      <point x="598" y="581" type="curve" smooth="yes"/>
      <point x="608" y="587"/>
      <point x="609" y="595"/>
      <point x="602" y="604" type="curve" smooth="yes"/>
      <point x="550" y="667"/>
      <point x="484" y="712"/>
      <point x="367" y="712" type="curve" smooth="yes"/>
      <point x="194" y="712"/>
      <point x="65" y="568"/>
      <point x="65" y="313" type="curve" smooth="yes"/>
      <point x="65" y="122"/>
      <point x="133" y="-11"/>
    </contour>
    <contour>
      <point x="661" y="-14" type="curve" smooth="yes"/>
      <point x="676" y="-14"/>
      <point x="676" y="14"/>
      <point x="661" y="14" type="curve" smooth="yes"/>
      <point x="612" y="14"/>
      <point x="600" y="62"/>
      <point x="600" y="111" type="curve" smooth="yes"/>
      <point x="601" y="432" type="line" smooth="yes"/>
      <point x="601" y="441"/>
      <point x="596" y="444"/>
      <point x="585" y="444" type="curve" smooth="yes"/>
      <point x="574" y="444"/>
      <point x="570" y="441"/>
      <point x="570" y="431" type="curve" smooth="yes"/>
      <point x="570" y="107" type="line" smooth="yes"/>
      <point x="570" y="43"/>
      <point x="591" y="-14"/>
    </contour>
  </outline>
</glyph>
<glyph name="A.cur_locl" format="2">
	<advance width="783"/>
	<outline>
		<contour>
			<point x="283" y="-11" type="curve" smooth="yes"/>
			<point x="431" y="-11"/>
			<point x="562" y="175"/>
			<point x="589" y="423" type="curve"/>
			<point x="570" y="431" type="line"/>
			<point x="536" y="193"/>
			<point x="416" y="19"/>
			<point x="286" y="19" type="curve" smooth="yes"/>
			<point x="165" y="19"/>
			<point x="98" y="123"/>
			<point x="98" y="313" type="curve" smooth="yes"/>
			<point x="98" y="539"/>
			<point x="202" y="682"/>
			<point x="367" y="682" type="curve" smooth="yes"/>
			<point x="453" y="682"/>
			<point x="514" y="655"/>
			<point x="573" y="590" type="curve"/>
			<point x="573" y="630" type="line"/>
			<point x="521" y="684"/>
			<point x="451" y="712"/>
			<point x="367" y="712" type="curve" smooth="yes"/>
			<point x="184" y="712"/>
			<point x="65" y="555"/>
			<point x="65" y="313" type="curve" smooth="yes"/>
			<point x="65" y="106"/>
			<point x="144" y="-11"/>
		</contour>
		<contour>
			<point x="642" y="-14" type="curve" smooth="yes"/>
			<point x="692" y="-14"/>
			<point x="736" y="27"/>
			<point x="766" y="101" type="curve" smooth="yes"/>
			<point x="768" y="107"/>
			<point x="765" y="111"/>
			<point x="757" y="114" type="curve" smooth="yes"/>
			<point x="748" y="117"/>
			<point x="742" y="116"/>
			<point x="739" y="110" type="curve" smooth="yes"/>
			<point x="711" y="47"/>
			<point x="680" y="15"/>
			<point x="647" y="15" type="curve" smooth="yes"/>
			<point x="612" y="15"/>
			<point x="600" y="35"/>
			<point x="600" y="91" type="curve" smooth="yes"/>
			<point x="601" y="700" type="line" smooth="yes"/>
			<point x="601" y="709"/>
			<point x="597" y="712"/>
			<point x="585" y="712" type="curve" smooth="yes"/>
			<point x="574" y="712"/>
			<point x="570" y="709"/>
			<point x="570" y="699" type="curve" smooth="yes"/>
			<point x="570" y="72" type="line" smooth="yes"/>
			<point x="570" y="19"/>
			<point x="597" y="-14"/>
		</contour>
	</outline>
	<anchor name="bottom" x="283" y="0"/>
	<anchor name="ogonek" x="705" y="10"/>
	<anchor name="top" x="367" y="670"/>
	<guideline y="421"/>
	<guideline x="606"/>
	<guideline y="73"/>
</glyph>
<glyph name="A.cur_locl.ini" format="2">
  <advance width="929"/>
  <anchor x="354" y="0" name="bottom"/>
  <anchor x="929" y="0" name="cnct"/>
  <anchor x="881" y="13" name="ogonek"/>
  <anchor x="459" y="838" name="top"/>
  <outline>
    <contour>
      <point x="354" y="-17" type="curve" smooth="yes"/>
      <point x="511" y="-17"/>
      <point x="653" y="151"/>
      <point x="713" y="395" type="curve"/>
      <point x="713" y="134" type="line" smooth="yes"/>
      <point x="713" y="54"/>
      <point x="739" y="-17"/>
      <point x="826" y="-17" type="curve" smooth="yes"/>
      <point x="845" y="-17"/>
      <point x="845" y="18"/>
      <point x="826" y="18" type="curve" smooth="yes"/>
      <point x="765" y="18"/>
      <point x="750" y="78"/>
      <point x="750" y="139" type="curve" smooth="yes"/>
      <point x="751" y="875" type="line" smooth="yes"/>
      <point x="751" y="886"/>
      <point x="746" y="890"/>
      <point x="731" y="890" type="curve" smooth="yes"/>
      <point x="718" y="890"/>
      <point x="713" y="886"/>
      <point x="713" y="874" type="curve" smooth="yes"/>
      <point x="713" y="791" type="line"/>
      <point x="648" y="856"/>
      <point x="561" y="890"/>
      <point x="459" y="890" type="curve" smooth="yes"/>
      <point x="230" y="890"/>
      <point x="81" y="694"/>
      <point x="81" y="391" type="curve" smooth="yes"/>
      <point x="81" y="130"/>
      <point x="180" y="-17"/>
    </contour>
    <contour>
      <point x="123" y="391" type="curve" smooth="yes"/>
      <point x="123" y="674"/>
      <point x="253" y="853"/>
      <point x="459" y="853" type="curve" smooth="yes"/>
      <point x="565" y="853"/>
      <point x="640" y="820"/>
      <point x="713" y="741" type="curve"/>
      <point x="713" y="539" type="line"/>
      <point x="670" y="239"/>
      <point x="520" y="20"/>
      <point x="358" y="20" type="curve" smooth="yes"/>
      <point x="206" y="20"/>
      <point x="123" y="151"/>
    </contour>
  </outline>
</glyph>
<glyph name="A.dec" format="2">
	<advance width="750"/>
	<outline>
		<contour>
			<point x="126" y="-14" type="curve" smooth="yes"/>
			<point x="222" y="-14"/>
			<point x="341" y="117"/>
			<point x="453" y="683" type="curve"/>
			<point x="440" y="682" type="line"/>
			<point x="484" y="461"/>
			<point x="548" y="238"/>
			<point x="637" y="-3" type="curve" smooth="yes"/>
			<point x="642" y="-16"/>
			<point x="647" y="-17"/>
			<point x="657" y="-13" type="curve" smooth="yes"/>
			<point x="667" y="-9"/>
			<point x="670" y="-5"/>
			<point x="666" y="7" type="curve" smooth="yes"/>
			<point x="577" y="249"/>
			<point x="513" y="470"/>
			<point x="467" y="694" type="curve" smooth="yes"/>
			<point x="465" y="706"/>
			<point x="459" y="712"/>
			<point x="447" y="712" type="curve" smooth="yes"/>
			<point x="435" y="712"/>
			<point x="428" y="705"/>
			<point x="426" y="694" type="curve" smooth="yes"/>
			<point x="308" y="127"/>
			<point x="200" y="16"/>
			<point x="125" y="16" type="curve" smooth="yes"/>
			<point x="98" y="16"/>
			<point x="77" y="29"/>
			<point x="60" y="45" type="curve" smooth="yes"/>
			<point x="54" y="51"/>
			<point x="48" y="52"/>
			<point x="40" y="42" type="curve" smooth="yes"/>
			<point x="32" y="34"/>
			<point x="34" y="28"/>
			<point x="40" y="22" type="curve" smooth="yes"/>
			<point x="57" y="6"/>
			<point x="82" y="-14"/>
		</contour>
		<contour>
			<point x="636" y="5" type="curve"/>
			<point x="658" y="15" type="line"/>
			<point x="549" y="282"/>
			<point x="415" y="301"/>
			<point x="318" y="301" type="curve" smooth="yes"/>
			<point x="243" y="301"/>
			<point x="187" y="264"/>
			<point x="187" y="215" type="curve" smooth="yes"/>
			<point x="187" y="155"/>
			<point x="252" y="121"/>
			<point x="352" y="121" type="curve" smooth="yes"/>
			<point x="443" y="121"/>
			<point x="555" y="138"/>
			<point x="690" y="201" type="curve" smooth="yes"/>
			<point x="700" y="206"/>
			<point x="701" y="211"/>
			<point x="697" y="221" type="curve" smooth="yes"/>
			<point x="692" y="232"/>
			<point x="685" y="231"/>
			<point x="676" y="227" type="curve" smooth="yes"/>
			<point x="551" y="167"/>
			<point x="445" y="149"/>
			<point x="352" y="149" type="curve" smooth="yes"/>
			<point x="281" y="149"/>
			<point x="220" y="170"/>
			<point x="220" y="215" type="curve" smooth="yes"/>
			<point x="220" y="250"/>
			<point x="259" y="273"/>
			<point x="317" y="273" type="curve" smooth="yes"/>
			<point x="416" y="273"/>
			<point x="525" y="254"/>
		</contour>
	</outline>
	<anchor name="bottom" x="416" y="0"/>
	<anchor name="ogonek" x="666" y="-2"/>
	<anchor name="top" x="446" y="670"/>
</glyph>
<glyph name="A.dec2.ini" format="2">
	<advance width="749"/>
	<outline>
		<contour>
			<point x="664" y="-14" type="curve" smooth="yes"/>
			<point x="680" y="-14"/>
			<point x="684" y="14"/>
			<point x="668" y="14" type="curve" smooth="yes"/>
			<point x="623" y="14"/>
			<point x="600" y="48"/>
			<point x="579" y="138" type="curve" smooth="yes"/>
			<point x="539" y="308"/>
			<point x="514" y="486"/>
			<point x="494" y="694" type="curve"/>
			<point x="464" y="686" type="line"/>
			<point x="483" y="480"/>
			<point x="506" y="302"/>
			<point x="548" y="130" type="curve" smooth="yes"/>
			<point x="573" y="29"/>
			<point x="605" y="-14"/>
		</contour>
		<contour>
			<point x="191" y="-14" type="curve" smooth="yes"/>
			<point x="410" y="-14"/>
			<point x="286" y="626"/>
			<point x="496" y="683" type="curve" smooth="yes"/>
			<point x="502" y="685"/>
			<point x="504" y="691"/>
			<point x="501" y="700" type="curve" smooth="yes"/>
			<point x="498" y="708"/>
			<point x="494" y="712"/>
			<point x="487" y="710" type="curve" smooth="yes"/>
			<point x="256" y="647"/>
			<point x="368" y="16"/>
			<point x="190" y="16" type="curve" smooth="yes"/>
			<point x="129" y="16"/>
			<point x="87" y="110"/>
			<point x="87" y="190" type="curve" smooth="yes"/>
			<point x="87" y="288"/>
			<point x="162" y="312"/>
			<point x="444" y="312" type="curve" smooth="yes"/>
			<point x="609" y="312" type="line" smooth="yes"/>
			<point x="615" y="312"/>
			<point x="618" y="318"/>
			<point x="618" y="327" type="curve" smooth="yes"/>
			<point x="618" y="336"/>
			<point x="615" y="340"/>
			<point x="609" y="340" type="curve" smooth="yes"/>
			<point x="441" y="340" type="line" smooth="yes"/>
			<point x="137" y="340"/>
			<point x="54" y="303"/>
			<point x="54" y="190" type="curve" smooth="yes"/>
			<point x="54" y="97"/>
			<point x="109" y="-14"/>
		</contour>
	</outline>
	<anchor name="bottom" x="430" y="0"/>
	<anchor name="cnct" x="749" y="0"/>
	<anchor name="ogonek" x="674" y="-2"/>
	<anchor name="top" x="440" y="670"/>
</glyph>
<glyph name="A.dec_locl" format="2">
  <advance width="850"/>
  <anchor x="416" y="0" name="bottom"/>
  <anchor x="749" y="0" name="ogonek"/>
  <anchor x="446" y="670" name="top"/>
  <outline>
    <contour>
      <point x="126" y="-14" type="curve" smooth="yes"/>
      <point x="222" y="-14"/>
      <point x="341" y="117"/>
      <point x="453" y="683" type="curve"/>
      <point x="440" y="682" type="line"/>
      <point x="462" y="573"/>
      <point x="488" y="464"/>
      <point x="538" y="289" type="curve" smooth="yes"/>
      <point x="610" y="38"/>
      <point x="639" y="-14"/>
      <point x="709" y="-14" type="curve" smooth="yes"/>
      <point x="763" y="-14"/>
      <point x="801" y="51"/>
      <point x="824" y="179" type="curve" smooth="yes"/>
      <point x="826" y="188"/>
      <point x="820" y="193"/>
      <point x="810" y="194" type="curve" smooth="yes"/>
      <point x="801" y="195"/>
      <point x="797" y="191"/>
      <point x="795" y="182" type="curve" smooth="yes"/>
      <point x="775" y="71"/>
      <point x="746" y="15"/>
      <point x="709" y="15" type="curve" smooth="yes"/>
      <point x="659" y="15"/>
      <point x="635" y="63"/>
      <point x="568" y="297" type="curve" smooth="yes"/>
      <point x="517" y="472"/>
      <point x="490" y="583"/>
      <point x="467" y="694" type="curve" smooth="yes"/>
      <point x="465" y="706"/>
      <point x="459" y="712"/>
      <point x="447" y="712" type="curve" smooth="yes"/>
      <point x="435" y="712"/>
      <point x="428" y="705"/>
      <point x="426" y="694" type="curve" smooth="yes"/>
      <point x="308" y="127"/>
      <point x="200" y="16"/>
      <point x="125" y="16" type="curve" smooth="yes"/>
      <point x="98" y="16"/>
      <point x="77" y="29"/>
      <point x="60" y="45" type="curve" smooth="yes"/>
      <point x="54" y="51"/>
      <point x="48" y="52"/>
      <point x="40" y="42" type="curve" smooth="yes"/>
      <point x="32" y="34"/>
      <point x="34" y="28"/>
      <point x="40" y="22" type="curve" smooth="yes"/>
      <point x="57" y="6"/>
      <point x="82" y="-14"/>
    </contour>
    <contour>
      <point x="324" y="242" type="line"/>
      <point x="563" y="242" type="line"/>
      <point x="563" y="268" type="line"/>
      <point x="324" y="268" type="line"/>
    </contour>
  </outline>
</glyph>
<glyph name="A.dec_locl.ini" format="2">
  <advance width="975"/>
  <anchor x="520" y="0" name="bottom"/>
  <anchor x="975" y="0" name="cnct"/>
  <anchor x="883" y="0" name="ogonek"/>
  <anchor x="558" y="838" name="top"/>
  <outline>
    <contour>
      <point x="158" y="-17" type="curve" smooth="yes"/>
      <point x="237" y="-17"/>
      <point x="328" y="53"/>
      <point x="421" y="303" type="curve"/>
      <point x="690" y="303" type="line"/>
      <point x="697" y="277"/>
      <point x="704" y="254"/>
      <point x="711" y="232" type="curve" smooth="yes"/>
      <point x="769" y="40"/>
      <point x="804" y="-17"/>
      <point x="871" y="-17" type="curve" smooth="yes"/>
      <point x="896" y="-17"/>
      <point x="896" y="18"/>
      <point x="871" y="18" type="curve" smooth="yes"/>
      <point x="821" y="18"/>
      <point x="790" y="88"/>
      <point x="719" y="336" type="curve" smooth="yes"/>
      <point x="646" y="590"/>
      <point x="613" y="729"/>
      <point x="584" y="868" type="curve" smooth="yes"/>
      <point x="581" y="883"/>
      <point x="574" y="890"/>
      <point x="559" y="890" type="curve" smooth="yes"/>
      <point x="544" y="890"/>
      <point x="535" y="881"/>
      <point x="533" y="868" type="curve" smooth="yes"/>
      <point x="385" y="159"/>
      <point x="250" y="20"/>
      <point x="156" y="20" type="curve" smooth="yes"/>
      <point x="123" y="20"/>
      <point x="96" y="36"/>
      <point x="75" y="56" type="curve" smooth="yes"/>
      <point x="68" y="64"/>
      <point x="60" y="65"/>
      <point x="50" y="53" type="curve" smooth="yes"/>
      <point x="40" y="43"/>
      <point x="43" y="35"/>
      <point x="50" y="28" type="curve" smooth="yes"/>
      <point x="71" y="8"/>
      <point x="103" y="-17"/>
    </contour>
    <contour>
      <point x="432" y="335" type="line"/>
      <point x="474" y="454"/>
      <point x="516" y="611"/>
      <point x="558" y="814" type="curve"/>
      <point x="584" y="691"/>
      <point x="617" y="559"/>
      <point x="681" y="335" type="curve"/>
    </contour>
  </outline>
</glyph>
<glyph name="AE.cur" format="2">
  <advance width="1029"/>
  <anchor x="603" y="670" name="top"/>
  <outline>
    <contour>
      <point x="115" y="-14" type="curve" smooth="yes"/>
      <point x="196" y="-14"/>
      <point x="263" y="74"/>
      <point x="499" y="686" type="curve"/>
      <point x="485" y="684" type="line"/>
      <point x="493" y="519"/>
      <point x="519" y="318"/>
      <point x="554" y="144" type="curve" smooth="yes"/>
      <point x="557" y="130"/>
      <point x="562" y="129"/>
      <point x="573" y="131" type="curve" smooth="yes"/>
      <point x="583" y="134"/>
      <point x="586" y="137"/>
      <point x="583" y="150" type="curve" smooth="yes"/>
      <point x="549" y="322"/>
      <point x="524" y="523"/>
      <point x="514" y="692" type="curve" smooth="yes"/>
      <point x="513" y="706"/>
      <point x="506" y="712"/>
      <point x="493" y="712" type="curve" smooth="yes"/>
      <point x="483" y="712"/>
      <point x="477" y="707"/>
      <point x="473" y="697" type="curve"/>
      <point x="238" y="100"/>
      <point x="177" y="16"/>
      <point x="114" y="16" type="curve" smooth="yes"/>
      <point x="92" y="16"/>
      <point x="77" y="25"/>
      <point x="60" y="41" type="curve" smooth="yes"/>
      <point x="54" y="47"/>
      <point x="48" y="48"/>
      <point x="40" y="38" type="curve" smooth="yes"/>
      <point x="32" y="30"/>
      <point x="34" y="24"/>
      <point x="40" y="18" type="curve" smooth="yes"/>
      <point x="57" y="2"/>
      <point x="76" y="-14"/>
    </contour>
    <contour>
      <point x="303" y="229" type="line"/>
      <point x="553" y="229" type="line"/>
      <point x="548" y="257" type="line"/>
      <point x="313" y="257" type="line"/>
    </contour>
    <contour>
      <point x="763" y="-15" type="curve" smooth="yes"/>
      <point x="859" y="-15"/>
      <point x="939" y="36"/>
      <point x="984" y="130" type="curve" smooth="yes"/>
      <point x="989" y="141"/>
      <point x="988" y="146"/>
      <point x="980" y="151" type="curve" smooth="yes"/>
      <point x="970" y="156"/>
      <point x="964" y="155"/>
      <point x="960" y="147" type="curve" smooth="yes"/>
      <point x="917" y="59"/>
      <point x="846" y="14"/>
      <point x="761" y="14" type="curve" smooth="yes"/>
      <point x="649" y="14"/>
      <point x="583" y="79"/>
      <point x="583" y="186" type="curve" smooth="yes"/>
      <point x="583" y="294"/>
      <point x="673" y="353"/>
      <point x="783" y="353" type="curve" smooth="yes"/>
      <point x="866" y="353" type="line" smooth="yes"/>
      <point x="872" y="353"/>
      <point x="875" y="358"/>
      <point x="875" y="367" type="curve" smooth="yes"/>
      <point x="875" y="376"/>
      <point x="872" y="381"/>
      <point x="866" y="381" type="curve" smooth="yes"/>
      <point x="780" y="381" type="line" smooth="yes"/>
      <point x="687" y="381"/>
      <point x="622" y="446"/>
      <point x="622" y="541" type="curve" smooth="yes"/>
      <point x="622" y="625"/>
      <point x="687" y="682"/>
      <point x="773" y="682" type="curve" smooth="yes"/>
      <point x="838" y="682"/>
      <point x="890" y="655"/>
      <point x="934" y="607" type="curve" smooth="yes"/>
      <point x="941" y="600"/>
      <point x="948" y="599"/>
      <point x="956" y="605" type="curve" smooth="yes"/>
      <point x="964" y="611"/>
      <point x="964" y="617"/>
      <point x="957" y="626" type="curve" smooth="yes"/>
      <point x="917" y="677"/>
      <point x="847" y="712"/>
      <point x="773" y="712" type="curve" smooth="yes"/>
      <point x="667" y="712"/>
      <point x="590" y="638"/>
      <point x="590" y="540" type="curve" smooth="yes"/>
      <point x="590" y="458"/>
      <point x="637" y="391"/>
      <point x="710" y="368" type="curve"/>
      <point x="619" y="347"/>
      <point x="550" y="286"/>
      <point x="550" y="185" type="curve" smooth="yes"/>
      <point x="550" y="62"/>
      <point x="630" y="-15"/>
    </contour>
  </outline>
</glyph>
<glyph name="AE.cur.locl" format="2">
  <advance width="960"/>
  <anchor x="528" y="670" name="top"/>
  <outline>
    <contour>
      <point x="91" y="-14" type="curve" smooth="yes"/>
      <point x="178" y="-14"/>
      <point x="250" y="69"/>
      <point x="510" y="671" type="curve"/>
      <point x="527" y="671" type="line"/>
      <point x="527" y="700" type="line"/>
      <point x="510" y="700" type="line"/>
      <point x="494" y="700"/>
      <point x="489" y="693"/>
      <point x="484" y="682" type="curve" smooth="yes"/>
      <point x="222" y="95"/>
      <point x="157" y="16"/>
      <point x="90" y="16" type="curve" smooth="yes"/>
      <point x="69" y="16"/>
      <point x="53" y="26"/>
      <point x="33" y="43" type="curve" smooth="yes"/>
      <point x="27" y="48"/>
      <point x="21" y="50"/>
      <point x="13" y="40" type="curve" smooth="yes"/>
      <point x="5" y="32"/>
      <point x="7" y="25"/>
      <point x="13" y="20" type="curve" smooth="yes"/>
      <point x="32" y="2"/>
      <point x="54" y="-14"/>
    </contour>
    <contour>
      <point x="525" y="336" type="line"/>
      <point x="525" y="364" type="line"/>
      <point x="353" y="364" type="line"/>
      <point x="343" y="336" type="line"/>
    </contour>
    <contour>
      <point x="764" y="0" type="line" smooth="yes"/>
      <point x="843" y="0"/>
      <point x="903" y="52"/>
      <point x="937" y="156" type="curve" smooth="yes"/>
      <point x="939" y="163"/>
      <point x="940" y="169"/>
      <point x="929" y="173" type="curve" smooth="yes"/>
      <point x="919" y="177"/>
      <point x="915" y="174"/>
      <point x="912" y="166" type="curve" smooth="yes"/>
      <point x="872" y="59"/>
      <point x="828" y="28"/>
      <point x="764" y="28" type="curve" smooth="yes"/>
      <point x="540" y="28" type="line"/>
      <point x="541" y="336" type="line"/>
      <point x="742" y="336" type="line" smooth="yes"/>
      <point x="747" y="336"/>
      <point x="751" y="340"/>
      <point x="751" y="350" type="curve" smooth="yes"/>
      <point x="751" y="360"/>
      <point x="747" y="364"/>
      <point x="742" y="364" type="curve" smooth="yes"/>
      <point x="541" y="364" type="line"/>
      <point x="540" y="672" type="line"/>
      <point x="831" y="672" type="line" smooth="yes"/>
      <point x="836" y="672"/>
      <point x="840" y="676"/>
      <point x="840" y="686" type="curve" smooth="yes"/>
      <point x="840" y="696"/>
      <point x="836" y="700"/>
      <point x="831" y="700" type="curve" smooth="yes"/>
      <point x="524" y="700" type="line" smooth="yes"/>
      <point x="513" y="700"/>
      <point x="510" y="697"/>
      <point x="510" y="688" type="curve" smooth="yes"/>
      <point x="510" y="12" type="line" smooth="yes"/>
      <point x="510" y="3"/>
      <point x="514" y="0"/>
      <point x="525" y="0" type="curve" smooth="yes"/>
    </contour>
  </outline>
</glyph>
<glyph name="AE.cur.locl.ini" format="2">
  <advance width="1100"/>
  <anchor x="660" y="838" name="top"/>
  <outline>
    <contour>
      <point x="114" y="-17" type="curve" smooth="yes"/>
      <point x="223" y="-17"/>
      <point x="313" y="86"/>
      <point x="638" y="839" type="curve"/>
      <point x="659" y="839" type="line"/>
      <point x="659" y="875" type="line"/>
      <point x="638" y="875" type="line"/>
      <point x="618" y="875"/>
      <point x="611" y="866"/>
      <point x="605" y="853" type="curve" smooth="yes"/>
      <point x="278" y="119"/>
      <point x="196" y="20"/>
      <point x="113" y="20" type="curve" smooth="yes"/>
      <point x="86" y="20"/>
      <point x="66" y="33"/>
      <point x="41" y="54" type="curve" smooth="yes"/>
      <point x="34" y="60"/>
      <point x="26" y="63"/>
      <point x="16" y="50" type="curve" smooth="yes"/>
      <point x="6" y="40"/>
      <point x="9" y="31"/>
      <point x="16" y="25" type="curve" smooth="yes"/>
      <point x="40" y="3"/>
      <point x="68" y="-17"/>
    </contour>
    <contour>
      <point x="656" y="420" type="line"/>
      <point x="656" y="455" type="line"/>
      <point x="441" y="455" type="line"/>
      <point x="429" y="420" type="line"/>
    </contour>
    <contour>
      <point x="998" y="-17" type="line"/>
      <point x="1018" y="-17"/>
      <point x="1018" y="18"/>
      <point x="998" y="18" type="curve" smooth="yes"/>
      <point x="675" y="18" type="line"/>
      <point x="676" y="420" type="line"/>
      <point x="928" y="420" type="line" smooth="yes"/>
      <point x="934" y="420"/>
      <point x="939" y="425"/>
      <point x="939" y="438" type="curve" smooth="yes"/>
      <point x="939" y="450"/>
      <point x="934" y="455"/>
      <point x="928" y="455" type="curve" smooth="yes"/>
      <point x="676" y="455" type="line"/>
      <point x="675" y="840" type="line"/>
      <point x="1039" y="840" type="line" smooth="yes"/>
      <point x="1045" y="840"/>
      <point x="1050" y="845"/>
      <point x="1050" y="858" type="curve" smooth="yes"/>
      <point x="1050" y="870"/>
      <point x="1045" y="875"/>
      <point x="1039" y="875" type="curve" smooth="yes"/>
      <point x="655" y="875" type="line" smooth="yes"/>
      <point x="641" y="875"/>
      <point x="638" y="871"/>
      <point x="638" y="860" type="curve" smooth="yes"/>
      <point x="638" y="-2" type="line" smooth="yes"/>
      <point x="638" y="-13"/>
      <point x="643" y="-17"/>
      <point x="656" y="-17" type="curve" smooth="yes"/>
    </contour>
  </outline>
</glyph>
<glyph name="B.cur" format="2">
  <advance width="715"/>
  <anchor x="393" y="0" name="bottom"/>
  <anchor x="239" y="206" name="center"/>
  <anchor x="393" y="670" name="top"/>
  <outline>
    <contour>
      <point x="436" y="-10" type="curve" smooth="yes"/>
      <point x="557" y="-10"/>
      <point x="654" y="91"/>
      <point x="654" y="219" type="curve" smooth="yes"/>
      <point x="654" y="319"/>
      <point x="582" y="383"/>
      <point x="467" y="384" type="curve"/>
      <point x="467" y="385" type="line"/>
      <point x="556" y="403"/>
      <point x="613" y="464"/>
      <point x="613" y="551" type="curve" smooth="yes"/>
      <point x="613" y="655"/>
      <point x="518" y="712"/>
      <point x="364" y="712" type="curve" smooth="yes"/>
      <point x="253" y="712"/>
      <point x="140" y="680"/>
      <point x="58" y="630" type="curve" smooth="yes"/>
      <point x="51" y="626"/>
      <point x="50" y="620"/>
      <point x="56" y="611" type="curve" smooth="yes"/>
      <point x="62" y="602"/>
      <point x="68" y="601"/>
      <point x="74" y="605" type="curve" smooth="yes"/>
      <point x="149" y="655"/>
      <point x="259" y="683"/>
      <point x="364" y="683" type="curve" smooth="yes"/>
      <point x="499" y="683"/>
      <point x="581" y="637"/>
      <point x="581" y="550" type="curve" smooth="yes"/>
      <point x="581" y="468"/>
      <point x="520" y="411"/>
      <point x="425" y="396" type="curve"/>
      <point x="413" y="401"/>
      <point x="400" y="403"/>
      <point x="385" y="403" type="curve" smooth="yes"/>
      <point x="363" y="403"/>
      <point x="347" y="392"/>
      <point x="347" y="376" type="curve" smooth="yes"/>
      <point x="347" y="363"/>
      <point x="359" y="354"/>
      <point x="378" y="354" type="curve" smooth="yes"/>
      <point x="391" y="354"/>
      <point x="409" y="358"/>
      <point x="426" y="366" type="curve"/>
      <point x="553" y="364"/>
      <point x="621" y="312"/>
      <point x="621" y="217" type="curve" smooth="yes"/>
      <point x="621" y="108"/>
      <point x="538" y="19"/>
      <point x="436" y="19" type="curve" smooth="yes"/>
      <point x="386" y="19"/>
      <point x="348" y="36"/>
      <point x="320" y="72" type="curve" smooth="yes"/>
      <point x="311" y="83"/>
      <point x="307" y="84"/>
      <point x="298" y="77" type="curve" smooth="yes"/>
      <point x="290" y="71"/>
      <point x="290" y="66"/>
      <point x="298" y="54" type="curve" smooth="yes"/>
      <point x="327" y="13"/>
      <point x="377" y="-10"/>
    </contour>
    <contour>
      <point x="171" y="-14" type="curve" smooth="yes"/>
      <point x="224" y="-14"/>
      <point x="254" y="19"/>
      <point x="254" y="82" type="curve" smooth="yes"/>
      <point x="254" y="597" type="line" smooth="yes"/>
      <point x="254" y="605"/>
      <point x="250" y="609"/>
      <point x="240" y="609" type="curve" smooth="yes"/>
      <point x="229" y="609"/>
      <point x="224" y="606"/>
      <point x="224" y="597" type="curve" smooth="yes"/>
      <point x="224" y="91" type="line" smooth="yes"/>
      <point x="224" y="34"/>
      <point x="210" y="15"/>
      <point x="168" y="15" type="curve" smooth="yes"/>
      <point x="126" y="15"/>
      <point x="87" y="49"/>
      <point x="60" y="110" type="curve" smooth="yes"/>
      <point x="57" y="117"/>
      <point x="50" y="118"/>
      <point x="42" y="114" type="curve" smooth="yes"/>
      <point x="34" y="110"/>
      <point x="31" y="106"/>
      <point x="33" y="101" type="curve" smooth="yes"/>
      <point x="64" y="25"/>
      <point x="112" y="-14"/>
    </contour>
  </outline>
</glyph>
<glyph name="B.dec" format="2">
  <advance width="919"/>
  <anchor x="510" y="0" name="bottom"/>
  <anchor x="259" y="258" name="center"/>
  <anchor x="510" y="838" name="top"/>
  <outline>
    <contour>
      <point x="570" y="-12" type="curve" smooth="yes"/>
      <point x="725" y="-12"/>
      <point x="844" y="88"/>
      <point x="844" y="246" type="curve" smooth="yes"/>
      <point x="844" y="384"/>
      <point x="754" y="453"/>
      <point x="598" y="478" type="curve"/>
      <point x="598" y="479" type="line"/>
      <point x="716" y="515"/>
      <point x="793" y="606"/>
      <point x="793" y="713" type="curve" smooth="yes"/>
      <point x="793" y="819"/>
      <point x="723" y="890"/>
      <point x="609" y="890" type="curve" smooth="yes"/>
      <point x="456" y="890"/>
      <point x="331" y="768"/>
      <point x="276" y="586" type="curve"/>
      <point x="276" y="873" type="line" smooth="yes"/>
      <point x="276" y="883"/>
      <point x="270" y="888"/>
      <point x="259" y="888" type="curve" smooth="yes"/>
      <point x="248" y="888"/>
      <point x="239" y="883"/>
      <point x="236" y="875" type="curve" smooth="yes"/>
      <point x="200" y="765"/>
      <point x="138" y="681"/>
      <point x="44" y="596" type="curve" smooth="yes"/>
      <point x="38" y="591"/>
      <point x="34" y="584"/>
      <point x="43" y="574" type="curve" smooth="yes"/>
      <point x="50" y="565"/>
      <point x="58" y="563"/>
      <point x="66" y="570" type="curve" smooth="yes"/>
      <point x="145" y="643"/>
      <point x="200" y="709"/>
      <point x="239" y="795" type="curve"/>
      <point x="239" y="1" type="line" smooth="yes"/>
      <point x="239" y="-9"/>
      <point x="245" y="-14"/>
      <point x="258" y="-14" type="curve" smooth="yes"/>
      <point x="271" y="-14"/>
      <point x="276" y="-9"/>
      <point x="276" y="1" type="curve" smooth="yes"/>
      <point x="276" y="375" type="line" smooth="yes"/>
      <point x="276" y="635"/>
      <point x="416" y="855"/>
      <point x="604" y="855" type="curve" smooth="yes"/>
      <point x="699" y="855"/>
      <point x="753" y="796"/>
      <point x="753" y="711" type="curve" smooth="yes"/>
      <point x="753" y="609"/>
      <point x="676" y="520"/>
      <point x="558" y="495" type="curve"/>
      <point x="543" y="501"/>
      <point x="526" y="504"/>
      <point x="508" y="504" type="curve" smooth="yes"/>
      <point x="479" y="503"/>
      <point x="460" y="489"/>
      <point x="460" y="470" type="curve" smooth="yes"/>
      <point x="460" y="453"/>
      <point x="476" y="443"/>
      <point x="499" y="443" type="curve" smooth="yes"/>
      <point x="515" y="443"/>
      <point x="538" y="448"/>
      <point x="559" y="458" type="curve"/>
      <point x="715" y="433"/>
      <point x="803" y="376"/>
      <point x="803" y="244" type="curve" smooth="yes"/>
      <point x="803" y="108"/>
      <point x="703" y="23"/>
      <point x="570" y="23" type="curve" smooth="yes"/>
      <point x="514" y="23"/>
      <point x="465" y="36"/>
      <point x="420" y="56" type="curve" smooth="yes"/>
      <point x="413" y="60"/>
      <point x="401" y="55"/>
      <point x="398" y="45" type="curve"/>
      <point x="391" y="36"/>
      <point x="395" y="25"/>
      <point x="404" y="21" type="curve" smooth="yes"/>
      <point x="450" y="1"/>
      <point x="505" y="-12"/>
    </contour>
  </outline>
</glyph>
<glyph name="C.cur" format="2">
  <advance width="620"/>
  <anchor x="352" y="0" name="bottom"/>
  <anchor x="365" y="670" name="top"/>
  <outline>
    <contour>
      <point x="343" y="-15" type="curve" smooth="yes"/>
      <point x="454" y="-15"/>
      <point x="529" y="62"/>
      <point x="575" y="147" type="curve" smooth="yes"/>
      <point x="581" y="158"/>
      <point x="582" y="164"/>
      <point x="572" y="170" type="curve" smooth="yes"/>
      <point x="562" y="176"/>
      <point x="557" y="173"/>
      <point x="551" y="163" type="curve" smooth="yes"/>
      <point x="509" y="89"/>
      <point x="444" y="15"/>
      <point x="343" y="15" type="curve" smooth="yes"/>
      <point x="211" y="15"/>
      <point x="108" y="134"/>
      <point x="108" y="339" type="curve" smooth="yes"/>
      <point x="108" y="543"/>
      <point x="217" y="682"/>
      <point x="371" y="682" type="curve" smooth="yes"/>
      <point x="433" y="682"/>
      <point x="486" y="662"/>
      <point x="527" y="616" type="curve" smooth="yes"/>
      <point x="535" y="607"/>
      <point x="542" y="606"/>
      <point x="549" y="611" type="curve" smooth="yes"/>
      <point x="558" y="618"/>
      <point x="558" y="624"/>
      <point x="550" y="633" type="curve" smooth="yes"/>
      <point x="506" y="686"/>
      <point x="444" y="712"/>
      <point x="373" y="712" type="curve" smooth="yes"/>
      <point x="200" y="712"/>
      <point x="75" y="560"/>
      <point x="75" y="339" type="curve" smooth="yes"/>
      <point x="75" y="117"/>
      <point x="192" y="-15"/>
    </contour>
  </outline>
</glyph>
<glyph name="D.cur" format="2">
	<advance width="800"/>
	<outline>
		<contour>
			<point x="433" y="-14" type="curve" smooth="yes"/>
			<point x="601" y="-14"/>
			<point x="723" y="140"/>
			<point x="723" y="353" type="curve" smooth="yes"/>
			<point x="723" y="577"/>
			<point x="585" y="712"/>
			<point x="349" y="712" type="curve" smooth="yes"/>
			<point x="245" y="712"/>
			<point x="152" y="680"/>
			<point x="70" y="630" type="curve" smooth="yes"/>
			<point x="63" y="626"/>
			<point x="62" y="620"/>
			<point x="68" y="611" type="curve" smooth="yes"/>
			<point x="74" y="602"/>
			<point x="80" y="601"/>
			<point x="86" y="605" type="curve" smooth="yes"/>
			<point x="161" y="653"/>
			<point x="250" y="685"/>
			<point x="349" y="685" type="curve" smooth="yes"/>
			<point x="561" y="685"/>
			<point x="690" y="558"/>
			<point x="690" y="353" type="curve" smooth="yes"/>
			<point x="690" y="158"/>
			<point x="580" y="14"/>
			<point x="433" y="14" type="curve" smooth="yes"/>
			<point x="386" y="14"/>
			<point x="351" y="31"/>
			<point x="322" y="68" type="curve" smooth="yes"/>
			<point x="313" y="79"/>
			<point x="309" y="80"/>
			<point x="300" y="73" type="curve" smooth="yes"/>
			<point x="292" y="67"/>
			<point x="292" y="62"/>
			<point x="300" y="50" type="curve" smooth="yes"/>
			<point x="329" y="9"/>
			<point x="377" y="-14"/>
		</contour>
		<contour>
			<point x="171" y="-14" type="curve" smooth="yes"/>
			<point x="222" y="-14"/>
			<point x="254" y="19"/>
			<point x="254" y="72" type="curve" smooth="yes"/>
			<point x="254" y="594" type="line" smooth="yes"/>
			<point x="254" y="602"/>
			<point x="250" y="606"/>
			<point x="240" y="606" type="curve" smooth="yes"/>
			<point x="229" y="606"/>
			<point x="224" y="603"/>
			<point x="224" y="594" type="curve" smooth="yes"/>
			<point x="224" y="91" type="line" smooth="yes"/>
			<point x="224" y="34"/>
			<point x="210" y="15"/>
			<point x="168" y="15" type="curve" smooth="yes"/>
			<point x="126" y="15"/>
			<point x="87" y="49"/>
			<point x="60" y="110" type="curve" smooth="yes"/>
			<point x="57" y="117"/>
			<point x="50" y="118"/>
			<point x="42" y="114" type="curve" smooth="yes"/>
			<point x="34" y="110"/>
			<point x="31" y="106"/>
			<point x="33" y="101" type="curve" smooth="yes"/>
			<point x="64" y="25"/>
			<point x="112" y="-14"/>
		</contour>
	</outline>
	<anchor name="bottom" x="420" y="0"/>
	<anchor name="center" x="289" y="350"/>
	<anchor name="top" x="429" y="670"/>
</glyph>
<glyph name="D.dec" format="2">
  <advance width="1015"/>
  <anchor x="526" y="-12" name="bottom"/>
  <anchor x="363" y="425" name="center"/>
  <anchor x="538" y="825" name="top"/>
  <outline>
    <contour>
      <point x="210" y="-21" type="curve" smooth="yes"/>
      <point x="281" y="-21"/>
      <point x="334" y="28"/>
      <point x="334" y="134" type="curve" smooth="yes"/>
      <point x="334" y="724" type="line" smooth="yes"/>
      <point x="334" y="734"/>
      <point x="329" y="739"/>
      <point x="316" y="739" type="curve" smooth="yes"/>
      <point x="303" y="739"/>
      <point x="296" y="735"/>
      <point x="296" y="724" type="curve" smooth="yes"/>
      <point x="296" y="134" type="line" smooth="yes"/>
      <point x="296" y="51"/>
      <point x="261" y="13"/>
      <point x="213" y="13" type="curve" smooth="yes"/>
      <point x="171" y="13"/>
      <point x="143" y="40"/>
      <point x="143" y="69" type="curve" smooth="yes"/>
      <point x="143" y="91"/>
      <point x="158" y="105"/>
      <point x="183" y="105" type="curve" smooth="yes"/>
      <point x="271" y="105"/>
      <point x="409" y="-11"/>
      <point x="568" y="-11" type="curve" smooth="yes"/>
      <point x="743" y="-11"/>
      <point x="921" y="173"/>
      <point x="921" y="438" type="curve" smooth="yes"/>
      <point x="921" y="720"/>
      <point x="746" y="890"/>
      <point x="475" y="890" type="curve" smooth="yes"/>
      <point x="301" y="890"/>
      <point x="113" y="815"/>
      <point x="80" y="636" type="curve" smooth="yes"/>
      <point x="79" y="628"/>
      <point x="85" y="621"/>
      <point x="96" y="620" type="curve" smooth="yes"/>
      <point x="108" y="619"/>
      <point x="114" y="624"/>
      <point x="116" y="634" type="curve" smooth="yes"/>
      <point x="149" y="793"/>
      <point x="320" y="855"/>
      <point x="473" y="855" type="curve" smooth="yes"/>
      <point x="716" y="855"/>
      <point x="880" y="704"/>
      <point x="880" y="438" type="curve" smooth="yes"/>
      <point x="880" y="195"/>
      <point x="718" y="23"/>
      <point x="568" y="23" type="curve" smooth="yes"/>
      <point x="423" y="23"/>
      <point x="284" y="140"/>
      <point x="180" y="140" type="curve" smooth="yes"/>
      <point x="139" y="140"/>
      <point x="101" y="110"/>
      <point x="101" y="65" type="curve" smooth="yes"/>
      <point x="101" y="21"/>
      <point x="146" y="-21"/>
    </contour>
  </outline>
</glyph>
<glyph name="E.cur" format="2">
	<advance width="558"/>
	<outline>
		<contour>
			<point x="300" y="-15" type="curve" smooth="yes"/>
			<point x="394" y="-15"/>
			<point x="468" y="36"/>
			<point x="513" y="130" type="curve" smooth="yes"/>
			<point x="518" y="141"/>
			<point x="517" y="146"/>
			<point x="509" y="151" type="curve" smooth="yes"/>
			<point x="499" y="156"/>
			<point x="493" y="155"/>
			<point x="489" y="147" type="curve" smooth="yes"/>
			<point x="446" y="59"/>
			<point x="381" y="14"/>
			<point x="298" y="14" type="curve" smooth="yes"/>
			<point x="179" y="14"/>
			<point x="114" y="74"/>
			<point x="114" y="184" type="curve" smooth="yes"/>
			<point x="114" y="282"/>
			<point x="193" y="353"/>
			<point x="303" y="353" type="curve" smooth="yes"/>
			<point x="395" y="353" type="line" smooth="yes"/>
			<point x="401" y="353"/>
			<point x="404" y="358"/>
			<point x="404" y="367" type="curve" smooth="yes"/>
			<point x="404" y="376"/>
			<point x="401" y="381"/>
			<point x="395" y="381" type="curve" smooth="yes"/>
			<point x="300" y="381" type="line" smooth="yes"/>
			<point x="207" y="381"/>
			<point x="143" y="446"/>
			<point x="143" y="541" type="curve" smooth="yes"/>
			<point x="143" y="625"/>
			<point x="205" y="682"/>
			<point x="296" y="682" type="curve" smooth="yes"/>
			<point x="361" y="682"/>
			<point x="422" y="655"/>
			<point x="466" y="607" type="curve" smooth="yes"/>
			<point x="473" y="600"/>
			<point x="480" y="599"/>
			<point x="488" y="605" type="curve" smooth="yes"/>
			<point x="496" y="611"/>
			<point x="496" y="617"/>
			<point x="489" y="626" type="curve" smooth="yes"/>
			<point x="449" y="677"/>
			<point x="370" y="712"/>
			<point x="296" y="712" type="curve" smooth="yes"/>
			<point x="185" y="712"/>
			<point x="111" y="643"/>
			<point x="111" y="540" type="curve" smooth="yes"/>
			<point x="111" y="458"/>
			<point x="157" y="391"/>
			<point x="230" y="368" type="curve"/>
			<point x="139" y="347"/>
			<point x="81" y="274"/>
			<point x="81" y="183" type="curve" smooth="yes"/>
			<point x="81" y="57"/>
			<point x="160" y="-15"/>
		</contour>
	</outline>
	<anchor name="bottom" x="294" y="0"/>
	<anchor name="ogonek" x="487" y="10"/>
	<anchor name="top" x="309" y="670"/>
</glyph>
<glyph name="E.cur.ini" format="2">
  <advance width="690"/>
  <anchor x="368" y="0" name="bottom"/>
  <anchor x="690" y="0" name="cnct"/>
  <anchor x="478" y="0" name="ogonek"/>
  <anchor x="386" y="838" name="top"/>
  <outline>
    <contour>
      <point x="348" y="-17" type="curve" smooth="yes"/>
      <point x="368" y="-17"/>
      <point x="373" y="16"/>
      <point x="353" y="16" type="curve" smooth="yes"/>
      <point x="207" y="16"/>
      <point x="142" y="113"/>
      <point x="142" y="215" type="curve" smooth="yes"/>
      <point x="142" y="326"/>
      <point x="229" y="441"/>
      <point x="379" y="441" type="curve" smooth="yes"/>
      <point x="494" y="441" type="line" smooth="yes"/>
      <point x="501" y="441"/>
      <point x="505" y="448"/>
      <point x="505" y="459" type="curve" smooth="yes"/>
      <point x="505" y="470"/>
      <point x="501" y="476"/>
      <point x="494" y="476" type="curve" smooth="yes"/>
      <point x="375" y="476" type="line" smooth="yes"/>
      <point x="259" y="476"/>
      <point x="179" y="558"/>
      <point x="179" y="676" type="curve" smooth="yes"/>
      <point x="179" y="781"/>
      <point x="256" y="853"/>
      <point x="370" y="853" type="curve" smooth="yes"/>
      <point x="451" y="853"/>
      <point x="528" y="819"/>
      <point x="583" y="759" type="curve" smooth="yes"/>
      <point x="591" y="750"/>
      <point x="600" y="749"/>
      <point x="610" y="756" type="curve" smooth="yes"/>
      <point x="620" y="764"/>
      <point x="620" y="771"/>
      <point x="611" y="783" type="curve" smooth="yes"/>
      <point x="561" y="846"/>
      <point x="463" y="890"/>
      <point x="370" y="890" type="curve" smooth="yes"/>
      <point x="231" y="890"/>
      <point x="139" y="804"/>
      <point x="139" y="675" type="curve" smooth="yes"/>
      <point x="139" y="573"/>
      <point x="196" y="488"/>
      <point x="288" y="459" type="curve"/>
      <point x="169" y="428"/>
      <point x="100" y="318"/>
      <point x="100" y="212" type="curve" smooth="yes"/>
      <point x="100" y="95"/>
      <point x="175" y="-17"/>
    </contour>
  </outline>
</glyph>
<glyph name="F.cur" format="2">
	<advance width="593"/>
	<outline>
		<contour>
			<point x="174" y="-14" type="curve" smooth="yes"/>
			<point x="225" y="-14"/>
			<point x="257" y="19"/>
			<point x="257" y="72" type="curve" smooth="yes"/>
			<point x="257" y="336" type="line"/>
			<point x="514" y="336" type="line" smooth="yes"/>
			<point x="520" y="336"/>
			<point x="523" y="341"/>
			<point x="523" y="350" type="curve" smooth="yes"/>
			<point x="523" y="359"/>
			<point x="520" y="364"/>
			<point x="514" y="364" type="curve" smooth="yes"/>
			<point x="257" y="364" type="line"/>
			<point x="257" y="672" type="line"/>
			<point x="564" y="672" type="line" smooth="yes"/>
			<point x="570" y="672"/>
			<point x="573" y="677"/>
			<point x="573" y="686" type="curve" smooth="yes"/>
			<point x="573" y="695"/>
			<point x="570" y="700"/>
			<point x="564" y="700" type="curve" smooth="yes"/>
			<point x="222" y="700" type="line" smooth="yes"/>
			<point x="139" y="700"/>
			<point x="80" y="667"/>
			<point x="40" y="626" type="curve" smooth="yes"/>
			<point x="32" y="618"/>
			<point x="32" y="611"/>
			<point x="40" y="605" type="curve" smooth="yes"/>
			<point x="49" y="598"/>
			<point x="54" y="599"/>
			<point x="62" y="606" type="curve" smooth="yes"/>
			<point x="97" y="644"/>
			<point x="149" y="673"/>
			<point x="222" y="673" type="curve" smooth="yes"/>
			<point x="227" y="673" type="line"/>
			<point x="227" y="91" type="line" smooth="yes"/>
			<point x="227" y="34"/>
			<point x="213" y="15"/>
			<point x="171" y="15" type="curve" smooth="yes"/>
			<point x="129" y="15"/>
			<point x="90" y="49"/>
			<point x="63" y="110" type="curve" smooth="yes"/>
			<point x="60" y="117"/>
			<point x="53" y="118"/>
			<point x="45" y="114" type="curve" smooth="yes"/>
			<point x="37" y="110"/>
			<point x="34" y="106"/>
			<point x="36" y="101" type="curve" smooth="yes"/>
			<point x="67" y="25"/>
			<point x="115" y="-14"/>
		</contour>
	</outline>
</glyph>
<glyph name="F.cur_locl" format="2">
	<advance width="673"/>
	<outline>
		<contour>
			<point x="198" y="-14" type="curve" smooth="yes"/>
			<point x="359" y="-14"/>
			<point x="521" y="213"/>
			<point x="521" y="461" type="curve" smooth="yes"/>
			<point x="521" y="623"/>
			<point x="453" y="712"/>
			<point x="315" y="712" type="curve" smooth="yes"/>
			<point x="225" y="712"/>
			<point x="144" y="669"/>
			<point x="79" y="616" type="curve" smooth="yes"/>
			<point x="71" y="610"/>
			<point x="70" y="604"/>
			<point x="77" y="596" type="curve" smooth="yes"/>
			<point x="84" y="586"/>
			<point x="91" y="587"/>
			<point x="97" y="592" type="curve" smooth="yes"/>
			<point x="159" y="644"/>
			<point x="240" y="682"/>
			<point x="315" y="682" type="curve" smooth="yes"/>
			<point x="434" y="682"/>
			<point x="488" y="604"/>
			<point x="488" y="461" type="curve" smooth="yes"/>
			<point x="488" y="229"/>
			<point x="337" y="16"/>
			<point x="198" y="16" type="curve" smooth="yes"/>
			<point x="138" y="16"/>
			<point x="107" y="59"/>
			<point x="107" y="122" type="curve" smooth="yes"/>
			<point x="107" y="243"/>
			<point x="156" y="386"/>
			<point x="634" y="456" type="curve"/>
			<point x="615" y="465" type="line"/>
			<point x="615" y="372" type="line" smooth="yes"/>
			<point x="615" y="363"/>
			<point x="620" y="360"/>
			<point x="631" y="360" type="curve" smooth="yes"/>
			<point x="641" y="360"/>
			<point x="645" y="364"/>
			<point x="645" y="372" type="curve" smooth="yes"/>
			<point x="645" y="467" type="line" smooth="yes"/>
			<point x="645" y="478"/>
			<point x="639" y="486"/>
			<point x="629" y="484" type="curve" smooth="yes"/>
			<point x="124" y="406"/>
			<point x="74" y="247"/>
			<point x="74" y="122" type="curve" smooth="yes"/>
			<point x="74" y="42"/>
			<point x="119" y="-14"/>
		</contour>
	</outline>
</glyph>
<glyph name="F.dec" format="2">
  <advance width="939"/>
  <outline>
    <contour>
      <point x="400" y="-17" type="curve" smooth="yes"/>
      <point x="566" y="-17"/>
      <point x="648" y="150"/>
      <point x="648" y="425" type="curve" smooth="yes"/>
      <point x="648" y="431" type="line"/>
      <point x="788" y="431" type="line" smooth="yes"/>
      <point x="795" y="431"/>
      <point x="799" y="439"/>
      <point x="799" y="450" type="curve" smooth="yes"/>
      <point x="799" y="461"/>
      <point x="795" y="466"/>
      <point x="788" y="466" type="curve" smooth="yes"/>
      <point x="649" y="466" type="line"/>
      <point x="649" y="806" type="line"/>
      <point x="666" y="803"/>
      <point x="688" y="801"/>
      <point x="711" y="801" type="curve" smooth="yes"/>
      <point x="779" y="801"/>
      <point x="835" y="814"/>
      <point x="896" y="846" type="curve" smooth="yes"/>
      <point x="906" y="851"/>
      <point x="909" y="860"/>
      <point x="903" y="870" type="curve" smooth="yes"/>
      <point x="896" y="884"/>
      <point x="889" y="884"/>
      <point x="880" y="879" type="curve" smooth="yes"/>
      <point x="826" y="849"/>
      <point x="768" y="835"/>
      <point x="714" y="835" type="curve" smooth="yes"/>
      <point x="600" y="835"/>
      <point x="578" y="890"/>
      <point x="446" y="890" type="curve" smooth="yes"/>
      <point x="331" y="890"/>
      <point x="208" y="826"/>
      <point x="135" y="728" type="curve" smooth="yes"/>
      <point x="128" y="718"/>
      <point x="131" y="711"/>
      <point x="141" y="704" type="curve" smooth="yes"/>
      <point x="154" y="696"/>
      <point x="161" y="699"/>
      <point x="168" y="708" type="curve" smooth="yes"/>
      <point x="226" y="794"/>
      <point x="351" y="856"/>
      <point x="448" y="856" type="curve" smooth="yes"/>
      <point x="523" y="856"/>
      <point x="556" y="831"/>
      <point x="611" y="815" type="curve"/>
      <point x="611" y="466" type="line"/>
      <point x="445" y="466" type="line" smooth="yes"/>
      <point x="438" y="466"/>
      <point x="434" y="461"/>
      <point x="434" y="450" type="curve" smooth="yes"/>
      <point x="434" y="439"/>
      <point x="438" y="431"/>
      <point x="445" y="431" type="curve" smooth="yes"/>
      <point x="610" y="431" type="line"/>
      <point x="610" y="425" type="line" smooth="yes"/>
      <point x="610" y="173"/>
      <point x="543" y="19"/>
      <point x="399" y="19" type="curve" smooth="yes"/>
      <point x="280" y="19"/>
      <point x="165" y="101"/>
      <point x="108" y="251" type="curve"/>
      <point x="196" y="233"/>
      <point x="280" y="225"/>
      <point x="383" y="225" type="curve" smooth="yes"/>
      <point x="390" y="225"/>
      <point x="394" y="234"/>
      <point x="394" y="245" type="curve" smooth="yes"/>
      <point x="394" y="258"/>
      <point x="390" y="263"/>
      <point x="383" y="263" type="curve" smooth="yes"/>
      <point x="279" y="263"/>
      <point x="188" y="271"/>
      <point x="106" y="290" type="curve" smooth="yes"/>
      <point x="100" y="291"/>
      <point x="90" y="295"/>
      <point x="76" y="281" type="curve" smooth="yes"/>
      <point x="64" y="269"/>
      <point x="68" y="255"/>
      <point x="70" y="249" type="curve" smooth="yes"/>
      <point x="124" y="86"/>
      <point x="251" y="-17"/>
    </contour>
  </outline>
</glyph>
